<?xml version="1.0" encoding="UTF-8"?><svg id="_イヤー_2" xmlns="http://www.w3.org/2000/svg" viewBox="0 0 534.1 531.39"><defs><style>.cls-1{fill:none;}.cls-2{fill-rule:evenodd;}</style></defs><g id="_イヤー_1-2"><g><path class="cls-1" d="M18.5,194.28c-1.86,6.1-4.22,12.43-6.79,19.29-2.55,6.9-5.31,14.27-7.5,22.45-2.18,8.14-3.82,16.98-4.11,25.99l-.09,3.37v1.57l.04,1.47,.15,5.9c.06,1.96,.09,3.93,.18,5.89l.45,5.88c1.19,15.69,3.77,31.29,7.74,46.53,4.05,15.22,9.47,30.07,16.16,44.31,13.38,28.48,31.81,54.51,54.15,76.56,22.37,22.02,48.56,40.11,77.07,53.26,28.48,13.24,59.39,21.18,90.67,23.72,7.82,.72,15.67,.87,23.51,.91l11.77-.3,11.75-.88c15.64-1.51,31.16-4.38,46.31-8.59,15.15-4.21,29.92-9.78,44.09-16.6,14.16-6.85,27.67-15,40.38-24.24,25.42-18.48,47.53-41.45,65.03-67.56,17.52-26.1,30.2-55.44,37.48-86.02,3.61-15.3,5.98-30.91,6.79-46.6,.82-15.68,.31-31.41-1.56-47.02-1.88-15.6-5.07-31.06-9.72-46.09-4.66-15.02-10.64-29.63-17.86-43.59-14.44-27.92-33.81-53.27-57.02-74.46-23.23-21.16-50.21-38.19-79.35-50.02-14.57-5.9-29.65-10.6-45.06-13.77-15.4-3.19-31.07-5-46.76-5.47-8.04-.28-15.21-.17-22.72-.06-7.46,.13-14.98,.38-22.55,.82-15.14,.88-30.54,2.5-46.03,5.63-15.47,3.12-31.04,7.83-45.91,14.71-14.87,6.84-28.92,15.9-41.27,26.63l27.01,31.15c9.55-8.28,20.12-15.09,31.59-20.37,11.46-5.3,23.81-9.09,36.75-11.71,12.94-2.62,26.44-4.09,40.24-4.88,6.9-.4,13.87-.64,20.91-.76,6.99-.11,14.32-.2,20.77,.04,13.29,.4,26.52,1.93,39.52,4.61,13.01,2.66,25.72,6.65,38.02,11.62,24.59,9.98,47.39,24.37,67.04,42.26,39.27,35.83,65.42,85.8,71.48,138.63,1.57,13.18,2.01,26.52,1.33,39.8-.68,13.28-2.7,26.45-5.74,39.36-6.14,25.8-16.82,50.56-31.63,72.62-14.8,22.06-33.51,41.49-54.99,57.12-10.74,7.81-22.15,14.7-34.1,20.48-11.96,5.76-24.43,10.44-37.21,14-12.78,3.56-25.88,5.98-39.1,7.26-13.22,1.34-26.59,1.27-39.84,.22-26.49-2.15-52.63-8.85-76.76-20.08-24.15-11.14-46.37-26.49-65.34-45.14-18.94-18.69-34.51-40.73-45.79-64.73-5.64-12-10.2-24.5-13.62-37.3-3.33-12.82-5.5-25.94-6.5-39.16l-.39-4.96c-.08-1.66-.09-3.32-.14-4.97l-.13-4.97-.03-1.24-.02-.62c0-.2,0-.35,.01-.53l.06-2.06c.16-5.49,1.16-11.01,2.72-16.86,1.54-5.84,3.84-12.08,6.32-18.77,2.51-6.72,5.25-13.98,7.62-21.74l-39.46-11.97Z"/><path class="cls-2" d="M129.18,53.1c1.15-.37,2.22-.97,3.21-1.83-1.06,.65-2.27,.9-3.21,1.83Z"/><path class="cls-2" d="M131.73,50.58c1.04-.73,2.25-.92,3.23-1.83-1.1,.53-2.3,.78-3.23,1.83Z"/><path class="cls-2" d="M140.78,47.18c1.24-.41,1.18-.69,2.88-1.66-.66,.1-1.26,.46-1.89,.68-.67,.5-.26,.45-.99,.98Z"/><path class="cls-2" d="M176.28,41.07l1.56-.03c.76-.5,1.53-.48,2.3-.91-1.29-.01-2.59,.3-3.85,.95Z"/><path class="cls-2" d="M137.81,47.08c-.48,.53,2.07-.47,2.65-1.07-.09-.31-.91,.35-1.96,.52-.07,.18-.15,.36-.7,.55Z"/><path class="cls-2" d="M181.68,39.92c1.48-.37,1.54-.08,2.32-.05,.61-.44,.25-.64-.78-.68l-1.53,.73Z"/><path class="cls-2" d="M160.77,39.2c-.42,.48,2.32-.4,3.07-1.12-1.08-.02-2.01,1.06-3.07,1.12Z"/><path class="cls-2" d="M196.45,37.57c.6-.06,1.71-.37,1.18-.09,.78,.08,1.6-.51,2.39-.71,.61,.23,1.92,.16,3.51,.06,0-.34,.67-.62,1.62-.84l3.24-.62c-1.2,.12-2.41,.37-3.58,.15,0,.47-.7,.39-2.42,.88-.1-.1-.21-.2-.77-.23-1.07,.37-2.12,.53-3.17,.49-1.04,.36-1.99,.7-2.01,.91Z"/><path class="cls-2" d="M165.79,37.67l1.6-.13c.03-.14,.43-.51,1.15-.61,.58-.43-2.08,.16-2.75,.74Z"/><path class="cls-2" d="M170.33,33.82c1.2-.26,2.38-.71,3.56-1.34-1.25,.31-3.54,.89-3.56,1.34Z"/><path class="cls-2" d="M229.79,35.91c1.14,.2,3.21,0,3.27-.35-1.08,.09-2.15,.08-3.27,.35Z"/><path class="cls-2" d="M182.35,30.83c1.33-.31,2.69-.1,4.05-.86-1.35,.17-2.72,.27-4.05,.86Z"/><path class="cls-2" d="M224.59,30.5c1.76,.05,1.59-.32,3.77-.63-.55,0-1.09,0-1.62-.08-.69,.6-2.71,.26-2.15,.72Z"/><path class="cls-2" d="M196.25,26.95c.52-.36-2.41,.08-3.26-.18-1.24,.6,2.06,.19,3.26,.18Z"/><path class="cls-2" d="M210.64,25.61c1.38-.18,2.73-.23,4.16-.62-1.65-.01-3.3,.24-4.92,.19-1.45,.34,2.2,.09,.77,.42Z"/><path class="cls-2" d="M255.97,32.86c-.62,.53,2.41,.07,3.26,.16,.59-.42-2.42-.12-3.26-.16Z"/><path class="cls-2" d="M259.25,31.07c-.89-.33-1.97,.17-2.84-.25-.79,.24-.83,.46-.14,.68,1.23-.45,2.93,0,2.98-.43Z"/><path class="cls-2" d="M281.4,36.56c1.38,.32,2.77,.6,4.29,.46-1.42-.18-2.81-.45-4.29-.46Z"/><path class="cls-2" d="M200.74,21.96c.81,.2,1.66-.17,2.48-.02,1.52-.4,.49-.52-.77-.59l-1.71,.61Z"/><path class="cls-2" d="M211.8,22.74c1.07,.23,2.19,.02,3.3,.01,.54-.31-2.37-.55-3.3-.01Z"/><path class="cls-2" d="M209.52,21.13c.27,.06,.55-.02,.84-.1,3.3,0,6.72-.62,10.03-.58,1.9-.44,.75-.63,1.81-1-1.86-.1-1.54,.42-2.98,.5-1.55-.09-.45-.39-2.04-.26-.12,.47-2.52,.55-3.87,.92-.94-.22-1.93,0-2.89-.1-1.9,.39,1,.23-.9,.62Z"/><path class="cls-2" d="M278.62,32.15c-.81-.13,1.61-.26,2.07-.17,.48-.17,.09-.21-.46-.2-.55,.01-1.27,.04-1.47-.13-1.68,.14-.72,.37-1.37,.55,1.02,.21,2.07,.32,3.11,.45,.58-.08,.38-.22-.11-.32-.48-.09-1.24-.15-1.78-.17Z"/><path class="cls-2" d="M180.37,18.11c1.43-.12,2.85,.02,4.29-.7-1.43,.2-2.86,.17-4.29,.7Z"/><path class="cls-2" d="M179.95,17.6c-.33,.24,.23,.16,.97,.02,.74-.13,1.65-.37,2.04-.56-.99-.27-2.01,.42-3.01,.54Z"/><path class="cls-2" d="M185.95,17.07c1.14-.43,.67-.54,1.32-.87-.72,.06-1.44,.3-2.15,.34-.56,.34-.01,.47,.83,.53Z"/><path class="cls-2" d="M283.46,32.3c-.26,.5,3.12,.43,4.25,.79,1.25-.46-2.85-.72-4.25-.79Z"/><path class="cls-2" d="M169.98,15.08c1.33-.23,3.3-.97,5.7-2.03-1.9,.65-3.81,1.08-5.7,2.03Z"/><path class="cls-2" d="M298.38,34.42c.1-.27-1.79-.89-3.04-.76-.1,.25,1.75,.98,3.04,.76Z"/><path class="cls-2" d="M211.86,15.72c1.36,.17,6.22-.48,3.9-.78-1.35,.59-2.59,.43-3.9,.78Z"/><path class="cls-2" d="M240.57,19.38c.22,.46,4.09,.32,5.88-.17-.84-.1-.41-.22,.08-.34-1.89-.37-4.05,.71-5.96,.51Z"/><path class="cls-2" d="M193.47,12.85c1.71,.15,3.45-.13,5.2-.63-1.75,.37-3.43,.04-5.2,.63Z"/><path class="cls-2" d="M305.78,35.79c.58,.13,1.16,.27,.72,.31,2.63,.11,4.89,1.08,7.54,1.17-3.68-.64-5.12-1.91-8.26-1.48Z"/><path class="cls-2" d="M230.56,14.69c.92,.32,2.01-.24,3.03-.42-.57,0-1.13,.01-1.67-.08-.08,.15-.56,.31-1.35,.5Z"/><path class="cls-2" d="M314.81,37.41c-1.05,.11,1.17,.32,1.41,.66-.53-.66,1.36,.29,2.89,.26-.7-.63-1.96-.1-2.67-.74-.58,0-1.15-.02-1.63-.19Z"/><path class="cls-2" d="M319.39,38.66c2.43,.73,2.68,1.47,4.83,1.6-2.27-.84,.91-.36-1.17-1.15-.31,.54-2.32-.45-3.67-.45Z"/><path class="cls-2" d="M232.52,10.92c1.99-.04,4.83-.35,3.12-.73-1.67,.31-2.32,.29-3.12,.73Z"/><path class="cls-2" d="M332.46,42.13c1.33,.79,3.02,.95,4.49,1.5,.67,.4-.35,.31-1.44,.19,2.55,.96,2.79,.24,6.28,1.56-.57-.58-.71-.46-1.99-1.23-1.81-.3,.53,.29,.9,.77-1.39-.44-2.68-1.11-4.04-1.57-1.35-.49-2.73-.95-4.21-1.21Z"/><path class="cls-2" d="M296.73,22.7c1.72,.48,3.91,.41,4.72,.22-1.8-.29-3.86-.57-4.72-.22Z"/><path class="cls-2" d="M271.1,14.8c1.56,.08,.48,.13,1.63,.4,.79-.17,.38-.38,.58-.57-.69-.11-1.47,.09-2.21,.18Z"/><path class="cls-2" d="M309.9,19.62c1.79,.41,3.59,.8,5.56,.79-1.8-.18-4.97-1.12-5.56-.79Z"/><path class="cls-2" d="M286.3,6.63c.97,.31,2.03,.3,3.01,.51,1.58-.04-2.28-.54-.71-.57-.72-.15-1.52,.01-2.31,.06Z"/><path class="cls-2" d="M264.55,1.19c.83,.11,1.68,.11,2.56,.05,.44-.03,.88-.08,1.32-.15,.47-.05,.94-.11,1.42-.19h-3.17c-1.05,.04-1.93,.1-2.13,.28Z"/><path class="cls-2" d="M351.22,33.39c.46,.28,.93,.57,1.39,.84,.19-.06,.38-.15,.88,.15,.43,.04,.06-.26-.52-.52-.58-.26-1.37-.51-1.75-.48Z"/><path class="cls-2" d="M297.59,5.84c1.82,.53,3.87,.47,5.6,1.19,.87-.08-.14-.42-.21-.63,1.29,.01,3.08,.57,3.2,.18-.98-.27-2.17-.03-3.08-.51-1.01,.47-3.34-.34-5.51-.24Z"/><path class="cls-2" d="M359.84,34.66c.66,.26,1.2,.69,1.91,.87,1.4,.31,.35-.51-.82-.98-1.86-.57,.77,.68-1.09,.11Z"/><path class="cls-2" d="M323.29,9.9c-.03,.43,5.63,1.91,6.1,1.47-2.06-.43-4.2-.69-6.1-1.47Z"/><path class="cls-2" d="M320.69,6.27c1.37,.49,2.86,.84,4.5,.85-1.51-.26-2.9-.82-4.5-.85Z"/><path class="cls-2" d="M344.17,16.89c1.4,.45,2.67,1.16,4.23,1.39-1.34-.58-2.68-1.19-4.23-1.39Z"/><path class="cls-2" d="M358.89,22.73c.87,.51,1.96,.72,2.82,1.23,.51,.06-.51-.51-.98-.85l-1.84-.38Z"/><path class="cls-2" d="M365.21,25.01c.91,.7,2.2,.89,3.18,1.47,.62,.05-2.07-1.47-3.18-1.47Z"/><path class="cls-2" d="M412.09,64.68c.4,.22,.28,.06,.13-.11,.52,.27,.84,.72,1.24,1.11,.89,.52,.89-.1,2.05,.96,1.42,.65-1.78-1.42-.42-.72-1.11-.75-4.56-2.85-3-1.23Z"/><path class="cls-2" d="M416.33,67.02c.33,.44,.81,.76,1.34,1.05,.4,.47,.81,.94,.39,.74,.48,.5,1.21,.79,1.85,1.16-.44-.53-.88-1.07-1.31-1.59-.92-.33-1.39-1.01-2.27-1.36Z"/><path class="cls-2" d="M422.62,74.11c.78,.78,1.76,1.38,2.75,2.02-.6-.93-1.67-1.47-2.75-2.02Z"/><path class="cls-2" d="M386.53,36.24c1.62,.96,1.87,.41,1.25-.11-1.98-1.04-.78,.07-1.25,.11Z"/><path class="cls-2" d="M384.08,33.8c1.96,1.18,4.73,2.91,6.06,2.89-2.08-.9-3.69-2.34-6.06-2.89Z"/><path class="cls-2" d="M389.32,37.6c.68,.31,1.32,.67,1.97,1.01,.65,.35,1.29,.72,2.01,1-.61-.4-1.24-.79-1.87-1.15-.64-.35-1.28-.71-1.87-1.12-.41-.09,.36,.44-.24,.26Z"/><path class="cls-2" d="M394.82,42.37c3.43,1.82,4.03,2.51,2.44,.55-1.77-.75-1.76-.44-2.44-.55Z"/><path class="cls-2" d="M432.31,82.26c.42,.54,.89,1.04,1.41,1.5,.5,.49,1.06,.94,1.67,1.36-.47-.52-.93-1.03-1.39-1.54-.5-.49-1.04-.94-1.69-1.32Z"/><path class="cls-2" d="M446.24,97.17c1.55,1.32,2.85,2.64,3.99,3.84,1.1,1.23,2.09,2.28,3.13,2.98-1.01-1.17-2.02-2.33-3.07-3.48-1.1-1.1-2.22-2.19-3.39-3.24-.19-.37,.48,.18,.88,.44-1.69-2.25-2.34-1.95-1.54-.53Z"/><path class="cls-2" d="M417.54,56.15c1.7,1.52,1.16,.03,2.12,1.01,.53-.3-2.57-1.58-2.12-1.01Z"/><path class="cls-2" d="M419.52,57.27c.98,.86,2.07,1.59,3.4,2.17-.97-.87-2.13-1.57-3.4-2.17Z"/><path class="cls-2" d="M459.44,111.47c.24,.49,.48,.99,.71,1.48,.62,.58,.49,.18,1.16,.82-.66-.75-1.06-1.62-1.87-2.29Z"/><path class="cls-2" d="M440.37,77.3c.63,.34,0-.55,1.45,.58-1.38-1.52-3.77-2.75-1.45-.58Z"/><path class="cls-2" d="M486.59,120.36c.69,2.04,2.15,3.25,2.57,3.29-.72-1.14-1.67-2.21-2.57-3.29Z"/><path class="cls-2" d="M507.69,160.24c.46,1.82,1.12,1.47,1.71,3.67,.04,.91-.91-1.53-1.33-1.98,.26,.85,.61,1.6,.97,2.22,.33,.63,.69,1.12,1,1.43-.39-1.1-.47-1.56-.3-1.72,1.13,1.74,1.17,3.66,2.35,5.4-.37-.98-.84-1.95-.87-2.97-1.3-2.32-2.09-4.48-2.41-5.81-.33,.03,.18,1.97-1.13-.25Z"/><path class="cls-2" d="M514.12,176.01c.07,.58,.14,1.15,.21,1.73,.85,1.59,.71,1.67,1.36,2.5-.21-1.57-1.74-3.85-.67-2.57-.17-1.15-.78-1.54-.91-1.67Z"/><path class="cls-2" d="M515.79,182.42c.22-.06,.93,1.38,1.53,2.49-.05-.43-.1-.86-.16-1.29-.26-.42-.42-.85-.51-1.28-.34,0-.08,.46-.85-1.24,.12,.82-.17,.39-.02,1.31Z"/><path class="cls-2" d="M517.6,189.24c.73,1.42,.84,2.86,1.53,4.3-.31-1.87-1.23-3.73-1.28-5.61-.64-.77-.02,.67-.25,1.31Z"/><path class="cls-2" d="M520.37,196.11c-.55-1.25-.87-1.69-.73-.42,.18,.57,.36,1.14,.65,1.72,.13-.05,.15-.52,.08-1.3Z"/><path class="cls-2" d="M520.46,197.4c.08,.83-.19,.39-.08,1.3,.36,.83,.48,.38,.61,1.28,.27,.45,.1-.72,.09-1.29l-.62-1.29Z"/><path class="cls-2" d="M521.87,199.99c-.21-.26,0,3.16,.64,4.36-.17-1.45-.19-2.91-.64-4.36Z"/><path class="cls-2" d="M525.99,225.37c.51,1.05,.49,2.08,.83,3.14,.2-1-.3-2.09-.13-3.08-.38-.89-.77-1.82-.7-.06Z"/><path class="cls-2" d="M527.9,239.12c-.13,1.16-.04,2.35,.24,3.56l.22-1.72c-.15-.61-.31-1.22-.47-1.84Z"/><path class="cls-2" d="M528.38,247.56c0,1.76,.15,3.53,.15,5.3,.11,.74,.2,.07,.28-.61,.06-.67,.11-1.35,.26-.61,.02-1.1-.2-.91-.35-1.39-.16-.91,.08-1.75-.35-2.7Z"/><path class="cls-2" d="M529.65,253.53c-.13,1.01,.27,2.14,.14,3.15,.32-.16,.34-1.35,.37-3.04-.18-.83-.32,1.1-.51-.11Z"/><path class="cls-2" d="M528.54,263.49c.13,.7,.2,1.38,.24,2.05,.02,.67-.03,1.34-.08,2-.1,1.32-.27,2.62-.32,3.94,.46,1.87,.69-3.14,1.16-4.17-.49-.52-.47,.15-.64-2.85,.34-1.83,.61-1.51,.54-3.86-.49-.48-.57,.56-.89,2.89Z"/><path class="cls-2" d="M529.65,264.21c-.04,1.9,.01,3.89-.21,5.77,.12-.05,.3-1.05,.4-2.26,.05-.6,.07-1.26,.06-1.88-.03-.62-.12-1.19-.25-1.64Z"/><path class="cls-2" d="M529.83,273.7c-.19,.7-.13,1.46-.33,2.15,.21,1.31,.54-.98,.74,.67,.09-.87,.04-1.8-.07-2.73-.34,1.81-.13,1.87-.34-.09Z"/><path class="cls-2" d="M529.09,286.66c-.27,.67-.29,1.43-.44,2.14,.22-.3,.32,.88,.62-.25-.29-.24-.05-.64-.18-1.9Z"/><path class="cls-2" d="M470.91,426.22c-.78,.75-1.47,1.6-2.13,2.51-.33,.45-.64,.93-.96,1.4-.32,.47-.65,.94-.97,1.42,1.38-1.31,2.69-2.63,3.93-4.09,.27-.7,.04-.77,.13-1.25Z"/><path class="cls-2" d="M442.17,458.63c-.95,.36-1.56,1.39-2.41,1.94-.4,.66,1.98-1.09,2.41-1.94Z"/><path class="cls-2" d="M405.72,485.16c-.14-.34-3.3,1.74-4.54,2.75,1.6-.72,3.04-1.82,4.54-2.75Z"/><path class="cls-2" d="M386.76,495.62c-1.81,1.18-5.28,2.93-5.81,3.57,1.87-.92,5.33-2.77,5.81-3.57Z"/><path class="cls-2" d="M346.69,512.68c-1.55,.34-3.13,.91-4.69,1.26-.11,.28,3.43-.39,4.69-1.26Z"/><path class="cls-2" d="M301.82,521.08c-.16,.22-1.24,.54-1.4,.76,.87-.04,1.76-.23,2.66-.48-.83-.05-.36-.24-1.26-.28Z"/><path class="cls-2" d="M170,472.1c-1.37-.7-2.81-1.38-4.3-1.97-1.48-.61-2.96-1.22-4.28-2.03,.49,.61,1.95,1.35,3.62,2.07,1.69,.7,3.54,1.48,4.95,1.92Z"/><path class="cls-2" d="M160.91,468.12c-.98-.81-2.21-1.32-3.56-1.73,1.07,.73,2.28,1.27,3.56,1.73Z"/><path class="cls-2" d="M219.16,519.77c-.41,.07-.46,.2,.25,.48-1.47-.27-2.38-.44-3.35-.62-.96-.21-1.98-.41-3.65-.7,1.39,.43,2.8,.86,4.25,1.14,1.45,.27,2.93,.5,4.43,.67-1.56-.49-.97-.59-1.92-.96Z"/><path class="cls-2" d="M205.94,515.55c-.06,.25-2.14,.01-.8,.6,1.74,.41,2.02-.03,.8-.6Z"/><path class="cls-2" d="M209.04,517.95c.52-.02-.59-.43-1.09-.7-1.21-.11-1.75-.07-1.97,.05,.93,.38,2.18,.15,3.06,.64Z"/><path class="cls-2" d="M112.66,475.14c-1.26-1.06-2.05-1.28-2.82-1.61,.66,.58,1.41,1.11,2.25,1.52-.27-.3,.3,0,.57,.09Z"/><path class="cls-2" d="M106.5,471.76c-.8-.83-2.45-1.44-2.52-1.34,1.5,1.2,2.3,1.56,2.52,1.34Z"/><path class="cls-2" d="M100.65,466.43c-2.75-2.66-5.89-5.01-8.89-7.5,.29,.83-1.4-.88-2.77-1.82,.99,.92,1.9,1.75,2.81,2.51,.94,.72,1.85,1.42,2.77,2.13,1.85,1.4,3.77,2.82,6.07,4.68Z"/><path class="cls-2" d="M90.33,457.79c-.99-1.25-2.5-2.17-3.77-3.24,1.04,1.22,2.26,2.35,3.77,3.24Z"/><path class="cls-2" d="M85.27,453.32c-1.28-1.25-2.46-2.53-3.82-3.75,0,.19,.5,.93,1.27,1.69,.77,.76,1.74,1.59,2.55,2.07Z"/><path class="cls-2" d="M82.28,449.58c-1.52-1.61-1.98-2.35-2.77-3.4-1.15-.69-1.79-1.32-1.37-.21,.73-.06,2.69,2.52,4.14,3.6Z"/><path class="cls-2" d="M76.21,450.1c.72,.2-1.67-2.02-2.5-2.62,.33,.66,.9,1.18,1.34,1.77,.71,.56,.6,.1,1.16,.85Z"/><path class="cls-2" d="M64.93,432.85c.35,.32,.26,.13,.15-.08-.15-.25-.27-.51-.4-.76-1.12-.77-3.68-4.57-5.82-6.44,.28,.5,.27,.62,.03,.46,1.51,1.55,2.77,3.21,4.35,4.71,1.01,1.96-.91-.67-1.19-.41,.39,.94,1.79,1.41,2.18,2.36,.52,.5-.7-1.84,.68,.16Z"/><path class="cls-2" d="M70.44,444.27c-1.86-2.18-3.8-4.32-6.04-6.31,1.88,2.18,3.94,4.26,6.04,6.31Z"/><path class="cls-2" d="M57.41,423.85c-.94-1.13-.37-1.39-1.64-3.09,.14,.78-.27,.55-1.69-1.2,.88,1.52,2.06,2.95,3.32,4.28Z"/><path class="cls-2" d="M54.98,421.56c-1.03-1.78-2.55-3.37-3.98-5,1.67,2.58,2.25,2.89,3.98,5Z"/><path class="cls-2" d="M43.57,404.85c-.43-.41,.36,1.09-.18,.52,1.6,2.54,4.04,4.77,5.19,7.46,.85-.4-3.73-5.4-5.02-7.98Z"/><path class="cls-2" d="M48.76,413.69c-1.5-2.71-3.71-5.19-5.71-7.75,1.43,2.75,3.72,5.22,5.71,7.75Z"/><path class="cls-2" d="M43.52,408.09c.58,.07-1.82-2.75-2.61-3.76,.59,1.35,1.95,2.43,2.61,3.76Z"/><path class="cls-2" d="M43.05,406.4c-.63-1.09-1.23-2.2-1.92-3.28-.66-1.1-1.37-2.18-2.32-3.2,.84,1.05,1.43,2.17,2.04,3.29,.65,1.09,1.31,2.18,2.2,3.19Z"/><path class="cls-2" d="M36.95,394.99c.94,2.43-1.01-.2-1.71-1.79-.28-1.15,.96,.79,1.71,1.79-.19-1.15-1.38-2.03-1.62-3.16-1.14-.49-4.7-5.6-6.29-7.97-.53,.29,3.28,5.34,3.74,5.44-.35,.42,1.47,3.07,.44,2.16,2.14,2.84,4.24,5.06,7.38,8.85-.8-1.9-2.17-3.61-3.64-5.32Z"/><path class="cls-2" d="M30.31,384.47c.36,.39-.06-.74-.19-1.3-.6-1.06-1.52-2.04-1.95-3.16-.21-.12-.05,.58-.61-.32,.28,.84,.67,1.66,1.01,2.48,.79,1.04,.86,.03,1.75,2.3Z"/><path class="cls-2" d="M28.57,379.48c-.61-1.24-2.13-4.06-1.53-1.94,.9,1.52,.89,1,1.53,1.94Z"/><path class="cls-2" d="M26.43,377.21c.75,.67-.81-1.86-.77-2.53-.5-.31-.3,.17-1.26-1.56,.35,1.42,1.43,2.72,2.03,4.09Z"/><path class="cls-2" d="M114.01,62.79c-.59,.21,.83-1.16-.6-.29-.47,.58-1.06,.94-1.52,1.53,2.67-2.06-.36,2.23,1.83-.91,1.41-1.11,2.83-2.22,4.25-3.33,.71-.55,1.42-1.09,2.15-1.61,.73-.51,1.52-.93,2.3-1.34,1.18-1.26,1.69-1.46,2.42-1.57,.24-.3-.53,.1-.13-.32,1.22-1.06,.54,.02,1.86-.77,.15-.57,.84-1.06,2.39-2.84-1.35,.65-2.44,1.94-3.63,2.98-1.21,.25-2.12,1.27-3.11,2.04-.64,.21-1.32,.54-2.01,.92-.67,.4-1.32,.9-1.94,1.37-1.24,.94-2.32,1.84-2.97,2.13-1.29,1.49,1.96-.75,2.55-1.27-1.13,1.4-2.73,1.83-3.84,3.27Z"/><path class="cls-2" d="M145.11,46.4c1-.37,1.95-.88,2.94-1.32,.99-.44,1.98-.93,2.96-1.42-1.4,.42-.51-.15-1.6,.14-.26,.5-.94,.86-1.77,1.22-.81,.39-1.74,.83-2.54,1.38Z"/><path class="cls-2" d="M154.38,42.29c1.09-.47,1.44-.85,.3-.59,.48-.3,1.01-.35,1.53-.48,1.41-.73,.94-.77,1.83-1.3,2.31-.83,4.63-1.51,6.9-2.69,2.96,0,5.77-1.64,8.66-2.27-.12,.75-4.37,1.58-4.63,2.29,2.15-.79,3.9-1.23,5.69-1.74,1.82-.42,3.69-.89,6.1-1.83,1.21,.1,1.99,.19,3.98-.78,1.09,.18,.53,.66-1.19,1.23,.65,.07,1.32-.35,1.99-.35-.79-.13,1.79-.93,.01-.87,2.8-.1,5.62-1.31,8.44-1.75-3.69,1.09-6.02,1.93-6.84,2.13,.6,.2,2.07-.16,3.7-.65,1.64-.49,3.44-1.13,4.74-1.38,.18,.42,2.98-.14,4.44-.42,.35-.17-.51-.15,.02-.35,.42-.12,.82-.13,1.23-.28,.13,.12-.54,.37,.37,.37,1.68-.28,3.39-.57,5.1-.85,1.71-.29,3.42-.6,5.13-.84,.25,.05-.02,.17,.38,.21-3.65,.6-4.86,1.04-8.23,1.63,2.82,.06,5.7-.61,8.52-.73,.99-.43-1.24,.04-1.59-.16,.7-.3,1.37-.33,2.07-.5,1.86,.04,.47,.61,2.37,.45,.8-.21,.4-.32,1.28-.53-.4-.05-.82,.1-1.23,.19-.93-.12-.64-.83-1.6-.2-2.36-.19,.53-.75,2.13-.78-2.08,.43,2.32,.11,.73,.62,1.07,.07,2.25-.63,3.33-.61,1.17,.23-1.8,.7-2.95,.84-1.04,.31,.95,.37-.09,.69,1.47,.1,3.03-.43,4.49-.28-.12,.39-1.67,.4-2.55,.89,1.43,.37,3.02-.42,4.45-.11,.78-.37-1.82,0-2.37-.32,1.22-.09,2.45-.26,3.66-.22-1.78-.2-.78-.48-.26-.92,.41-.09,.82-.05,1.24-.16,1.81,.07-1.07,.4,.74,.47,1.88-.66,11.45-.78,10.6-.03,1.15-.35,2.54-.23,2.57-.59,2.13,.19,.64,.49,1.91,.71-2.05-.02-4.17,.39-6.2,.28,1.18,.34,5.96,.23,8.6,0,.77,.15-.67,.36,.72,.49,1.79-.34,3.67-.62,6.21-.19,.31-.44,2.05-.4,1.01-.86,1.16,.35,2.82-.22,4.92,.11-1.09-.62,3.46-.25,3.47-.67,2.96,.27-1.85,.5,.24,.77,1.33-.34,2.58-.36,3.79-.24,.12,.2-.36,.4-.55,.59-2.16,.1-4.25,.07-6.22,.07-1.96,.01-3.8,.07-5.45,.31,.89,.31,1.97-.21,2.84,.22,2.79-.54,5.46-.35,8.12-.2,2.65,.18,5.34,.31,8.02,.05,2.46,.52,6.07,.63,9.35,.73,3.27,.26,6.2,.53,7.28,1.07,1.58,.2,3.18,.34,4.75,.58,1.04-.51,3.63,.32,5.67,.44,.1,.16-.6,.2,.25,.46,.29-.41,3.14-.03,2.81,.3,1.14,.03,2.25,.11,3.34,.29,1.09,.2,2.16,.44,3.22,.68,2.13,.49,4.25,1,6.48,1.26-1.15-.46,1.1-.2,1.79-.17,.63,.33-1.79,.04-1.43,.32,3.48,1.15,7.32,1.61,10.98,2.42-.19,.3,.81,.66,1.96,1.04,1.14,.38,2.45,.66,2.94,.59,.61,.5,1.48,.54,2.13,.98,1.17-.12,3.6,.62,6.27,1.62,2.66,1.05,5.61,2.22,7.98,2.62,1.43,.95,3.81,1.78,6.13,2.56,2.31,.78,4.54,1.52,5.55,2.44-1.05-.53-2.24-.87-3.37-1.28,.57,.74,4.65,1.61,7.32,3.16,1.1,.6,4.9,2.94,5.37,2.58,.84,.18,1.29,.86,1.94,1.3,2.69,1.03,4.96,2.56,7.68,3.56,.67,.46,1.6,.95,2.6,1.6,1.01,.64,2.17,1.34,3.37,2.06,1.21,.72,2.48,1.46,3.71,2.2l1.83,1.08c.59,.37,1.15,.75,1.68,1.11,13.99,9.17,27,19.77,38.78,31.57,11.77,11.81,22.37,24.77,31.35,38.78,18.04,27.96,30.12,59.65,35.07,92.51,4.84,32.87,2.74,66.84-6.41,98.78-4.56,15.98-10.83,31.48-18.72,46.14-7.95,14.62-17.47,28.4-28.34,41.03-.88,.7-.37-.18-.1-.79,3.54-3.45,6.49-7.53,9.51-11.53,.78-.99,1.46-2.04,2.17-3.07,.71-1.03,1.43-2.06,2.14-3.08,1.43-2.05,2.96-4.01,4.35-6.05,.13-.85,.45-1.25,1.2-2.61,.34-.22-.31,.6-.47,1.18,1.01-1.17,1.41-2.96,2.59-3.94,.48-1.14-.47-.11-.06-1.14,.76-.74,1.47-1.71,2.19-2.79,.72-1.08,1.45-2.28,2.18-3.54,.72-1.26,1.43-2.58,2.11-3.9,.64-1.34,1.21-2.71,1.75-4,1.07-1.93,2.17-3.84,3.22-5.81,.97-2,1.83-4.07,2.57-6.23,.29-.42,.4-.45,.38-.21,1.31-3.27,2.86-7.14,4.3-10.74,1.52-3.57,2.59-6.98,3.03-9.26,.56-.92,.32,.04,.81-1.3,.03-.44-.33,.24-.56,.56,.42-1.02,.81-2.02,1.18-3.01l.53-1.48c.14-.5,.29-1,.43-1.49,.55-1.98,1.05-3.92,1.56-5.87,.26-.97,.51-1.95,.77-2.94,.27-.98,.45-2,.71-3.01,.48-2.03,1.03-4.11,1.72-6.29-.19-.5,.17-1.77,.48-3.22,.32-1.45,.75-3.04,.94-4.11,.62-3.58,.63-6.25,1.23-7.77,.05-3.25,.44-6.35,1.28-9.32,.07-1.79-.45,.85-.4-.95-.16-.42,.47-2.39,.46-1.44-.27-2.23,.29-4.19,.21-6.36,.18-.77,.26-.37,.33,.1-.12-1.43,0-2.81,.05-4.18,.03-1.37,.09-2.75,.01-4.15,.64-.17,.07-.2,.42-2.27-.22-.06-.39-1.05-.35-2.06,.14-.01,.3-.41,.47-1.08-.15-.49-.19-1.09-.19-1.77-.03-.68-.02-1.45-.01-2.28,.02-1.65,.02-3.55-.36-5.47,.13-.67,.27-.67,.42-.32-.09-1.16-.09-2.7-.21-4.37-.13-1.67-.28-3.48-.41-5.18-.28-3.41-.51-6.39-.84-6.96-.38-2.34-.09-4.62-.99-7.02,.06-1.07,.09-2.59-.09-3.94-.18-1.35-.44-2.55-.74-3.03-2.12-14.57-5.97-27.63-10.94-42.05-.38-.68-.34-.25-.62-.68-.19-1.17-.43-1.55-.83-3.36-.44-.94-.87-1.93-1.29-2.96-.21-.52-.42-1.04-.64-1.58-.24-.53-.47-1.06-.72-1.6-.96-2.16-1.93-4.45-2.92-6.78-.25-.58-.5-1.17-.75-1.75-.26-.58-.56-1.15-.84-1.72-.58-1.14-1.16-2.28-1.73-3.41-.59-1.13-1.18-2.24-1.79-3.33-.31-.54-.62-1.08-.92-1.61-.34-.51-.68-1.02-1.02-1.52-.23-.69,.11-.39-.16-1.15-.96-1.58-1.92-3.16-2.88-4.74l-1.39-2.38c-.49-.78-.96-1.56-1.4-2.35-.14,.23-.35,1.27-2.4-1.58-.24-1.02,.42-.35-.6-2.23-.06-.6,1.67,1.52,1.7,2.24,1.15,1.06-.86-2.47-1.09-2.06-.51-1.11-1.11-2.19-1.77-3.25-.69-1.03-1.45-2.03-2.19-3.04-1.5-2.02-2.98-4.03-4.1-6.22-1.21-.6-3.08-3.32-4-5.34-.6-.6-.47-.24-.31,.15-2.39-3.72-5.59-6.93-8.19-10.51-.37-.22-.2,.2-.63-.09-.95-1.29-2.17-2.54-3.4-3.86-1.24-1.31-2.53-2.66-3.77-3.97-1.22-1.34-2.49-2.55-3.6-3.7-1.11-1.15-2.06-2.23-2.77-3.19-.34-.21-.01,.22,.06,.42l-1.88-1.88c-.62-.63-1.27-1.24-1.94-1.82l-4-3.52c-1.34-1.16-2.62-2.4-3.97-3.54-1.35-1.14-2.68-2.3-3.96-3.49-1.06-.72-2.24-1.61-3.5-2.59-1.27-.97-2.68-1.95-4.08-3.01-2.81-2.09-5.69-4.38-8.37-6.07-1.4-.68-.01,.46-1.42-.22-.47-.26-.94-.52-1.32-.87,.96,.07,.01-.68-1.38-1.62-.7-.46-1.51-.99-2.25-1.47-.76-.45-1.45-.87-1.89-1.2-.94-.02,1.48,.97,1.8,1.45,.36,.63-1.72-.71-2.28-.95-.77-1.09-2.42-2.17-4.25-3.28l-2.81-1.67c-.95-.52-1.87-1.04-2.66-1.58-1.47-.55,.02,.46-1.45-.09-.51-.19-.85-.57-1.4-.73-.28-.31,.77,.08,1.32,.22-.9-.72-1.97-1.27-3.21-1.59-.15,.11,.96,.89-.33,.4,.59,.5,1.48,.64,1.98,1.24-1.39-.34-2.25-1.32-3.71-1.57-.83-1.04-2.2-1.36-3.34-1.99-.07-.47,2.32,1.12,3.36,1.33-1.92-1.65,1.1,.33,2.03,.59-3.01-2.29-3.13-1.5-6.19-3.41-.71-.14,.79,.74,.4,.75-.41-.1-.69-.36-1.02-.57-.68-.07-.39,.16,.51,.61-2.09-.44-3.77-1.42-5.84-1.87-1-.67-1.63-.94-1.13-1.08-1.59-.64-3.59-.69-5.01-1.57-.75-.49,1.33,.17,1.76,.16-1.08-.69-2.33-.73-2.07-.38-1.25-.23-2-1.19-3.24-1.41-.32-.32,1.03,.05-.45-.73-.99-.1-2.96-.54-4.62-1.08-1.67-.54-3.04-1.15-2.91-1.44-1.65-.51-3.1-1.38-4.99-1.45-1.74-1.22-5.18-1.4-5.82-2.25-1.23,.17-2.92-.48-4.76-1.18-1.86-.61-3.88-1.3-5.69-1.33-1.55-.49-3.16-.87-4.77-1.26-1.61-.36-3.24-.63-4.8-1.09-.99-.43,2,.35,.14-.32-2.77-.1-5.32-.72-7.89-1.25-2.58-.47-5.15-.98-7.85-1.12,.6,.25,1.29,.25,1.88,.52,.29,.15-.59,.15-.12,.33-2.33-.37-4.54-1.19-6.92-1.36-.48,.17,.61,.22,1.1,.35,.62,.36-1.76-.22-2.48,.13-.06-.23-.43-.35-1.47-.47-1.16,.39-2.7,.17-4.39-.1-.84-.13-1.72-.29-2.6-.36-.88-.04-1.76-.03-2.61,.11-1.37-.27-1.31-.5,.17-.67-.97-.34-2.12-.07-3.13-.28-.45,.12,.6,.3,1.09,.46-1.15,.32-2.19,.19-3.27,.22-.56-.19-.14-.35,.92-.48-1.43,.11-2.82,.07-4.2,0-1.38-.08-2.85-.11-4.29-.1-.43-.17,1.03-.34-.71-.51-.91,.44-3.54,.5-6.29,.5-2.75,.02-5.62,.02-7.05,.23-.85-.41-4.15-.26-1.5-.66-1.75-.07-1.94,.16-2.14,.45-1.73,.07-2.01-.76-4.42-.31,.77,.27,1.64-.05,2.42,.09-.56,.1-.67,.19-.45,.27-2.04,.05-4.06-.02-6.1,0-1.02,.01-2.04,.05-3.07,.13-1.03,.1-2.06,.26-3.1,.49,.18-.48-.16-.4-1.48-.77-1.29,.33,.33,.49,1.09,.71-2.28,.82-4.26-.18-6.52,.52-2.44-.16,1.11-.7-.26-.92-1.52,.41-.76,.68-1.36,1.04-1.58,.44-1.55-.2-2.39,.03-.4-.11,.72-.34,1.27-.53-1.4,0-3.63,.43-2.88,.66-2.77-.35-2.76,.17-4.76-.29-2.67,.62-2.89,.53-5.62,.63-.37,.27,1.07,.33-.87,.78l1.96,.2c1.45-.16,.73-.53,2.39-.28,.84-.21,.47-.28,.04-.35,2.46-.29,10.28-1.04,8.75-.09,.77,.14,1.65-.4,2.46-.54,1.34,.24,.19,.61-1.32,.87,.81,0,4.95-.28,3.28-.58,1.78-.23,3.46,.06,5.31-.54,.71,.16-1.74,.49-1.32,.67,1.36,.27,5.6-.62,4.38,.19,1,.14,1.48-.33,.87-.39,1.5-.07,2.99-.08,4.44,.12,.41-.15-.03-.28,.49-.44,.98-.18,1.89,0,2.87-.17,.05,.14-.18,.29-.49,.44,3.59-.49,7.16-.45,10.68-.36,.9,.23-1.28,.04-1.71,.36,1.18,.23,2.48-.17,3.63,.21-1.68,.21-3.32,.25-4.89-.11-.69,.37-2.09,.35-3.65,.31-1.56-.04-3.27-.06-4.59,.2,1.34,.01,2.65,0,3.92-.02l3.76-.03c2.45-.03,4.78-.07,7.01-.02,1.02-.32-1.25-.09-1.56-.32,2.72-.51,2.56,.72,5.29,.25-.8-.08-1.63-.09-2.43-.18,1.2-.44,2.17,.11,3.37-.33,1.04,.15,.13,.28-.51,.42,.68,.03,1.4-.1,2.04,.09,.4-.29,2.36-.34,4.63-.3,2.23,.07,4.66,.32,6.25,.45,.61,.43-1.73-.25-2.4,.08,2.71,.03,5.41,.08,8.09,.18,2.68,.19,5.34,.52,7.98,.86,.37,.17-.74,.22-1.3,.31,1.55,.56,2.96,.09,2.87-.18,2.36,.1-.14,.49,2.13,.86,1.11,.01,.76-.12,.28-.27-.48-.14-1.09-.29-.47-.34,3.24,.41,6.66,.41,9.69,1.39,.69-.21,1.37-.2,2.15-.12,.78,.08,1.64,.29,2.69,.39,1.34,.43,.32,.41,1.34,.77,2.58,.12,5,.67,7.43,1.14,.45,.41-2.1-.18-2.81-.27,.74,.32,1.86,.54,3.06,.73,1.19,.23,2.47,.38,3.56,.46,1.38,.54-.48,.29,.89,.83-1.17,0-2.72-.6-2.85-.25,2.39,.6,4.4,1.03,6.37,1.39l2.96,.49,3.11,.6c1.99,.85-1.56,.07,0,.8,2.01,.57,4.02,1.12,6.01,1.74l1.48,.47,1.44,.58c.95,.4,1.89,.82,2.81,1.27,2.23,.19,3.36,1.08,4.4,1.54,.82,.1-.34-.48,1.02-.19,2.54,1.54,9.55,3.47,9.53,4.28,.56,.22,1.16,.44,1.76,.71,.59,.28,1.2,.58,1.81,.88,1.23,.6,2.49,1.23,3.72,1.83,1.23,.6,2.43,1.17,3.54,1.66,1.12,.48,2.1,.99,2.97,1.29,1.87,1.53,4.39,2.27,6.15,3.9,.45,.1,.87,.25,1.27,.41,.39,.19,.75,.39,1.12,.6,.74,.41,1.48,.82,2.4,1.04,1.11,.85,.16,.49,.99,1.18,7.86,4.49,15.44,9.6,22.31,15.31,.35-.01,1.29,.43,.01-.51,2.85,2.4,5.63,4.87,8.52,7.23,2.79,2.49,5.59,4.97,8.56,7.33,1.47,1.14,2.25,2.76,3.59,3.98,.33,.16-.18-.49,.29-.2,1.49,1.73,3.5,3.82,6,6.05,.38,.66,.76,1.32,1.14,1.97,1.44,1.38,2.86,2.76,4.2,4.21,1.3,1.49,2.56,2.99,3.81,4.5l1.86,2.27c.62,.75,1.23,1.52,1.79,2.32l3.42,4.75c.22,.15,.16-.07,.47,.19,7.87,11.04,15.45,22.51,21.35,34.73,.36,.42,.86,1.27,1.46,2.39,.57,1.13,1.33,2.48,1.94,4.03,1.29,3.07,2.75,6.57,3.89,9.29,1.14,2.99,2.36,5.25,2.79,7.55l.9,1.39c-.05,1.56,1.8,4.71,2.08,7.33,.63,1.51,1.34,3.18,1.85,5.02,.52,1.83,1.04,3.78,1.56,5.76,1.14,3.93,1.87,8.12,2.99,11.85,0,.5,0,1.01-.01,1.51,.37,1.2,.63,2.41,.86,3.63,.23,1.22,.46,2.44,.69,3.65,.21,1.22,.43,2.43,.64,3.65,.1,.61,.22,1.21,.29,1.82l.21,1.84c.58,4.9,1.16,9.79,1.74,14.76-.14,2.14,.15,4.32,.31,6.51,.11,2.2,.23,4.4,.01,6.52,.27,1.33,.27,2.61,.26,3.89-.03,1.27-.16,2.54,.02,3.88-.15,1.78-.26,3.56-.34,5.35l-.1,2.69-.21,2.69c-.13,1.79-.25,3.59-.35,5.4-.1,1.8-.15,3.61-.38,5.41-2.02,15.72-4.95,31.56-10.26,46.52l-.21,1.63c-.15,.69-.36,.59-.35,.23-1.16,4.09-2.57,7.47-3.86,10.9-1.22,3.47-2.81,6.79-4.43,10.78l-.92,1.18c-.63,1.48,.3,.93-1.1,2.97-.32,.26,.24-.61,.34-1.18-.57,.87-1.28,2.4-1.05,2.54-14.11,27.96-33.47,52.8-56.96,72.99-23.47,20.2-51.22,35.54-81.38,44.51l-1.11,.57c-2.07,.49-4.11,1.16-6.19,1.68-2.08,.53-4.17,1.07-6.26,1.6l-3.13,.8c-1.04,.27-2.11,.42-3.16,.63-2.11,.38-4.22,.71-6.32,.96-1.48,.38-2.74,1.16-3.08,.65-1.17,.39-4.68,1-6.98,.98-.52,.17-1.05,.35-1.58,.53-.74,.08-1.48,.18-2.22,.23-.74,.05-1.49,.1-2.24,.15-1.49,.12-2.99,.28-4.51,.56-1.8,.06-3.59,.24-5.39,.27-1.8,.05-3.61,.09-5.43,.14-1.81,.07-3.62,.14-5.44,.21l-5.45-.05c-1.82-.02-3.63-.04-5.45-.07-1.82-.03-3.62-.23-5.42-.36-3.6-.32-7.2-.58-10.7-1.33-.56,.04-1.1,.08-1.66,.11-2.27-.73-6.5-1.05-7.79-.97-.68-.27-.23-.33-.99-.62-1.19,.43-2.39-.19-3.48-.57-1.91-.1-4-.29-6.2-.75-2.19-.48-4.52-1.05-6.97-1.61-.61-.29-.57-.43-.19-.48-1.13-.36-1.52,.3-3.52-.61-.39-.03,.09,.2,.26,.34-1.2-.19-2.18-.79-3.5-.76-.72-.33-.3-.32,.17-.3-1.38-.16-3.98-.63-6.25-1.3-.87-.7,1.35,.15,2.5,.2l-3.52-.72c-1.15-.31-2.3-.62-3.45-.93-2.3-.63-4.6-1.26-6.91-1.89-.55-.32-1.07-.7-1.6-1.07,.53-.2-1.12-.22,.54,.58-2.21-.41-4.02-1.24-6.93-2.06-.32-.52-3-1.42-1.16-1.02-1.17-.62-1.48,.02-3.6-1.54-1.84-.45,.75,.64,1.22,.94-2.77-.77-5.03-2.24-7.86-2.96-.29-.26,.49-.02,.92,.05-.65-.4-1.55-.5-2.03-1.12,.4,.7-1.37-.39-2.83-.74-2.86-1.85-6.28-3.18-9.51-4.67-3.2-1.55-6.3-3.08-8.63-4.95-1.54-.07-5.04-2.46-7.24-3.67,.42-.38,2.98,1.72,4.35,2.2-.44-.48-1.05-.77-1.47-1.25,1.03,.52,2.1,.99,3.16,1.46,.53,.24,1.06,.48,1.58,.72,.54,.22,1.06,.45,1.57,.7-.7,.62,5.11,2.92,6.22,3.42-1.86-1.31-4.43-2.81-7.07-4.18-2.59-1.43-5.18-2.82-7.21-3.64-.24-.33,.75,.15,1.3,.33-1.06-.61-2.66-1.59-4.06-2.35-1.38-.79-2.54-1.41-2.83-1.14-1.34-.74-.59-.83-1.28-1.44-2.02-1.09-3.62-2.05-5.27-3.03-1.64-1.01-3.27-2.14-5.48-3.44-1.2-.93-2.4-1.85-3.61-2.78-1.21-.92-2.35-1.93-3.56-2.87-1.2-.95-2.42-1.89-3.68-2.8-1.26-.91-2.56-1.79-3.83-2.73-1.25-1.26-2.99-2.8-4.69-4.19-.85-.69-1.69-1.34-2.45-1.9-.73-.59-1.38-1.08-1.9-1.41-1.28-1.45-2.92-3.05-4.76-4.76l-1.42-1.3c-.47-.45-.93-.93-1.41-1.4-.95-.95-1.93-1.93-2.92-2.92-4.06-3.89-7.78-8.5-10.46-12.75,.56,2.6-4.02-4.51-4.52-3.57-1.16-1.77-3.41-3.1-4.01-5.12-1.38-1.68-2.71-3.39-3.99-5.12-1.27-1.73-2.55-3.45-3.59-5.3-1.08-1.82-2.12-3.66-3.1-5.52-.48-.93-.97-1.85-1.42-2.8-.41-.96-.82-1.92-1.2-2.89-.76-.86-1.56-1.82-1.57-1.21-.72-1.16-1.2-2.39-1.49-3.67-.95-.98-1.34-2.09-1.84-3.19-.67-.34-1.08-1.39-1.84-2.02,.11,.79,.81,1.44,.99,2.21-1.39-2.33-3.01-5.49-4.52-8.84-1.34-3.42-2.56-7.04-3.35-10.16-.94-.55-1.78-2.74-2.53-5.26-.72-1.12-1.43-2.34-2.15-3.64-.72-1.3-1.43-2.68-2.02-4.14-1.24-2.91-2.44-6.04-3.58-9.17l-.02-2.4c-.39,.76-1.23-3.47-1.95-5.17,.08-.18,.15-.37,.35,0-.39-1.43-.78-2.83-1.15-4.21-.32-1.39-.63-2.75-.94-4.08-.64-2.65-1.33-5.15-2.13-7.45-.49-3.08-1.06-6.69-1.73-10.14-.37-1.72-.58-3.43-.88-5.01-.29-1.58-.6-3.04-.95-4.29-.06-1.06-.2-2.34-.4-3.73-.21-1.38-.31-2.88-.51-4.35-.36-2.94-.78-5.78-1.02-7.51-.75-5.78-.74-10.96-.92-15.49-.29,1.57-.52,1.53-.87,2.29-.12-1.22,.26-2.25,.23-3.46-.55,2-.32,2.97-.83,4.1,.24,2.17-.78,5.6-.25,6.43,.13,1.02-.4,1.87-.54,2.83l.03,2.03,.1,2.02c.05,1.34,.1,2.68,.15,4.01-.46-2.48-.57-3.59-1.26-7.02,.03,2.54,.21,5.27,.32,8.15,.07,1.44,.14,2.91,.21,4.41,.05,1.5,.28,3.01,.43,4.54,.34,3.05,.69,6.15,1.13,9.2,.57,3.03,1.17,6.02,1.82,8.87,.25,1.12,.26,2.22,.24,3.31,.16,.1,.27-.1,.37-.38,.21,1.24,.58,2.49,.9,3.74-.44,1.86,1.64,6.53,2.65,8.7-.01,1.2-.72-.51-1.18-1.67,.28,1.15,.47,2.91,.14,2.86-.86-1.99-.54-2.42-1.32-3.72-.08,.96,.87,1.96,.61,2.89,.51,1.5,.46,.5,.89,1.65,.16,.55,.33,1.09,.37,1.64-.29,.01-.97-1.73-1.25-1.66-.15-.41-.18-.82-.36-1.23,.38,.45,.24-.19,0-1.14-.24-.95-.56-2.22-.76-3,0-.8,.22-.36,.22-1.23-.91-3.62-1.92-4.25-2.68-7.56,.25-.34,1.11,2.79,1.6,3.81-.25-1.5-1-4.64-1.25-3.78-.22-4.03-1.48-8.14-2.42-12.27,.04,2.48,1.05,5.1,1.6,7.63-.51-.74-.98-2.38-1.32-4.18-.34-1.8-.56-3.76-.39-5.14-.7-3.3-1.34-6.64-1.26-9.82-.45-2.56-.63-5.12-.86-7.67l-.27-3.82c-.09-1.27-.17-2.54-.15-3.86,.01-1.31-.05-2.62,.02-3.93,.06-1.31,.11-2.62,.17-3.93,.1-1.31,.21-2.62,.31-3.94,.1-1.32,.27-2.63,.39-3.96-.4,1.07-.64,2.21-.89,3.34-.21,1.15-.44,2.28-.88,3.35-.11,1.27-.13,2.55-.29,3.79-.07,.62-.16,1.24-.27,1.85-.1,.61-.19,1.22-.32,1.82,.08,.88,.21,.41,.31,.98-.3,.87-.38,1.88-.32,2.8,.05,.94,.14,1.88,.04,2.78-.19,.83-.4-.24-.62-1.42-.3,2.21,.17,4.6,.11,6.87-.17,1.72-.41-.92-.59,.3-.08,1.67,.01,2.98,.24,4.35,.25,1.38,.56,2.83,.78,4.79-.39,1.08-1.08-3.38-1.44-4.93,.04,.72,0,1.42-.11,2.11,.11,.42,.16-.17,.23-.4,.34,1.75,.05,2.71,.58,3.51-.09,.8-.26,.33-.34,1.22,.54,2.92,.56,5.79,.9,8.64,.35,1.06,.59,1.09,.69,.09,.33,.89,.53,1.75,.66,2.61-.24,.89-.54,1.21-.84,1.59-.27-1.73-.74-3.89-1.24-5.75-.52-1.86-.9-3.43-1.31-3.94-.3-2.69-.61-5.39-.86-8.08-.06-.67-.13-1.34-.17-2.01l-.04-2.01c-.02-1.34,0-2.67,.03-4-.65,1.29-.52-2.71-.5-4.88,.35-.58,.03,2.28,.3,3.1,.16-1.12,.05-2.29-.13-3.49-.08-.6-.2-1.19-.27-1.81-.06-.64-.11-1.28-.12-1.91,.28-1.72,.38,1.15,.47-1.27-.64-.66-.18-7.08,.5-10.33-.12-2.88,.7-5.98,1.33-9.73-.46-.54-.87,3.19-1.16,4.4,.05-.82,.22-1.89,.39-3.17l.31-2.03,.45-2.17c.17-.74,.35-1.5,.52-2.27,.2-.75,.42-1.5,.65-2.24,.45-1.49,.96-2.9,1.53-4.13,.24-1.93,1.58-5.82,2.77-9.3,1.18-3.5,2.16-6.63,1.65-7.41,1.27-2.8,.97-4.17,2.06-6.36,.29,.08-.38,1.61,.08,1.48,.45-1.62,.82-3.19,1.18-4.7,.33-1.5,.59-2.89,.79-4.12,.33-2.45,.35-4.19-.12-4.6-.69,1.29-1.72,3.64-1.91,2.82-1.38,2.99-3.11,8.13-4.45,8.61-.14,1.73-1.37,4.48-1.03,5.09,.27-.47,.33-1.09,.46-1.66,.57-.6,.14,.27-.09,1.41-.68,.86-1.14,1.84-1.49,2.93-.62,1.06-.63,.53-.36-.73-.44,.99-.73,2-.54,2.14-1.48,2.17-3.15,8.26-4.23,12.66-2.29,4.5-2.83,10.28-3.36,15.92-.13,.28-.23,.58-.35,.88-.23-1.26-.01-3.19,.23-5.19,.28-1.97,.66-3.96,.73-5.39-.48,.79-.53,1.83-1.06,2.59-.61,4.14-1.14,7.52-1.61,10.88-.45,3.37-.8,6.77-.78,10.98-.11,.28-.17-.06-.29,.42,.07-1.52,.09-3.44,.07-5.19,.05-1.73,.04-3.3-.07-4.14-.43,1.22-.31,2.66-.71,3.9,.41-.51,.34,.85,0,2.6,.26-.39,.48-.29,.66,.25-.11,.72-.2,1.67-.27,2.67-.03,1.01-.02,2.07,.02,3,.08,1.87,.31,3.17,.66,2.59,.29,1.13-.52,.41-.22,2.17-.17,.26-.21-1.8-.53-1.02-.02,1.81,.67,3.47,.9,2.89,.15,1.22-.43,.94-.56,2.1,.3,2.42,.53,.91,.8,2.4,.22,1.19-.24,1.51-.33,.82-.12,1.86,.41,1.47,.54,1.89-.01,.55-.22,2.36-.45,2.58-.38-1.11-.27-2.13-.5-3.23-.12,1.32-.02,2.29,.16,2.91,.2,.62,.47,.89,.63,.81,.31,3.16,.56,6.02,1.41,8.17-.07,2.28-.47-.3-.63,.78-.27-1.81-.47-3.61-.71-5.41-.23,1.68-.57,1.62-1.03-.19-.1,1.13,.18,2.23,.41,2.28-.4,.2,.13,2.13-.33,2.6,.32,1.25,.52,2.44,.68,3.75,.18,1.3,.37,2.7,.59,4.38-.17,.64-.74-2.39-.46-3.13-.11-.47-.14-.26-.17-.03-.09-.3-.19-.61-.27-.91-.12,1.74,.44,3.57,.8,5.38-.24,.87-.7-.13-.94,.75,.48,.95,.32,1.01,.85,2.75,0,1.66-.26,1.13-.33,2.17,.28,1.14,.4,.9,.6,1.38,0,1.25-.36,.13-.27,1.73,.67,2.69,1.09,5.35,1.56,8.02-.17,1.19-.4-1.04-.99-2.26,0,1.32,.77,2.7,.61,4.01,.14-.02,.46,.97,.51,.47,.11,.81,.22,1.63,.38,2.44,.18,.81,.37,1.62,.57,2.43,.4,1.62,.84,3.24,1.28,4.85,.44,1.62,.87,3.24,1.3,4.85,.46,1.6,.94,3.19,1.32,4.78,.24,.44,.12-.43,.11-.87,.51,1.01,1,2.01,1.29,3.03-.43,.93,.26,3.04,1.17,5.38,.98,2.32,2.25,4.82,2.73,6.64-.79-.43-1.49-1.82-2.21-3.51-.35-.85-.73-1.77-1.09-2.7-.33-.94-.68-1.87-1.06-2.73,.13,.96,.51,1.97,.8,2.84,.31,.86,.57,1.57,.37,1.95l1.39,2.54c.22,1.09-.01,.86,0,1.32-.38-1.15-1.16-2.26-1.33-3.43-.16,.69-.58-1.04-1.05-1.25,0,2.05,2.24,3.95,2.2,6.01,1.14,1.85,2.28,3.79,3.37,5.43,.43,1.73-.14,.88-.7,.07,.11,1.46,.99,2.82,1.48,4.24,.11-.34,.49,.02,1.36,1.6-.23-.85-.86-1.66-.82-2.55,.76,1.38,1.31,2.78,1.65,4.2l2.26,3.66c-.21,.79-.76-.67,.48,2.13,.66,2.01-.86-.82-.32,.93,1.07,.37,1.86,2.72,3.7,5.12,.49,1.24,1.02,2.48,1.54,3.72,.57,1.21,1.13,2.43,1.64,3.66,1.73,1.59,3.08,3.86,4.93,6.45,.71,1.88-1.12-1.2-1.09-.63,.94,1.83,2.33,3.47,3.55,4.87,1.24,1.39,2.4,2.51,3.14,3.2-1.92-3.7-3.61-4.36-5.18-6.64-.24-.74-.1-.81,.21-.51-.39-1.09-1.7-2.47-1.33-1.47-1.08-3.58-6.48-9.34-7.62-14.38,1.15,1.26,2.37,3.48,3.7,5.82,1.34,2.33,2.63,4.84,3.61,6.85,2.32,2.16,5.47,7.6,8.45,12.5-1.29-1.18-2.1-1.82-2.84-1.87,.96,.93,1.39,2.01,2.29,2.96,1.27,3.78,3.44,4.44,4.79,8.01,2.66,3.32,1.75,2.28,4.3,5.36-.57-1.05,.4,.07,.15-.52,.82,.93,1.41,1.94,2.39,2.78,.9,1.8-.74-.14-1.52-1.26-.1,.52,3.33,4.46,3.58,4.16,.5,.73,1.1,1.42,1.63,2.14,.55,.7,1.08,1.41,1.4,2.22,1.52,2,3.91,3.6,5.23,5.69,.6,1.54-1.48-.32-2.73-1.13,2.08,2.5,3.48,3.25,6.3,6.6,.76,1.38,.13,.77,1.44,2.18,1.24,.94-1.73-2.15-.49-1.21-.85-1.02-1.68-2.05-2.7-2.99-.04-.74,.12-.37-1.39-2.22-.17-.4,.48,.25,.87,.55,.9,.85,1.13,2,2,2.85,.12-.08,.89,.59,.68,.14,1.1,1.06,1.92,2.26,2.91,3.36,.24,.62-.12,.34-.89-.51-.64-.6-.13-.37-.64-1.12-.37-.03-1.01-.39-.41,.69,5.06,3.92,9.23,8.11,13.88,12.04,.36,.55,.75,1.06,.33,.82,.57,.17,4.28,3.02,6.5,5.03-.05,.55-3.72-2.61-3.69-2.23-.6-1.09-1.57-1.73-.4-.26,1.98,1.59,3.82,3.12,5.53,4.59,.43,.37,.84,.73,1.25,1.09,.42,.34,.84,.68,1.25,1.01,.81,.67,1.59,1.31,2.32,1.94,.67,1.34-3.82-2.78-4.21-2.31,1.32,1.11,1.62,1.6,2.56,1.89,1.03,1.03,2.36,2.17,3.85,3.37,1.5,1.18,3.1,2.48,4.85,3.6,3.46,2.31,6.95,4.59,9.42,6.32,.46,.45-.35,.06-.99-.31-.65-.36-1.17-.63-.26,.23,.97,.15,2.89,1.31,4.56,2.35-1.01-.83-1.99-1.69-3.18-2.38-.15-.21,.14-.11-.15-.42,2.4,1.33,4.09,3.28,6.73,4.39,.58,.59,.1,.42,.75,1.05,1,.46,1.86,1.04,2.71,1.63,.87,.55,1.72,1.12,2.67,1.61,.54,.52,.47,.64,.05,.54,.77,.65,1.93,.93,2.54,1.74,.85,.41,.58,.1,.25-.24,1.72,1.1,3.3,2.12,4.81,3.08,1.55,.9,3.05,1.72,4.54,2.54,1.5,.81,2.99,1.62,4.56,2.47,.79,.41,1.58,.87,2.42,1.28,.85,.4,1.72,.82,2.63,1.26,.48,.44-.01,.38-1.14-.01,1.15,.64,2.47,1.09,3.6,1.77,2.03,.79-.55-.8,1.24-.13,1.61,1.19,3.52,2.08,5.61,2.66,1.03,.66-.07,.34,1.28,1.15,.82,.16-.05-.46,.79-.29,1.97,1.42,1.87,.8,4.92,2.06,1.02,.65-.08,.34,1.29,1.15,.4,.03,.49-.09-.14-.53,.67,.23,1.49,.59,2.35,1.01,.87,.39,1.78,.81,2.59,1.23,1.62,.84,2.87,1.64,2.69,1.88,4.03,1.25-2.86-1.68-.21-1.18,1.4,.57,.87,.6,2.61,1.5,2.08,.45,4.2,1.69,5.32,1.35,1.83,.62,3.94,1.27,4.35,1.95,.78,.12,1.54,.23,2.32,.35-1.32-.93-.7,.14-2.03-.79,1.41-.19,7.33,2.37,11.25,2.92-.74,.14-.48,.51-2.51,.06,2.75,1.28,3.71,.38,6.73,1.16,.85,.53,1.83,.82,2.86,1.03,1.02,.22,2.12,.26,3.16,.41,2.19,1.01,4.74,1.37,7.23,1.81,.48,.49-2.29-.4-3.18-.32,.76,.44-1.38,.2-.79,.6,1.27,.04,2.76,.23,4.22,.41,1.46,.19,2.89,.35,4.05,.25,.65,.28,1.75,.34,3.38,.81,.79,.65-5.22-.86-2.02,.31-1.44,.06-2.57-.53-4.01-.54,1.14,.7,5.02,.64,4.65,1.18,1.51-.03,3.03,.38,5.43,.5-.31,.62,2.49,.52,4.62,1.23,2.83-.13,5.39,.36,8.13,.42,.13-.33-2.01-.87-3.37-.8,.39-.54,4.15,.29,5.77,.52,.34,.31-.89,.42-1.52,.39,.25,.31,1.51,.48,1.51,.89,.16-.37,.81-.31,1.74-.25,.93,.05,2.12,.16,3.36-.01-.87-.52-2.08-.11-2.99-.51,1.48,.08,3.04-.1,4.39,.38,.4,.2-.76,.01-1.4,.14,.6,.22,1.86,.24,1.23,.36,1.58,.39,.71-.5,2.23,.1-.4-.32-1.2-.67,.27-.83,2.11,.17,.07,.29,1.59,.65,1.24-.09,.82-.33,.62-.54,.74,.03,1.43,.23,2.22,.1,2.22,.56-1.49,.61,.11,1.12,.53-.18,1.34-.34,1.08-.59,1.58-.32,2.82,.47,4.45,0,1.6,.25,1.04,.43,2.03,.66,2.01-.28,3.86,0,5.76,.11,1.16-.5,4.4-.48,6.71-.47,1.19,.15-2.33,.38-.12,.51,2.03-.57,4.2-.34,7.13-.46,1.84-.24-.77-.38,.56-.6,2.57-.27,.42,.48,2.51,.52,1.17-.1,1.64-.22,1.82-.46,4.23,.63,8.89-1.03,13.18-1.1,1.51-.76,2.47-.78,5.34-1.49,.79-.11,1.34,.17,3.04-.1,.48,.37-2.61,.55-3.56,.93,1.35-.03,2.53-.2,3.61-.42,1.07-.27,2.04-.61,2.98-.93,2.17-.22,1.18,.15,2.56,.26,1.73-.42,2.75-.35,3.51-.94,.57,.02,1.15,.03,1.72,.05-.39-.16,.57-.49,1.85-.75,1.27-.3,2.87-.57,3.78-.47,1.3-.93,2.54-.93,4.75-1.31,1.72-.7-.2-.06-.86-.16,1.01-.46,2.01-.46,3.01-.75,1.71,.03,.56,.29,0,.7,1.88-.38,3.72-.81,5.58-.8-.42,.23-.85,.37-1.28,.44,.31,.25,4.26-1.02,5.99-1.46-4.52,1-3.8,.23-8.13,1.26,3.91-1.83,4.65-.76,7.69-1.75-.17-.34-3.41,.17-3.02-.32,1.19,0,4.09-.86,5.13-.7,1.13-.69,1.1-1.07,2.07-1.72-.37,.76,1.72,.03,3.41-.22,.86-.04-1.71,1.04,.05,.7,.69-.51,1.08-.65,.79-.97,1.1-.38,2.72-.59,1.67-.73,1.25-.41,2.53-.58,3.81-.8,.11,.24-3.83,1.3-2.89,1.58,1.09-.55,4.15-1.76,6.67-2.81,2.51-1.07,4.55-1.8,3.76-.96,1.25-.45,2.43-1.34,3.71-1.51,.77-.75,2.32-1.34,3.97-2.11,1.65-.78,3.46-1.63,4.84-2.69,.88,.22,3.26-1.23,2.55-.38,1.42-.49,.91-.89,2.71-1.85,3.05-1.44,6.13-2.75,9.04-4.78,.49,.28,3.05-1.15,3.14-1.61,1.27-.2,2.35-1.15,3.58-1.52-.46-.06-1.04,.27-1.73,.19,1.47-.89,3.31-1.54,3.99-1.66,2.06-1.08,.85-1.06,3.84-2.17,.1-.22-.57,0,.26-.64-1.64,1.06-3.33,1.87-5.06,2.56l4.23-2.36c1.42-.77,2.75-1.69,4.12-2.55,.26-.06,.06,.16,.46,.01-1.2,.94-3.68,2.11-3.64,2.67,2.08-.97,3.5-2.69,6.39-3.89,.46-.44,.92-.88,1.44-1.11,.25-.33,.2-.46-.52-.18,1.52-1.31,3.26-2,4.71-3.38,1.38-.76,.55,.03,1.64-.52,1.3-1.17-.96,.16,.93-1.17,1.46-.75-.65,.97,1.24-.35,.95-.84-.28-.15,.2-.66,1.52-.76,3.05-1.68,4.58-2.68,1.48-1.05,2.93-2.21,4.35-3.35,2.82-2.3,5.54-4.47,7.75-6.12,.65-.33-.78,1.11-.44,1.04,1.99-1.47,3.53-3.81,5.77-4.8,.2-.35,.13-.48-.54-.1,.53-.85,1.3-1.24,1.85-2.02,.94-.62,.3,.12-.13,.67,1.13-.64,1.96-1.81,3-2.6,.27-.41-.43,.09-.81,.3,.5-.87,1.29-1.21,1.85-1.96,.18,.02-.27,.64,.53,.08,.37-.5,.75-1.01,1.12-1.51,1-.7,.28,.2,1.55-.75,3.11-2.99,5.92-6.27,8.94-9.29-.35,.24-.7,.48-1.06,.73,.82-.83,1.43-2.02,2.36-2.68,.88-.7,.31,.09-.07,.68,.99-.83,2.15-2.24,3.16-3.56,1.01-1.31,1.88-2.53,2.22-3.04,.69-.25,1.44-.98,2.44-2.51-1.71,1.45-.38-.08,.28-1.09-2.56,3.17-4.01,4.09-6.77,7.54-.21,.48,.32-.26,.68-.51-.38,.98-1.27,1.16-1.69,2.11-1.23,.67-1.18,.78-2.83,1.95,.95-.85,1.94-1.84,2.93-2.89,.95-1.08,1.89-2.22,2.82-3.32,1.84-2.2,3.58-4.23,5-5.42,.13-.28-.11-.14,.14-.54,.96-1.45-.03,.56,1.09-.67,1.23-2.65,3.13-4.36,4.87-6.34,.12-.94,1.35-2.32,2.49-3.74-.11,.77-.85,2.25,.15,1.53-.74,1.1-2.23,2.76-2,3.04,1.02-1.38,1.11-1.36,1.88-1.8,.2-.84,.95-1.73,.96-2.24,.78-1.3,1.86-2.24,2.49-3.72,.74-.5,1.63-1.61,2.54-2.93,.45-.66,.91-1.38,1.36-2.1,.44-.73,.83-1.49,1.21-2.18,.43,.28,1.26-1.07,2.25-3.27,.29-.18,.39-.07,.05,.7,.89-1.15,1.64-2.45,2.38-3.76,.37-.65,.74-1.31,1.13-1.95,.37-.65,.73-1.29,1.14-1.89,.27-.8-.83,.75-.37-.37,.27-.93,1.21-1.21,1.34-2.29,.5-.57,.62-.5,.54-.07,.78-1.18-.41-.23,.93-2.1,.7-.85,1.04-1.1,.83-.4,.47-1.05,1.3-2.37,2.02-3.57,.68-1.22,1.22-2.32,1.2-2.86,.71-.99,.33,.11,1.22-1.22-.42-.34,1.01-2.11,.96-2.02,.69-1.41,1.02-2.44,1.42-3.46,.4-1.02,.9-2.02,1.81-3.44-.17-.83,1.57-4.03,2.34-5.86,.18-.05,0,.69,.53-.13,.05-.78,.42-1.59,.83-2.5,.21-.45,.42-.94,.62-1.45,.18-.52,.32-1.09,.42-1.69-.05-.84-1.22,1.87-1.44,2.69-.39,.69,.52-2.06,.78-2.64-.03-.99-.82,1.8-1.19,2.33-.31,.33,.08-.84,.2-1.47,.22-.68,1.4-2.04,1.66-4.08,.6-.95,1.17-1.83,1-.87,.86-1.33,1.09-3.1,2.04-4.36-.04-.5-.48-.2,.23-1.94,.18,1.23-.67,4.56-1.61,7.84,.6-1.33,1.31-2.59,1.95-3.91,.1-.7-.13-1.05,.62-2.21,.04-.49-.27-.09-.19-.66,.53-1.96,.57-.96,1.43-2.67-.75-.02,1.73-7.47,2.71-8.03-.4-.2,.66-1.77,.6-3.18-.65,1.26-.83,2.87-1.56,4.11-.28-.2,1.27-3.61,1.66-5.05-.11-.23-.13-.76,.05-1.97,.12-1.11,.53-.87,.3,.18,.56-1.43,.06-1.77-.4-.74-.18,1.06-.66,1.93-.65,3.1-.27,.33-.44,.27-.7,.58,.36-2.11,1.41-3.82,1.75-5.93,.43-.3,0,3.37,.91,.52-.57,.31-.04-.7,.25-2.35,.53-.03-.22,1.54,.96-1.45-.25-.31-.31-.52,.09-2.42,.77-.45,.56-3.31,1.56-5-1.07,5.26-1.87,9.48-3.9,15.09,1.15-1.86-.91,4.03-.09,3.47,.4-.61,.53-1.37,.9-1.98-.27-1.05,1.15-4.47,1.67-5.05-.81,1.02,.18-2.2-.71-.9,.36-1.13,.44-2.41,1-3.42,.5-.75-1.03,3.42,.25,.65,.09,1.05-.69,1.6-.6,2.65,.37-.75,.36-.23,.76-1.07,.21-2.74,.82-3.27,1.36-3.74-.63-.35,1.12-5.68,1.61-8.45-.08-1.04-.24,.06-.7,1.1,.08-1.56,.52-3.48,.93-5.22,.36-1.75,.63-3.34,.52-4.17,.52-1.71,.33,.4,.64-.18-.2,1.17-.4,2.36-.6,3.53-.22,1.17-.53,2.32-.86,3.44,.02,.89,.23,.99,.62,.31-.02-.66,.19-1.2,.42-1.73-.06-.25-.11-.5-.31-.16,.57-1.11,.95-3.38,1.24-5.56,.28-2.19,.42-4.3,.33-5.16,.61,1.37,1.02-3.04,1.75-3.98-.04-.8,.05-1.54,.22-2.25-.33-.97-.36,1.97-.69,2.52-.45,.65-.32-1.99-.51-4.4,.73-1.89,.22,2.02,.57,2.09,.62-2.11,.2-1.75,.3-4.07-.29,.69-.42,.14-.63,.22,.02-1.08,.53-1.96,.34-3.12-.59,1.78-.16,3.96-1.02,5.63,.02,1.17,.03,2.33-.02,3.48-.07,1.14-.24,2.26-.47,3.34-.34,.71,.24-2.04,.33-2.69-.14-.92-.72,2.18-.33,1.75-.43,.02-.51-.76-.39-2.04,.08-1.29,.31-3.09,.63-5.12,.32-2.03,.67-4.28,1-6.46,.08-.55,.15-1.09,.22-1.62,.04-.54,.08-1.06,.12-1.57,.07-1.03,.11-2,.12-2.88-.17,.62-.34,1.24-.41,.76-.33,.94,.08,2.16-.35,3.06-.26,.17-.27-3.39,.22-4.47-.47,.81-.68-3.06-.12-4.56,.13-.51,.14,2.71-.13,3.57,.54-.48,.41,1.07,.8,1.64,.35-1.88,.43-1.26,.8-3.37-.1,3.21-.52,4.99-.32,9.03,.62-1.77,.42,.27,.94-2.42-.29,0-.7,1.58-.75-1.17,.24-2.96,.67-5.86,.76-8.87-.26,1.08-.46,1.45-.57,.73-.19,1.3-.31,2.62-.42,3.95-.23-.15-.23-1.89-.27-2.82,.19-.87,.26-.41,.33,.11,.44-2.49-.42-.77-.03-3.64,.27-.11,.42,1.04,.71,.68-.45-3.26,.33-9.15-.2-12.61,.22-.6,.38,.57,.63-1.17-.18-1.68,0-3.25-.48-4.99-.15,1.14-.31,1.55-.48,1.66-.23-2.12-.11-4.15-.44-6.28,.32-.97,1.01,1.63,.57,3.65,.24-.96,.52,.75,.76-.26-.64-1.91-.42-3.91-.9-7.71-.31,.97,.2,2.11-.02,3.09-.45-.14-.06-2.62-.55-4.07,.09-.82,.26-.33,.34-1.25-1-1.09-.32-5.17-.93-7.59,.55-1.2,.69,3.43,1.1,3.68,.05-.43-.1-.9-.18-1.34,.04-1.95,.42,1.15,.46-.8-.37-1.6-.25-3.97-.64-3.17-.45-1.54-.1-2.92-.44-4.42,.19-.34,.61,.48,.55,1.81,.56-.3-1.15-5.72-.38-6.15l-.83-2.71c-.01,1.1-.19,.83-.28,1.28-.41-1.71-.09-1.74,.03-2.61-.48-1.37-.71-2.7-.87-4.29-.15-1.58-.23-3.43-.48-5.8-.48-1.29-.71-3.38-1.13-5.61-.42-2.23-.88-4.65-1.51-6.61-.42-.05,.31,1.84,.41,3.04-.59-.61-1.45-4.91-1.89-6.95,.26-.76,.61,2.73,.92,2.17-.11-1.37-.22-2.44-.06-2.6-.39-1.04-1.48-2.88-2.19-4.29-.66-1.94,.04-1.54-.21-3.02-.23-1.04-1.64-4.23-.97-3.87-.66-1.65-1.31-3.25-1.85-4.88-.55-1.62-1.02-3.24-1.51-4.87-.38-1.98,1.03,1.5,.64-.49-1.06-2.41-.28,.79-1.2-1.2-.89-1.85-.21-2.14-.46-3.45-.6-1.09-.77-2.23-1.28-3.33,.35,.28,.44-.13,.06-1.75-.15-.04-.57-.46-.74-1.23-.62-.94,.47,1.3,.29,1.71-.74-1.07-.88-2.21-1.28-3.33-.56-.84,.3,1.63,.54,2.12-.14,.18-.51-.23-.77-.34-.63-1.59-.34-1.7-1.13-2.47-.31-1.89,.47,.38,.76,.33-.43-1.77-.79-1.5-1.23-2.01-.93-1.9-1.59-3.83-2.49-5.72,.2-.18,1.04,1.09,1.32,1.1-.67-1.84-.76-3.71-2.01-5.82-.21-1.74-.06-2.21-1.84-5.84,.36,1.1,1.03,2.48,.69,2.52-.85-1.15-1.32-2.38-1.89-3.59-.57-.75-.05,.66-.91-.68,.81,1.53,1.82,4.59,2.4,4.8-.08,.28-.07,.75-.8-.28-.73-1.36,0-1.08-1.48-2.77-.72-1.82,.83,.91,.12-.91-.35,.45-1.42-1.73-2.06-3.54-.81-.9-.13,.64,.46,1.67-.5-.63-.74-1.31-1.26-1.93-.03-.51-1.02-2.92-.41-2.14-.29-.73-2.32-3.2-1.42-2.76-.57-1.33-1.84-1.73-2.69-3.75-.09-.45,.65,.57,1.08,1.05-1.04-1.96-2.6-5.68-3.52-6.22-.42-.53-1.95-3.26-.61-1.62-2.15-3.3-5.39-7.43-7.03-8.16-.62-.84-1.12-1.72-1.86-2.53-.74-1.56,1.43,1.07,.32-1.03,1.52,1.6,1.31,1.69,2.03,2.92,1.39,1.65,1.88,1.92,1.31,.46-.31-.33-.05,.23,0,.47-.85-1.11-1.85-2.1-2.33-3.31-.37-.94,.82,1.12,1.35,1.35-.34-1.11-1.6-1.88-1.88-3-1.24-.32-3.49-4.62-4.99-7.39-1.17-1.02-2.44-1.71-.62,.72-.02-.38,.22-.2,.56,.25,.33,.46,.76,1.19,1.15,1.87,.13,.44-.58-.55-.85-1.06,.07,.77,2.97,4.42,4.1,6.32-2.35-2.81-4.88-6.58-7.84-10.26-1.45-1.86-2.92-3.76-4.37-5.63-1.48-1.84-3.05-3.54-4.52-5.15-.19-.4,.49,.23,.89,.52-.66-.96-1.37-1.9-2.47-2.64,.01-.82-1.1-1.41-2.01-2.88-.68-1.11,2.26,2.04,.83,.06-1.53-.96-1.92-1.76-4.02-4.24-1.3-.76-2.69-1.83-3.82-3.83-.68-.44-1.22-.97-1.76-1.5-.56-.5-1.12-1.01-1.83-1.42-1.2-1.98-3.53-4.34-6.22-6.95-2.75-2.55-5.99-5.21-8.82-8.11-.15,.37-1.93-.79-2.2-1.64-1.58-1.01-1.35-.57-1.54-.48-.49-.35-.99-.7-1.39-1.11,.37-.03,.15-.53,1.68,.37-1.76-1.83-1.07,.05-2.94-2.14-1.03-.05-1.47-.68-3.49-2.25-.55-.7,.45-.15,1.53,.46-.93-.59-1.92-1.32-2.95-2.06-1.05-.72-2.15-1.47-3.22-2.19-2.14-1.44-4.22-2.75-5.85-3.29-1.85-1.12-1.66-1.29-2.81-2.15-.84-.86,1.34,.27,.21-.78-1.53-.73-1.41-.38-1.27-.02-1.77-1.27-1.49-.76-3.26-1.73-.78-1.05,2.04,.1,3.78,1.25-.68-.6-.22-.45,.13-.12-1.1-1.01-2.46-2.21-4.13-3.39-1.68-1.17-3.61-2.4-6.02-3.22-1.25-1,2.12,.72,.5-.49-1.7-.45-5.16-3.11-7.77-4.56-.85-.33-.54,.01-1.47-.37-.04-.18,.7,.07-.09-.53-1.48-.75-.56-.16-1.84-.58-.26-.26,.68,.1,.24-.26-1.48-1.18-3.44-1.86-3.43-1.41-.32-.29-.7-.52-1.14-.69-.32-.3,.55,.03,1.03,.16-1.86-.97-4.14-2.38-6.34-3.56-2.23-1.12-4.35-2.1-5.79-2.42-3.44-2.1-2.84-1.14-4.81-2.41-2.52-.37-3.79-.95-6.84-1.8,.84,.58,1.87,.9,2.77,1.4-1.44-.26-2.41-1.14-3.8-1.45-.36-.27,.54-.03,1.03,.05-1.31-.55-2.58-1.17-3.84-1.78l-1.91-.91c-.65-.29-1.31-.53-1.97-.78-.36-.25,.55-.05,1.06,0-1.26-.48-2.47-1.03-3.89-1.27-.93,.17-3.35-.77-6.11-1.87-1.37-.58-2.87-1.06-4.29-1.51-1.42-.44-2.78-.8-3.92-.98,2.49,.82,5,1.56,7.47,2.43,2.45,.92,4.9,1.84,7.32,2.8-1.83-.41-3.42-1.16-5.11-1.78-.86,.12,2.17,.85,2.83,1.26-.94-.15-1.88-.3-2.83-.45-.73-.4-.22-.37-1.03-.81-.92-.26-1.62-.41-2.22-.51l-1.64-.17c-1.04-.12-2.14-.32-4.23-1.11-.23-.38,3.02,.52,4.19,.62-.03-.22-.98-.7-.11-.65-.93-.15-3.6,.16-6.88-1.23-.57-.34-.07-.37,1.13-.2-.82-.4-1.76-.48-2.81-.59-1.05-.11-2.2-.25-3.52-.66-1.71-.65,1.44-.12-.54-.83-.48-.06-.3,.04-.08,.15-.02,.23-2.36-.53-2.01,.04-.74-.25-3.63-1.06-3.18-.5-.98-.31-2.11-.36-3.02-.81,.03-.31,3.22,.13,2.62-.33-1.13-.17-2.74-.41-4.14-.55-1.16-.44,0-.38-1.53-.85-2.71-.39-5.32-1.01-7.99-1.51-.84-.36,1.74,.22,2.41,.02-3.33-.86-4.5,.03-7.66-1.12-.93-.05-2,.27-2.83-.05-1.13,.09,1.37,.22,1.65,.57l-1.44,.06c-2.55-.68-5.36-.72-7.9-1.42,.03-.43,3.73,.01,4.94,.59,1.27-.04,2.52-.02,3.71,.16-1.46-.17-4.75-1.25-7.17-.98-1.73-.49,.67-.42-1.06-.91-.48,.09-1.17,.11-2,.08-.84,0-1.81-.02-2.86-.08-2.1-.11-4.48-.32-6.59-.48-.95-.39,1.42,.02,1.91-.18-1.92-.16-.96-.37-2.54-.73-1.25,.03-2.45-.09-3.66-.14-1.21-.03-2.42-.05-3.68,.06-3.2-.64-3.31,0-8.32,.4,1.98,.01,3.98-.12,5.89,.11,.97-.08,.57-.21,.1-.34,1.24-.08,2.45-.04,3.61,.13,1.02,.18-1.47,.17-1.86,.1,.55,.31,4.79,1.15,7.06,.88,1.32,.62,6.33,1,9.35,1.05,.98,.35,.38,.45,2.21,.31,4.41,1.18,8.96,1.84,13.65,2.35-.06,.58,4.79,1.02,3.25,1.3,.78-.03,2.25,.27,4.09,.51-.67-.29-1.45-.35-2.1-.65,.92,.09,1.8,.25,2.72,.34,.29,.2,.22,.33-.62,.32,1.05,.48,2.31,.51,3.37,.98,.89,.06,.45-.15,1.04-.14,.91,.47,1.83,.9,3.02,.81,.67,.29,1.29,.68,2.07,.76,1.13,.45-2.39-.22-.24,.47,.99-.1,3.35,.37,5.63,.97,2.29,.55,4.45,1.47,5.16,1.89,1.46,.63,.64-.09,1.89,.2,.45,.08,.85,.25,1.33,.3,1.52,.65,.32,.51,1.83,1.16,1.53,.19,3.65,.7,5.81,1.58,2.18,.83,4.46,1.79,6.44,2.56,1.17,.07,2.09,.49,3.2,.67-1.92-1.07-1.83-.32-3.85-1.26,1.17,.12,.84,.09-.08-.66,3.02,.47,5.29,1.55,5.8,2.26-1.27-.21-2.01-1.16-3.36-1.23,1.88,.67,2.5,1.4,.83,1.1,2.67,.94,5.12,2.29,7.72,3.33-1.02,.09-.55,.08,1.34,1.09-1.44-.46-2.74-1.13-3.93-1.96-.83-.15,.88,.72-.3,.43,1.59,.51,2.95,1.33,4.48,1.91,1.15,.22-.29-.6-1.23-1.23,2.4,.86,4.6,1.95,7.13,2.74,.45-.04-.24-.61,.43-.55,2.5,1.01-.23,.38,1.64,1.41,.33,.33-.72-.25-1.37-.35,1.01,.79,2.9,1.72,4.84,2.68,1.94,.96,3.93,1.95,5.06,2.95,3.51,1.22,6.42,3.15,9.54,4.82,.78,.91-2.4-.85-2.94-.59,1.08,.76,1.92,1.03,2.48,1.24,.55,.23,.84,.38,.85,.85,.88,.19,1.08-.02,.59-.64,2.82,1.41,5.44,3.05,7.96,4.78,1.3-.05,3.7,1.81,5.5,3.08,.29,.32-.54-.08-.99-.24-.69-.34-1.14-.91-1.67-1.4-.56-.26-.71-.26-.56-.06l-.87-.36c1.21,1.03,2.93,1.57,3.89,2.84-1.03-.4-1.74-1.12-2.65-1.63-.78,.04,2.02,1.58,2.71,2.18-2.92-1.06,2.76,1.96,4.48,3.44,.04-.27,.89-.35,2.41,.7-1.3-.4,.61,.97,.36,1.41,.45,.18,.82,.43,1.14,.72-.32-.81,2.05,.97,2.81,.99,.91,.77,3.61,3.24,5.98,4.5,1.06,1.14-.26,.37-.55,.44,1.77,1.69,3.54,3.15,4.4,4.17l1.65,.89-1.09-1.31c-1.66-.71-2.47-2.07-3.72-3.09,1.9,1.05,3.08,2.68,4.95,3.75-.43,.32,.41,1.14,1.66,2.19,1.28,1.02,2.82,2.46,3.96,3.76-.89-.93-2.08-1.66-2.89-2.66-.43,.19,2.4,2.47,3.41,3.35,.48,.12,.55-.12,1.23,.18,1.89,1.5,.54,1.07,1.14,1.81,.59,.29,.96,.72,1.32,1.16,.47-.27,2.09,1.06,3.23,2.97-.49-1.26,.63,.35,2.48,1.46,1.4,2.02-2.6-1.95-.73,.47,1.06,.16,2.12,1.42,3.26,1.98,1.21,1.73-2.14-1.52-1.86-.86,1.53,1.49,1.86,1.8,3.21,2.53,1.12,1.59-1.22-.91-1.08-.34,2.27,2.98,3.6,3.51,6.4,6.13,.53,.86,.01,.59,.97,1.9,.83,.6,1.48,1.29,2.11,1.99,.64,.69,1.25,1.41,1.96,2.09,.17,.54-.62-.04-.62,.32-.53-.37-.8-.86-1.31-1.23-.85-1.16,.35-.12,.46-.25-1.88-1.88-2.7-2.31-4.72-4.67,1.18,1.46,2.2,2.99,3.66,4.28,.8,1.21-1.65-1.72-.91-.47-1.24-1.57-2.71-3.02-4.02-4.55-.36-.21,.19,.53-.3,.18-1.29-1.12-.08-.56-1.12-1.82-.64-.45-1.12-.99-1.59-1.53-1.02,.48-2.85-3.11-5.06-4.33-.94-1.23,.7-.04-.82-1.5-1.19-.68-.27,.68-1.5-.03,.62,.95,1.71,1.58,2.35,2.52,.41,.24-.11-.42-.34-.8,1.3,.85,2.14,1.99,3.13,3.04-.07,.36-1.11-.88-1.69-.94-1.3-1.18-2.43-2.47-3.89-3.54-.95-1.23,.69-.05-.81-1.5-1.53-.59-3.92-2.54-6.43-4.84-1.26-1.14-2.54-2.39-3.81-3.53-1.29-1.11-2.54-2.16-3.64-3.02-.05-.33,1.7,.78,1.23,.12l2.96,2.53c.96,.87,1.89,1.78,2.84,2.66,1.89,1.78,3.81,3.54,5.8,5.24,.85,.35-1.21-1.48-1.96-1.73-.76-1.06-2.17-2.19-.48-1.22-1.15-.92-2.3-1.84-3.41-2.79-.1-.39,1.29,.54-.09-.98-1.44-.59-1.6-1.04-3.21-2.4-1.14-1.17,.61-.02-.53-1.19-2.29-2.02-5.58-4.23-7.25-5.15,.13-.08-.51-.77,0-.55,1.15,.62-.23,.37,1.37,1.09-1.75-1.9-4.18-3.17-6.05-4.94-.99-.47-1.97-.94-2.95-1.4-.54-.67-.41-.86-1.61-2-1.87-.64,.51,1.06,.77,1.61-.77-.37-1.31-.94-1.86-1.49-.57-.54-1.17-1.04-2.03-1.31-1.47-1.37,1.97,.48,.05-1.19-.41-.17,.03,.22,.17,.41-3.04-1.63-5.65-3.67-8.4-5.58-.9-.32-.8-.04-.31,.4,.49,.45,1.34,1.12,2.02,1.52-.74-.38-1.58-.66-2.39-.95-.82-.28-1.59-.61-2.14-1.15-.45-.64,1.63,.84,1.44,.36-.48-.72-1.66-.73-2.14-1.46-1.08-.25-.16,.42-2.32-.67-.77-.65-.65-.78,.37-.38-1.85-1.49-2.32-.57-4.02-1.97-.4-.53,2.41,.82,.92-.35-1.57-.69-1.27-.28-2.31-.66-.54-.26-1.08-.49-1.55-.82,.11-.26,2.26,.88,2.02,.31-1.98-1.03-1.36-.99-3.09-2.31-1.73-1.08-3.63-2.04-5.43-2.9-.9-.42-1.77-.83-2.59-1.21-.83-.34-1.61-.66-2.29-.97,2.65,.55-6.21-3.27-8.83-4.75,.44-.3,3.69,1.78,5.48,2.07-1.51-.93-3.11-1.54-4.58-2.11-1.47-.57-2.85-.99-3.87-1.72-.48-.07,.27,.35,.61,.62-1.34-.1-2.2-.86-3.48-1.04-1.29-.98-3.07-1.71-4.71-2.36-1.63-.67-3.19-1.09-3.96-1.72-4.03-.99-6.08-2.21-9.47-2.74,1.52,.52,.43,.26,1.48,.86-1.21-.3-2.2-.53-2.97-.78-.78-.25-1.35-.51-1.76-.77-.83-.51-1.04-1.01-1.02-1.37-1.24,0-.52,.56-1.38,.66-1.79-.63-3.65-1.12-5.38-1.85-.54-.39,2.31,.47,3.18,.49,.17,.15-1.4-.39-3.18-1-1.78-.6-3.8-1.12-4.44-1.22-.98-.32-.76-.74,.16-.31,.13-.39-1.72-.42-2.59-.62-.49,0,.32,.31,.7,.52-1.77-.41-3.91-1.18-6.24-1.93-2.34-.72-4.89-1.28-7.4-1.53-.67-.27-1.34-.54-2.01-.81-.95,0-1.7-.44-2.69-.33-1.71-.82-3.64-1-5.55-1.28-1.92-.26-3.83-.5-5.59-1.17-1.03-.03-2.05-.1-3.05-.22-1.01-.08-2-.17-2.98-.31-1.97-.26-3.9-.65-5.82-1.08,2.52-.06,2.71-.23,4.68-.28-2.23-.18-4.51-.22-6.5-.3-.99-.04-1.91-.09-2.7-.18-.8-.05-1.48-.14-1.99-.29-.07,.72-3.34,.94-2.34,1.79-2.2-.17-4.36-.47-6.55-.65,.04,.76,8.08,.55,7.66,1.45-.94,.17-1.69-.32-2.56-.43-.47,.52-3.62-.09-5.46,.32,.35-.27,.64-.54-1.56-.9,.05,.21-.29,.32-.87,.42-.57,.1-1.38,.19-2.33,.32-1.26-.33-3.61-.76-3.78-.27-1.5-.23-.62-.52-2.44-.52-.8-.32,.2-.22,1.38-.42-1.84-.07-3.66-.19-5.58,.09-1.42-.27,1.68-.59,.19-.85-.79,.14-1.52,.83-3.1,.46-.29,.2-1.41,.41,.3,.59-2.46,.22-2.06,.14-3.14,.63-.92,.3-1.62-.44-2.54-.14-2.03,.35,1.01,.33,1.6,.49-1.15,.09-2.25-.15-3.43,.04-.83-.21,1.87-.48,.15-.68-.59,.38-3.09,.25-2.14-.02-2.7,.76-7.06,.54-10.75,.11-.16,.21-1.25,.46-1.42,.67,1.82,.07,.99,.13,2.5,.37,1.15-.19,.26-.3-.35-.41,3.62-.28,7.11,.15,10.66,.24-3.08,.4-5.96-.19-9.03,.2,1.56,.05,3.12,.1,4.65,.28-1.76,.26-3.4-.14-5.23,.51-.84-.2,.78-.49-.73-.65-.75,.2-1.46,.15-2.22,.37-1.1-.08-.15-.28,.51-.45-.83-.12-1.75,.22-2.56-.03-.51,.52-3.29,.37-3.59,.88-2.31-.16,.14-.57-1.58-.76-1.79,.34-5.77,.4-6.04,.12-2.74,.54-2.66,0-5.24,.44-.98-.23,1.36-.21,1.8-.49-2.42-.19-4.96,.48-7.41,.5-.98,.38-1.18,.49-1.41,.93-1.46,.09-4.26,.57-4.44,1.03-1.94,.07,1.12-.48-.82-.41-1.31,.1-2.66,.62-3.95,.52-1.68,.48-.57,.52-2.23,.77-1.42-.07,2.08-.89,1.84-1.14,1.05-.42,2,.26,3.06-.39-.39-.34-3.87,.25-5.71,.79-1.59,.07-.49-.27-1.72-.25l-4.32,1.15c-1.51,.37-2.82,.62-3.19,.5-.77,.06-.82,.31-.46,.35-1.62,.39-3.23,.81-4.83,.71-1.04,.59-2.06,.61-3.09,1.2,.95-.38,1.9-.46,2.85-.57,.95-.11,1.9-.18,2.86-.63,1.29,.18-.55,.71,2.6,.35-2.53,1.09-3.28,.61-3.95,.7-1.74,.77,1.74-.04,1.73,.35,.88-.45,1.76-.63,2.62-.52,1.15-.56,2.18-.54,2.22-.87-1.45,.09-2.66,.56-2.17,0,1.03-.36,2.03-.04,3.06-.52,.76,.19-1.21,.69,1.28,.35-.44-.21,.04-.3,.84-.38,.79-.06,1.89-.07,2.66-.21,.27,.06-.21,.64-1.34,.64,1.22-.2,4-.07,6.09-.6,1.59,.49,4.32-.42,5.56,.15,2.24-.42,1.99-.76,4.4-1.02,.44,.09-.76,.37-1.35,.58,1.81,.33,3.73-.22,5.59-.22,.69-.3,.28-.35-.82-.25,1.26-.59,3.08-.29,3.09-.72,.13,.07,.51,.5,1.69,.2,.83,.25-.19,.24-1.36,.54,2.26,.12,4.63-.49,6.83-.06,.46-.49,1.25-.45,2.18-.4,.93,.07,2,.15,3.05-.28-.51,.56,1.8,.11,2.05,.48-1.59,.15-3.18,.35-4.68,0-1.51,.81-5.5,.58-8.17,.4-.19,.27-.38,.54-2.26,.96,2.12-.58,5.19-.54,8.23-.58,3.05-.05,6.06-.03,8.19-.94,1.36-.03,2.72-.12,4.08-.17,1.36-.05,2.7-.03,4.03,.07,.7-.25,.3-.32-.79-.32l2.67-.59c.86-.08,1.71-.03,2.54,.09-1.34,.32-2.57,.06-3.94,.55,1.23,.19,2.53,.12,3.77,.31l1.78-.4c.71-.04,1.42-.03,2.12,.03,.83,.19-.24,.39-1.41,.63,3.16,.08,1.85-.86,5.23-.59,.37-.15,.4-.29-.33-.42,.89-.16,1.76-.25,2.6-.2-1.83,.78,4.75,.86,6.95,1.22-2.53,.18-8.7-.22-8.58,.41-2.56,.04-5.05-.24-7.64-.03-.35,.5,3.08,.03,4.19,.24-2.06,.25-2.04,.08-3.53,.59-.91-.71-2.48,0-3.24-.75-2.2,.38-1.26,.66-.61,.95-1.66,.21-1.62-.33-2.46-.43-1.03,.24-2.01,.16-3.07,.53-1.54-.09-.44-.32-1.62-.42-1.97,.53-1.11,.08-2.99,.08-2.04,.38-4.01,.27-6.06,.67-1.73-.06,.29-.42-.33-.57,2.12-.27,5.92-.07,5.65-.74-1.14,0-2.34,.4-3.5,.53-.09-.11-.21-.22-.8-.3-1.92,.47-2.33,.58-3.89,.37-2.5,.52,.2,.61-2.3,1.13-.44,.09-.86,.07-1.31,.19-1.52-.1-.06-.45,.1-.69-1.09-.32-2.29,.16-3.4-.06-.9,.19-.5,.27-.04,.34-2.6,.43-5.1-.03-7.78,1.03-4.67,.18-8.24,1.22-12.03,1.18-1.47,.66-2.89,.53-4.33,.91-.52,.52,.08,.49-1.33,1.04,2.01-.01,2.03-.14,3.4,.04,.96-.57,.17-.34,1.76-.96,1.88-.41,3.71-.39,5.62-1.13,1.08,.15-1.89,.92-2.23,1.29,1.02,.07,4.26-.73,3.82-.16,2.84-.3,5.78-1.19,8.56-.87-1.74,.47-3.44,.51-5.18,.94,1.13-.06,2.29-.29,3.39-.05,.5-.42,.89-.46,1.7-.2,3.36-1.05,6.52-.35,9.82-.85,1.69,.03-.25,.36-.92,.59,1.08,.22,2.27-.19,3.38-.11-.7-.25-.69-.56-2.84-.7-.07-.14,.17-.3,.49-.47,1.01-.12,1.99-.11,2.98-.16,.46,.13-1.03,.42,.77,.45,1.1-.23,.89-.35,1.35-.52,.57-.1,1.12,.05,1.71-.1,.99,.31-.94,.25-.95,.56-1.31,.28-2.51-.12-3.85,.37,13.16-.61,26.34-.94,39.31-.35,1.01-.7,5.16-.32,5.87,.19,.95-.37-.31-.74,.69-1.1,2.46-.18,2.12,.54,4.65,.36,.4,.13-.48,.21-.95,.31,2.13,.17,4.39-.15,6.48,.14-2.8,.86,5,.58,8.22,1.67,1.77-.02-.09-.35-.7-.57,3.45,.33,1.89,.29,5.02,.77,.57-.09-1.04-.37-.28-.45,.87,.02,1.7,.17,2.51,.39,.19-.15,.7-.28,1.88-.35,1.98-.06,1.17,.59,3.41,.44,.59,.25,.11,.36-1.03,.37,5.02,.94,4.12,1.07,10.53,1.7,.28,.19,.22,.31-.59,.35,4.13,.21,7.85,1.45,11.91,1.87,.14,.14,.29,.29-.15,.32,1.54,.27,3.17,.46,4.86,.5,1.26,.48,1.18,.63-.23,.47,2.54,.51,4.95,1.28,7.4,1.97,2.44,.7,4.87,1.51,7.58,1.8,1.46,.64-.54,.25,.92,.89-.9-.09-1.57-.59-2.54-.57,1.96,.48,4.19,1.02,6.53,1.58,2.32,.66,4.71,1.5,7,2.49,.81-.11-3.03-1.34-.42-.87,1.93,1.05,3.49,1.9,5.35,2.41,1.5-.03-1.66-.63-2.68-1.21,1.69,.2,3.06,.87,4.56,1.41-.12,.26-.65,.35-1.29,.39,4.05,1.52,7.34,2.11,11.7,4.33,.26,.24-.64-.05-.2,.28,.54,.43,1.24,.66,1.77,1.1,1.61,.39,.88,.04,2.64,.66,.02,.2,.31,.52,1.22,1.13,1.02,.38,2,.81,2.97,1.26,.97,.44,1.91,.92,2.85,1.42,.74,.64-1.35-.39-1.63-.65,1.12,1.15,4.68,2.34,6.06,2.49,1.81,1.2-.08,.47-1.21,.13,1.32,.69,2.76,1.25,4.17,1.83,.71,.29,1.41,.59,2.09,.92,.66,.36,1.3,.74,1.89,1.17,.76,.6-1.49-.28-1.59-.74,.2,.54,1.52,1.47,3.31,2.53-.58-.31-2.28-1.2-.97-.17-.8-.36-1.33-1.01-2.31-1.16,.99,.95,2.44,1.42,3.53,2.27-.32-.45,.97-.19,2.13,.76,.5,.11-.56-.41-.92-.83,1.58,.75,3.07,1.57,4.89,2.09,1.57,1.22-1.11-.16,.22,.93,1.24,.48,3.06,1.67,3.34,1.38,1.47,1.04,3.04,2.14,4.5,3.17,.73,.51,1.44,.99,2.1,1.42,.64,.45,1.23,.87,1.76,1.19,.18-.12-.06-.53,1.49,.34,.75,1.15-1.41-.11,1.41,2.07-1.18-.43-1.91-1.26-2.88-1.88-.2,.4,3.24,2.26,4.4,3.3,.24,0-.21-.51,.68-.03,.97,.92,1.82,1.38,2.34,2.33,1.43,.85,.72,.06,2.14,.93,1.03,.75,1.34,2.04,3.57,2.97,.8,.86-.16,.31,.91,1.39-.96-.48-1.65-1.15-2.38-1.8,1.07,1.13,2.4,2.33,3.88,3.58,.37,.31,.75,.62,1.14,.95l1.14,1.02c.78,.68,1.58,1.37,2.39,2.07,1.63,1.39,3.3,2.81,4.92,4.19,1.6,1.42,3.06,2.9,4.41,4.27-.14,.19-.86-.2-1.79-.79,1.01,1.13,2.36,2.06,3.25,3.28,.98,.67,.83,.25,.81-.04,.67,.65,1.44,1.45,2.26,2.35,.79,.93,1.64,1.93,2.52,2.92,1.76,1.97,3.65,3.87,5.43,4.95,.51,1.11-1.26-.91-1.4-.62,1.86,1.97,2.2,2.48,3.54,4.16,.39,.24,.2-.2,.66,.12,1.93,2.05,4.13,6.03,5.62,6.83,.43,.88-.05,.58,.74,1.93,.87,.96,2.01,1.79,2.39,2.97,1,.57,2.06,2.03,3.19,3.63,1.07,1.65,2.18,3.47,3.42,4.7-.35-.2,.57,1.41,0,.88,1.37,1.67,2.92,3.25,3.49,5.23,.66,.63,1.19,1.31,1.67,2.02-.05,.14-.09,.28,.12,.83,.46,.23,1.68,2.17,.9,1.43,.93,1.02,2.05,2.92,3.12,4.98,.08-.58,.68,.37,1.45,1.71,.1,.4-.42-.29-.74-.63,.9,1.87,2.1,3.65,3,5.52-1.21-1.3-.99-1.93-1.86-2.44,.53,1.12,1.02,2.26,1.77,3.32,.07,.42-.63-.53-1.04-.98-.75-1.34-.96-2.84-2.17-4.04,1.01,1.57-.04,1.11,1.02,2.68-.11,.58-.93-.8-1.73-2.03-.17-.71,.53,.12,.79,.18-.57-1.49-1.26-1.84-1.85-2.42-.74-1.18-1.62-2.31-2.06-3.59,1.56,2.66,1.77,1.75,2.84,3.77,.7,.57-1.21-2.35,.5-.16,1.06,1.32-.68-.14,.36,1.17,1.42,1.79,.33,.17,.09-.88,.31,.48,.62,.95,.82,1.47-.51-1.74-3.93-6.16-5.38-8.99,0,.92-.94-1.31-1.39-1.25,1.06,1.65,2.16,3.29,3.45,4.86-.55,1.25-3.86-4.69-5.3-6.36-1.36-2.71,.72-.45,.03-2.19-.6,.11-1.45-2.35-2.72-3.31,.83,1.03,2.76,4.14,1.59,3.32-.81-2.14-1.53-1.67-3.03-4.5-.74-1.5,.74,.18,0-1.33l-1.6-1.56c.26,.57,.51,1.13,.16,.83l-.96-1.15-.98-1.12c-.64-.75-1.26-1.52-1.88-2.28-1.23-1.53-2.44-3.07-3.75-4.56,.39,1.17,1.44,2.03,2.06,3.09-.85-.87-1.96-2.1-2.86-3.25-.9-1.16-1.67-2.16-1.66-2.71,.65,.89,1.48,1.66,2.44,2.42,.59,.22-1.15-1.63-.38-1.18-1.79-1.97-3.84-3.33-4.34-5.12-.95-.58-1.39-1.43-1.98-2.2-.11,.09-.83-.55-.65-.11-.83-1.27-2.38-2.72-3.71-4.11-1.34-1.38-2.52-2.66-2.81-3.45-.64-.65-1.3-1.29-1.96-1.93-.66-.64-1.38-1.22-2.06-1.84,.06-.13,.34-.06,.67,.06-.98-1.2-1.07-.59-1.87-1.23-.97-1.34-.02-.81,.73-.47-1.25-1.42-3.11-2.97-3.18-3.81-.68-.19,.18,1.13-1.47,0,1.67,1.98,1.32,.25,3.29,2.73,.11,.57-.53,.24-1.79-.79-1.23-1.07-2.22-2.3-3.26-3.49-1.07-1.16-2.16-2.31-3.46-3.3-.52-1.08,1.27,.75,2.32,1.37-.84-1.07-2.13-1.84-3.3-2.69,0,.15,0,.3,.35,.76-.91-.68-1-1.14-1.4-1.01-.75-.89-1.75-1.6-2.71-2.34-.96-.74-1.93-1.44-2.52-2.44-.52,.08-3.32-2.09-3.28-2.63-.82-.19-2-.91-3.2-1.81-1.19-.92-2.5-1.89-3.45-2.77-.74-.4-.44-.04-.95-.27-1.55-1.48-3.72-2.74-3.28-3.11-.94-.44-1.89-.88-2.84-1.32-2.18-1.77,1.14,.07-.05-1.05-1.79-.75-3.26-1.8-4.64-2.94-.42,.06-2.09-.69-2.73-.77-.73-.88,2.18,.62,.75-.73-.3,.3-1.57-.3-3.01-1.18-1.48-.81-3.12-1.9-4.12-2.69-1.97-.97-2.09-.44-3.97-1.75,.28-.18,1.9,.36-.37-.81-.21-.42,.97-.02,2.34,.49-.18-.21-.45-.32-.73-.43-.2-.18-.41-.37-.61-.56-1.31-.51-.61,.17-1.92-.34-2.05-.87-1.35-1.22-3.25-2.51-1.6-.46-2.64-1.55-4.17-2.09,1.18,1.16,2.74,1.85,4.38,2.49-.13,.16,.62,.77,1.45,1.44-1.55-.91-1.61-.51-3.29-1.83-1.78-.74,.69,.75-1.09,0-.67-.59-1.9-1.32-3.29-2.09-.7-.38-1.43-.79-2.16-1.17l-2.16-1.06c-.61-.02,2.1,1.23,2.93,1.59,.11,.74-3.58-1.07-5.22-1.99-.88-.86,2.69,1.21,1.75,.44-1.66-1.25-1.7-.45-3.49-1.53,2.72,.38-5.89-2.68-8.07-4.28-1.1-.07-4.14-1.09-6.4-1.59,.66-.65-6.15-2.32-7.21-2.41-.54-.31-1.07-.61-.61-.57-.78,0-2.28-.83-4.15-1.09-.95-1.02-2.8-.86-5.72-1.55-.49-.35,.62-.23-.91-.89-2.63-.52-4.55-1.13-6.52-1.64-1.98-.48-3.97-.99-6.66-1.5-.51-.35,.62-.28-1.04-.69-.38,.63-2.95-.45-4.03-1.11,.65,.65-2.2,.49-4.43-.15-.55-.53,2.6,.49,2.25,0-.62-.28-1.35-.33-1.97-.63-.7,.09,.25,.48-1.42,.17-.44-.23,1.2-.06,.59-.32-2.55-.71-3.5-.63-3.46-.31-2.12-.25,.21-.51-1.9-.79,.06,.22-.37,.28-1.05,.26-.68,0-1.62-.06-2.54-.12-.56-.59-1.29-.19-2.76-.81-.13,.35-2.24,.03-3.41-.3-.08-.22,.91,.02,.57-.35-.42,.21-2.21-.05-3.82-.24-1.61-.16-3.05-.19-2.73,.23-1.46-.37-3.24,.24-4.69-.15-1.09-.47,1.46-.14,2.73-.45-1.5-.27-3.09-.22-4.6-.48-.5,.5-2.14,.49-3.86,.39-1.73-.03-3.54-.17-4.35-.1,.21-.31,2.3-.37,3.12-.48,.83,.14,.4,.24-.1,.34,1.8,.25,1.37-.21,3.46-.12-2.77-.38-3.49-.19-5.71-.98-1.78,.13,.11,.4-.59,.57-1.18-.35-4.28-.45-7.53-.5-3.24,0-6.62,.14-8.44,.01-.56,.05-3.54,.32-2.24,.59-2.25,.36-4.08-.32-4.28,.37-1.21-.21,.23-.46,.15-.68,.73-.1,1.37,.13,2.05,.23,1.39-.35-.89-.55,1.83-.68-2.15-.02-2.49,.25-5.16,.55-.1-.11-.2-.22-.77-.33-1.45,.31,.85,.2,.29,.59-1.29,.18-2.49-.12-3.84,.3,3.18,.18,6.37,.22,9.57,.3,3.2,.05,6.41,.1,9.62,.16,1.83,.2-1.12,.31,.72,.52,1.58,.05,1.15-.16,2.2-.35,1.61,.4-1.19,.63-2.76,.93-3.56-.03-7.41-.83-12.09-.28-1.26,.03-2.44-.3-3.72-.21,1.11,.37,.77,.32-1.71,.19-1.49,.19-.08,.34-.95,.52-3.03-.61-3.85-.12-6.67-.04-1.14-.14-.08-.34-1.57-.46,.11,.37-1.25,.66-3.01,.52-1.14-.13,2.21-.41,.1-.51-.6,.19-1.14,.13-1.68,.05-.08,.14-.55,.3-1.34,.46-3.58-.04-5.35,.02-8.26-.25-.82,.79-2.76-.06-4.65,.55-.83-.25,1.61-.25,2.16-.58-1.55,.1-3.09,.34-4.59,.27-.85,.15-1.76,.69-2.57,.55,.48,.41-.02,.4-2.2,.95,3.21-.36,4.48,.07,7.09-.5,1.49,.26-1.06,.39,.32,.57,1.73-.41,1.88-.64,1.37-.87,1-.18,1.97-.14,2.98-.42,.02,.56,2.74,.13,4.16-.06,1.02,.31-1.84,.42-2.23,.89,1.59-.02,1.68-.17,2.57-.48,.51,.12,1.69,.36,4.09,.31,0-.23,1.48-.5,2.64-.76,.48,.27-.2,.57,1.51,.8,1.17-.29,2.23-.04,3.35-.1-.49,.21,.49,.38,.3,.59,4.49-.3,8.92-.14,13.33-.03,2.63-.54,4.97,.23,7.57-.15,1.05,.22,2.26,.31,3.52,.32,1.25,.03,2.55,.04,3.81,.02,2.52-.01,4.87,0,6.24,.61,.91-.28,1.69-.04,2.59-.25,1.01,.39,2.1,.51,3.16,.77-1.73,.07-3.02-.42-3.84,.14,.83-.43-.96-.25-2.38-.42-1.11,.32,.49,.28,1.56,.39-2.04,.34-3.9,.04-5.83-.03-.71-.19,1.94-.21,2.52-.08-.59-.46-4.96-.15-7.01-.33,.89,.36,1.95,0,2.83,.36-3.78-.27-5.33,.21-8.84,.29-1.19-.2,2.83-.39,.57-.59l-1.75,.33c-3.59-.38-7.95-.03-10.49,.31,2.5-.51-1.51-.32-3.66-.38-.29,.22-1.37,.44,.33,.42-3.01,.67-3.27-.26-5.86,.31-1.15-.22-.5-.49-.27-.76-1.13-.09-3.05,.54-3.04,.69-1.75,.25-4.9-.4-5.41,.29-.74,.04-3.5-.05-2.83-.27-1.66,.51-6.26,.8-9.99,.82,2.2-.37,1.95-.28,3.82-.91l-4.07-.18c-1.23,.2,1.19,.51-.48,.47-.81,.51,1.88-.17,2.49-.21,.28,.54-4.61,1.32-6.69,.89-2.76,.17-5.63,1.7-8.32,1.42l-1.68,.53c-1.37-.01,.09-.35,.05-.52-1.64,.02-3.33,.96-4.94,.85-.83-.2,1.58-.47,2.08-.75-2.31,.47-4.54,.96-6.56,1.3-1.01,.18-1.97,.3-2.86,.39-.88,.12-1.7,.17-2.44,.15-1.35,.29-2.71,.49-4.07,1.15,.95-.04,1.18,.05,.4,.35-.81-.04-2.33,.26-3.98,.66-1.64,.43-3.44,.9-4.88,1,.92-.46,1.86-.9,2.8-.95-.81-.1-5.09,.95-7.25,1.44-.9,.49-.56,.39,.09,.2,.66-.16,1.62-.4,1.94-.26-.67,.31-1.34,.47-2.01,.66-.66,.21-1.31,.42-1.96,.79,.32,.05,.32,.2-.37,.56,1.06-.07,1.45-.41,1.59-.13-.52,.18-1.05,.37-1.56,.65-2.06-.05-2.62,.3-5.18,.77,1.28-.82,2.65-.54,3.93-1.37-.95-.05-1.85,.45-2.8,.4,.43,.05-.26,.42-1.25,.83-.49,.21-1.06,.42-1.6,.62-.53,.22-1.03,.42-1.41,.55-.4,.03,.36-.37,.74-.63-1.08-.04-2.07,.72-3.14,.78-.64,.41,1.12-.05,.84,.24-1.33,.65-2.69,1.11-4.05,1.56l-2.04,.69c-.67,.27-1.32,.58-1.98,.92,.08,.48,1.88-.95,3.07-1.07,.25,0,.03,.17,.42,.12-2.01,.52-2.43,1.16-4.49,2.22,.2,.44,1.99-.51,2.62-1.23,1.78-.52-1.57,1.24,.84,.2-1.11,.76-3.68,1.98-1.74,1.58Zm152.83-7.96c1.59-.06,2.89,.56,4.3,.9-1.55-.02-2.93-.43-4.3-.9Zm107.15,53.2c-1.25-.51-3.13-2.42-2.02-.85-1.93-1.24-3.56-2.71-5.14-4.24,1.12,.45,1.13,.75,2.38,1.04,.42,.48,.75,1.04,1.33,1.4,.5,.25-.07-.35,.27-.22,1.01,1,2.5,1.62,3.18,2.88ZM16.81,301.1c-.44-1.5-.75-1.12-.62-3.01,.25-.02,.75,1.86,.62,3.01Zm-8.93,2.52c-.55-2.77-.68-3.08-1.51-5.43,.25-.99-.09-2.05-.46-3.12,.2-1.41,.17-1.7,.56-2.54-.5-2.35-.74-.77-1.03-.15-.08-3.66,.77-3.28,1.37-1.11-.24,1.51,.13,3.08,.49,4.65,.37,1.57,.78,3.15,.82,4.68-.18,1.56-.41-1.72-.63-.95,.38,1.41,.73,3.97,.4,3.98Zm167.1,202.67c1.68,.34,2.96,1.27,4.56,1.73-1.7-.32-3.17-.95-4.56-1.73Zm136.48,12.94c.75,.17,3.67-.41,2.99,.1-1.19-.19-4.33,.67-2.99-.1Zm97.33-37.1c-1.02,.55-1.92,1.49-3.05,1.72,.7-.75,3.38-2.34,3.05-1.72ZM315.25,6.54c-1.93-.35-3.85-.68-5.65-1.32,1.63,.33,5.66,.89,5.65,1.32Zm33.89,14.6c-.17,.14-2.08-.45-3.76-1.08-1.69-.59-3.17-1.16-2.38-1.22,1.9,.96,4.31,1.18,6.14,2.3ZM197.15,10.05c.47-.21,.24-.32,1.36-.64,.71,.07,1.45-.13,2.17-.07-1.21,.45-2.39,.85-3.53,.71Zm189.71,40.84c-1.64-.99-2.9-1.58-4.04-2.21-1.15-.62-2.24-1.22-3.66-2.02,1.4,.57,2.73,1.21,4.02,1.91,1.29,.69,2.53,1.44,3.68,2.32Zm-75.91-27.44c-1.24-.29-4.69-.81-4.45-1.1,1.27,.23,4.73,.72,4.45,1.1Zm-41.28-4.71c0,.12-1.59,.67-2.6,.29-.72-.23,2.03-.55,2.6-.29Zm-102.39,17.41c-.84,.14-.42,.26-1.16,.62-1.25-.23-2.3,1.09-3.52,.94,.63-.46,1.76-1,2.77-1.28,1.02-.28,1.88-.42,1.9-.28Zm56.85-7.84c-1.1,.12-2.24,.49-3.29,.27,1.83-.6,3.06-.29,3.29-.27Zm56.18,2.1c-.21,.33-2.76,.24-4.02-.14,1.43-.29,2.73-.05,4.02,.14Zm11.62,1.08c-1.43,.09-4.81-.34-4.72-.75,1.54,.36,3.26,.16,4.72,.75ZM209.45,14.81c2.85-.31,5.74-.79,8.56-.81-1.37,.33-3.2,.57-4.84,.69-1.64,.14-3.1,.22-3.72,.13Zm114.56,28.46c-.37,.31-2.99-.33-4.23-.93,1.59-.08,2.94,.38,4.23,.93Zm-49.52-18.66c-1.37-.07-2.82,.17-4.13-.15,1.19-.21,4.48-.27,4.13,.15Zm-64.84-11.37c-.61-.19-3.37,.51-2.54-.05,1.16-.05,3.85-.61,2.54,.05Zm3.05-.6c.7,.43,1.33,0,2.97,0-.72,.2,.91,.21,.37,.4-2.09,.13-1.49-.24-3.43,.28l-1.26-.12c.47-.19,.25-.32,1.36-.57Zm7.99,.44c-1.44,.17-2.91,.6-4.29,.36,1.5-.55,2.91-.55,4.29-.36Zm52.37,7.39c.87-.12,1.74-.17,2.56-.08-1.95,.21-.89,1.06-3.57,.72-.63-.42,2.45-.32,1.01-.64Zm-39.05-8.45l-1.78,.44-1.23-.19c1.06-.4,2.02-.25,3.01-.25Zm-25.49-3.27c-.64-.52-1.78,.25-3.48,.23-.22-.53,6.39-1.06,3.48-.23Zm73.81,11.94c2.61,.59,6.11,.07,7.41,.98,.38-.46,3.27-.27,4.68,.19-4.05-.32-3.52,.39-7.44,.42-1.41-.82-1.52-.05-2.34-.71l-4.14-.08c-1.44,0-2.69-.05-2.98-.27,.35,.07,2.65,.07,1.72-.11-1.43,.05-2.81-.05-4.15-.32,1.2-.26,2.26-.01,3.31,.29,.68-.1,1.62-.1,2.41-.13,.79-.02,1.43-.03,1.52-.26Zm40.73,16.66c-.23,.38-2.43-.26-3.63-.61,.2-.31,2.49,.15,3.63,.61Zm-49.66-18.23c.54,.13,1.06,.26,1.6,.39-.89,.19-1.76,.24-2.57,.08,1.92-.1-.95-.37,.97-.47Zm-49.78-10.96c-1.37,.46-2.54-.19-3.92,.39-1.36-.12,.22-.62-2.08-.42,3.09-.86,3.43,.14,6,.03Zm24.36,3.88c-1.33,.28-2.67,.64-3.88,.33,1.29-.08,2.68-.63,3.88-.33Zm-16.45-2.7c-1.46-.39,2.98-1.28,4.89-.98-.04,.33-1.3,.59-2.27,.67,.01-.44-1.69-.07-2.62,.31Zm76.07,15.71c.1-.42-1.57-.48-2.53-.28-1.08-.18-1.48-.32-1.53-.55-3.04,0-5.72-.98-8.77-.95-1.26-.37,.37-.74-1.99-.5-1.36-.36-1.21-1.06,1.06-.57-.49,.04-.93,.12-.12,.33,.62-.89,5.38,.06,8.23,.19l1.91,.69c1.68,.15,3.51,.02,5.02,.68-.48,.18-1.67,.12-3-.05-1.33-.13-2.8-.32-3.81-.53,.37,.17-.25,.11-.89,.05,1.37,.22,2.62,.75,4.01,.89,2.25-.11,4.45-.04,6.33,.74-3.31-.63-2.58-.11-3.93-.14Zm-56.59-13.3c.8-.18-1.03-.33,.12-.51,.76,.37,1.75-.23,2.51,.14-1.35,.3-1.04,.58-2.73,.88l-1.22-.24,1.33-.27Zm109.83,45.24c.37,.46-2.21-.36-2.63-.94,.89,.28,2.03,.25,2.63,.94Zm-14.29-11.94c-1.19,.2-4.85-1.88-3.35-1.26,1.09,.47,2.4,.58,3.35,1.26ZM247.01,8.67l-1.78,.37c-.42-.1-1.24-.19-.79-.32,.85,.09,1.03-.44,2.57-.05Zm15.75,1.77c-.84,.14-.63,.28,.33,.43l-2.21,.42c-1.26-.07-2.47-.3-3.72-.44,1.85-.05,3.75-.3,5.61-.41Zm-14.86-1.95c.89-.26,.59-.52,.59-.77,.82,.16,1.74-.14,2.53,.14-3.56,.64,3.03,.26,1.97,.74-1.67-.23-5.73,.38-5.9-.27l.82,.16Zm22.25,3.22c-.28-.31-1.01-.35-1.88-.33-.86,.04-1.87,.12-2.77,0,.63-.38,2.11-.49,3.29-.38,1.19,.12,2.05,.4,1.35,.71Zm3.43,.29c1.57,.13,.37,.55,1.64,.4,.81-.17-.22-.41,.6-.58l1.65,.4c-.68,.12-1.65,.23-.56,.41-1.06,.18-2.13,.35-3.09,.15,.51-.1,.96-.19,.09-.34-1.63,.11-.61,.32-1.87,.45-1.91-.38,1.04-.59,1.55-.88Zm11.43,2.79c-1.96,.19-3.81-.02-5.55-.46,1.94-.23,3.77,.08,5.55,.46Zm-30.68-6.46c2.19-.24,4.19,.3,6.37,.07-1.86,.37-3.02,.25-5.6,.26,.45-.12-.16-.23-.77-.33Zm63.91,17.82c-.59-.04-1.2-.01-1.79-.02-.93-.54-2.03-.75-3.28-.62l-1.12-.47c2.18,.12,4.17,.64,6.2,1.11Zm-54.71-17.15c-1.23-.19-2.56,0-3.77-.27,1.1-.3,4.24-.11,3.77,.27Zm101.15,44.17c-2.08-.69-3.76-1.93-5.8-2.67,1.01-.19,4.11,1.69,5.8,2.67ZM254.72,6.63c-.23-.2,.85-.41,1.42-.61,1.17-.09,2.3-.07,3.42,0,.41,.26-.31,.51-.6,.76,2.12-.6,4.07-.41,6.08-.49,1.68,.61,3.34,.49,6.31,.87-.7,.21-2.28,.14-3.9,.1-1.63-.05-3.41-.17-4.73-.22,.72,.14,.69,.29,.33,.43-2.55,0-3.25-.16-2.03-.43-.99,.05-3.02,.13-5.01,.13-1.99,0-3.93-.1-4.72-.51,2.05,.21,1.56-.1,3.42-.04Zm21.8,4.28c-.79,.4-1.62,.61-4.03,.29,2.91,.11,1.13-.45,4.03-.29Zm-16.06-3.28c.97,.13,1.98,.04,2.92,.26-1.27,.3-4.27,.11-2.92-.26Zm63.48,19.89c.65,.23,1.32,.39,2.08,.41l1.83,.88c1.47,.12,2.32,.36,3.2,.63,.89,.26,1.81,.55,3.39,.87-.88-.08,.42,.48-1.05,.22-1.44-.75-3.13-1.12-4.81-1.37,.51,.41,.54,.71-1.22,.58-1.15-.4-2.35-.72-3.44-1.27,1.34,.03,2.46,.53,3.85,.49-.53-.48-3.7-1.05-3.82-1.45Zm1.02,.68c-1.47-.09-2.78-.49-3.98-1.14,1.44,.14,2.67,.73,3.98,1.14Zm-53.51-19.77c1.92,.24-1.17,.3,.74,.53-1.22,.17-2.39,.12-3.51-.12,.02-.22,1.61-.46,2.76-.42Zm106.98,54.24c-1.07-.33-2.15-.65-2.91-1.33,1.13,.25,2.03,.79,2.91,1.33ZM268.98,7.68c.89,.17,.41,.3,1.21,.47-1.09,.21-2.09,.09-3.01-.15,.6-.11,1.17-.23,1.8-.32Zm36.53,9.45c.72,.24,1.11,.44,1.11,.58-1.89-.17-3.8-.21-5.49-.84,1.56-.18,2.8,.46,4.38,.26Zm-29.25-8.44c1.12,.2,2.3,.21,3.48,.21,.59,0,1.18,0,1.77,.03,.58,.04,1.16,.13,1.72,.25-1.16-.16-2.37-.07-3.57,0-1.2,.06-2.38,.08-3.5-.15,.61-.09-.31-.24,.1-.34Zm9.93,2.45l1.85-.18c.47,.24,1.45,.52,1.11,.69-.91-.4-2.05-.11-2.96-.51Zm-11.87-3.45c.64-.21-2.78-.55-.7-.71,2.2,.07-.09,.36,2.04,.67l-2.32,.34c-.46-.22-3.09-.21-2.09-.5,1.05-.06,2.03,.18,3.06,.19Zm64.31,24.3c-1.63-.68-1.69-.13-3.65-.99,1.14-.03,4.25,.68,3.65,.99Zm-40.82-19.43c-1.6-.15-3.24-.27-4.78-.49,1.73-.3,3.23,.22,4.78,.49Zm94.78,59.27c-.86-.41-1.78-.76-2.36-1.45,.2-.26,1.73,.59,2.36,1.45Zm-82.54-55.73c-1.52-.39-3.14-.57-4.6-1.04,1.46-.19,4.82,.82,4.6,1.04Zm37.29,18.8c1.86,.6,3.63,1.34,5.4,2.09-1.83-.31-6.59-1.82-5.4-2.09Zm-55.13-28.2c-1.88,.15,.17,.11,.77,.41-1.15,.25-2.01-.34-3.13-.18,1.32,.58,2.85,.53,4.25,.88,.33,.18,1.77,.88-.65,.54,1.02-.24-1.65-.25-2.06-.6-1.93,.35-3.5-.38-5.35-.29-1.19-.51-2.05-.69-4.25-.87-.76,.1,.89,.35,.31,.45-3.79-.62-1.46-.92,.47-1.49,.96,.22,.19,.3,.31,.45,.78-.07,1.42,.31,2.18,.27-.76-.21-1.19-.38-1.2-.53,1.69-.13,2.79,.26,2.35-.23,1.04,.09,2.11,.09,3.03,.51-.65,.13-1.83-.06-1.42,.14,1.49,.12,2.94,.32,4.38,.55Zm12.11,4.42c.08-.3,1.55,0,2.75,.04,.58,.57,3.16,.73,5.05,1.26-2.18,.11,1.87,.35,2.38,.97-1.95-.18-3.65-.88-5.57-1.13-1.77-.1-2.53,.22-3.27,.38-.75,.17-1.49,.24-3.26-.14,2.6,.05,5.96-.52,1.92-1.37Zm99.66,68.02c.12,.33-1.94-.92-.78,.17,1.92,1.08,1.28,.3,2.18,.64,.39,.51,1.01,.82,1.38,1.35-1.43-.31-2.83-1.09-4.21-1.41-1.8-2.12-2.25-2.37-4.45-4.28,1.57,.77,3.69,1.86,5.87,3.54Zm-47.27-40.72c-.81,.05-2.16-.4-3.62-1.2,1.26,.33,2.43,.79,3.62,1.2ZM282.3,4.93c-.84,.1,1.06,.43-.15,.5-2.14,.01-1.92-.75,.15-.5Zm29.79,8.62h-3.71c-.53-.21-1.14-.23-1.65-.46-.27-.47,3.44-.14,5.37,.46Zm47.6,26.27c.89,.58,1.89,.88,.9,.83-.67-.45-1.61-.52-2.21-1.08l1.31,.25Zm-23.72-15.61c2.03,1.01-1.92,.12-3.09-.47,1.12,0,1.97,.47,3.09,.47Zm-40.46-16.51c.88,.11,2.54,.71,1.1,.75-1.08-.35-2.07-.68-1.1-.75Zm66.81,32.63c-.25-.04-.47-.07-.11,.14,.74,.13,1.38,.39,1.97,.75-1.42-.37-2.78-.77-3.95-1.46,.71,.17,1.49,.24,2.08,.57Zm-.19-1.82c-1.12-.77-2.78-.8-3.9-1.58,1.24,.19,4.39,1.31,3.9,1.58ZM282.5,1.37c-.93,.29,1.8,.31,1.38,.03,1.14,.29,.58,.45,.26,.62-2-.25-1.64-.02-4.5-.26,.7-.23,1.57-.45,2.86-.39Zm141.58,95.27c-.5-.28-.88-.64-1.23-1.02-.36-.37-.69-.76-1.07-1.11,.52,.26,.98,.56,1.37,.9,.38,.37,.69,.78,.94,1.23Zm-63.14-63.55c-1.08-.17-1.95-.61-2.73-1.2,1.07,.16,1.95,.62,2.73,1.2Zm28.75,22.53c1.47,1.16-.86,.35-1.68-.59,1.17,.42,.34-.16,1.68,.59Zm-22.31-19.36c1.91,.49,5.56,2.32,5.65,2.9-1.37-1.16-3.4-1.49-5.08-2.26,.81,.11-1.05-.52-.57-.64Zm70.32,74.92c-1.26-1.19-2.52-2.36-3.41-3.77,1.3,1.07,3.56,3.25,3.41,3.77ZM321.69,8.2c-.86-.33-3.99-.94-3.31-1.16,.99,.04,3.98,.97,3.31,1.16Zm33.46,14.67c.57,.43,1.23,.72,1.9,1,.66,.31,1.33,.6,1.92,.99-.84-.17-1.55-.52-2.3-.81-.76-.27-1.53-.51-2.47-.52-.7-.5-1.65-.61-2.3-1.16,2.05,.41,1.6,.34,3.24,.5Zm47.65,37.47c1.16,1.06,1.51,1.6-.22,.77-1.04-.76-1.07-1.31-2.84-2.37,1.24,.32,1.9,1.21,3.06,1.6Zm-50.37-42.73c-1.72-.29-3.41-.61-4.89-1.25,1.71,.29,3.52,.43,4.89,1.25Zm30,21.37c-1.06-.28-1.9-.81-2.64-1.48,1.06,.28,1.9,.82,2.64,1.48Zm-9.68-8.29c-1.63-.46-3.18-1.02-4.45-1.95,1.63,.45,3,1.26,4.45,1.95Zm9.27,6.16c1.84,1.34,4.22,2.06,6.19,3.25-1.69-.19-3.94-1.65-6.86-3.12-.48-.11-.39,.14-1.21-.54,.23-.07,.75,0,1.88,.41Zm27.38,23.58c-1.97-1.04-3.75-2.18-5.48-3.4,2.06,.9,3.82,2.08,5.48,3.4Zm-46.85-39.88c-1.24-.27-2.31-.78-3.44-1.2,.96,.08,.11-.57,1.33-.38,1.65,.91,.72,.78,2.11,1.58Zm-6.92-2.26c-.45-.61-1.58-.8-3.1-1.62,2.95,.95,5.75,.9,6.98,2.11-2.5-.79-2.52-.38-3.88-.49Zm6.87,3.07c-.66-.64-3.9-1.44-3.12-1.63,1.53,.61,3.13,1.12,4.42,2.06-.88-.2-.72,.01,.16,.52-1.51-.38-2.93-.89-4.25-1.53,.71,.1,3.34,1.15,2.79,.58Zm24.98,17.02c-.92-.68-2.18-.99-3-1.77,1,.21,3.64,1.81,3,1.77Zm-4.67-2.45c1.27,.44-.94-.94,.79-.26,1.61,1.01,.62,1.14-.79,.26Zm7.8,5.95c1.22,.35,2.15,1.02,3.24,1.51,.75,.86,1.82,1.38,2.77,2.02-1.73-.82-1.02-.39-2.62-.95-.44-.64-.85-1.03-2.57-1.61-.58-.5-.88-.85-.82-.98Zm44.65,48.7c-1.14-.59-2.29-1.92-2.58-1.68l-.45-.68c-.24-.16-.47-.33-.59-.58,.83,.26,2.52,1.54,3.62,2.93Zm22.6,45.8c.48,.88,1.18,1.58,.86,1.72-.89-.75-1.73-2.49-.86-1.72ZM366.51,22.51c-1.27-.48-2.47-1.05-3.59-1.73,1.28,.03,4.05,1.76,3.59,1.73Zm64.55,60.12c-1.43-.99-2.68-2.09-3.77-3.33,1.43,.98,2.69,2.1,3.77,3.33Zm-49-52.47c-.77-.51-.52-.11-1.38-.38-1.67-.86-1.46-1.31-3.95-2.02-.36,.16,2.28,1.29,.84,1.04-1.6-.74-2.48-1.31-2.92-1.91,2.48,.62,6.95,2.44,7.41,3.27Zm41.96,42.36c.67,.61,1.46,1.13,2.22,1.67,.74,.57,1.43,1.18,1.93,1.93-.72-.41-1.34-.9-1.95-1.39-.62-.48-1.26-.94-1.95-1.36-.71-.78-.88-1.14-.24-.85Zm-21.72-24.98c.71,.5,1.38,1.04,1.94,1.67-1.28-.37-3.19-2.18-1.94-1.67Zm-14.36-14.2c-.64-.21-.84-.18-1.03-.15-.77-.43-1.5-.92-2.15-1.51,1.2,.39,2.26,.95,3.17,1.66Zm21.54,19.11c-1.12-.7-2.62-1.03-3.48-1.98,1.3,.53,2.47,1.19,3.48,1.98Zm9.18,8.31c-1.69-.72-1.77-1.39-2.8-1.5-.53-.56-.8-.93-.73-1.06,1.43,.64,2.6,1.49,3.53,2.56Zm-7.61-5.73c1.13,1.26,3.08,1.81,4.09,3.17-1.56-.53-4.39-2.86-4.09-3.17Zm-18.3-17.99c-1.35-.24-2.13-1.07-3.03-1.8,1.25,.34,2.04,1.17,3.03,1.8Zm21.48,19.14c-1.21-.45-1.96-1.3-2.95-1.93,.29-.28,2.16,.98,2.95,1.93Zm4.78,2.63c-2.12-1.09-2.92-1.64-3.5-1.49-1.29-.92-.65-.83-1.01-1.37,1.18,.48,2.05,1.22,3.1,1.83-.41-.4-1.4-1.07-.87-.94,2.3,1.43,3.04,2.37,4.27,3.63-.48-.18-.4,.06-1.4-.49-1.27-1.17-.23-.65-.59-1.16Zm4.46,4.58c-2.51-1.65-4.85-3.34-7.1-5.13,.92-.29,5.04,3.02,7.1,5.13Zm-30.06-28.99c-2.1-.93-3.95-2.13-5.92-3.2,2.11,.9,4.18,1.88,5.92,3.2Zm9.75,8.66c-.3,.08-.75,.32-2.23-.82,.08-.07,1.36,.1,2.23,.82Zm-1.26-3.01c1.99,1.4-1.82-.61-.82,.21,.9,.73,2.32,.95,3.08,1.82-2.34-.93-4.28-2.26-6.29-3.51,.77,.02,2.76,1.38,4.03,1.48Zm23.46,26.16c2.63,1.44,4.38,3.84,3.09,3.46-.76-1.04-.42-.98-3.09-3.46Zm1.24-.42l-2.04-1.09c-.25-.35-.85-.97-.41-.76,.59,.79,2.04,.93,2.45,1.86Zm-10.77-13.27c.9,.9-.13,.4-.82,.14-.4-.41-.95-.69-1.3-1.15,.71,.34,1.42,.68,2.12,1.01Zm-4.74-5.61c.6,.77,.33,.96-1.09,.4-1.52-1.36-.34-1.29,1.09-.4Zm14.56,16.92c1.32,.55,2.67,2.25,2.45,2.4-1.99-1.09-1.16-1.03-2.45-2.4Zm-8.24-12.69c.49,.54,1.01,1.04,1.61,1.48-1.92-1.13-2.03-1.64-3.58-2.07-.08-.39-.51-.73-1.07-1.13-.57-.38-1.29-.81-1.92-1.42,1.88,.81,3.12,2.23,4.96,3.14Zm9.34,8.01c-1.69-2.21-6.55-4.69-7.14-5.9,1.04,.78,3.1,2.12,4.78,3.32,1.63,1.26,2.86,2.39,2.36,2.58Zm-2.09-1.67c-.82-.43,.25,.61-1.11-.21-.53-.49-1.17-.9-1.6-1.48,1.68,1.08,1.28,.39,2.7,1.68Zm12.27,9.72c.5,.88,1.62,1.33,2.13,2.21-1.04-.69-2.02-1.41-2.82-2.26,.52,.27,.26-.15,.69,.05Zm23,31.02c-1.02-1.14-4.24-4.32-2.87-3.77,.53,1.18,3.28,3.68,2.87,3.77Zm17.21,38.72c.81,1.73-.94-.08-1.38-1.25,.79,.94,.41,0,1.38,1.25Zm-17.67-39.92c-.88-.65-1.35-1.52-1.9-2.36,.89,.81,1.32,.43,1.96,1.38-.45-.18,.06,.76-.06,.98Zm1.55,.65c1.23,1.81-.59,.61-1.4-.72,.2-.07,.07-.54,1.4,.72Zm-8.56-15.35c.48,1.23,1.96,1.87,2.51,3.05-1.78-1.47-3.23-3.14-4.85-4.64,.78,.53,1.59,1.04,2.34,1.6Zm9.18,15.03l-1.44-1.17-.62-1.13c.98,.62,1.45,1.5,2.07,2.3Zm3.51,6.78c1.77,1.58,.92,1.66,2.34,3.59-1.03-1.1-2.57-3.35-2.34-3.59Zm3.06,4.66l.74,1.52c-.84-.59-2.83-2.98-2.12-2.75,.52,.99,1.22,1.15,1.38,1.23Zm15.76,39.76c-.54-.84-.81-1.75-1.19-2.63,1.55,2.52,2.86,5.16,4.18,7.79,1.28,2.64,2.62,5.24,3.56,8-.65-.71-.91-1.49-1.16-2.28-.28-.77-.54-1.55-1.15-2.24,.29,1.03,.84,1.91,.14,1.22-.83-1.65-.12-1.05-.71-2.76-1.24-1.52-1.41-3.31-2.69-4.81,.43,1.02,1.02,1.99,1.16,3.08-.61-.69-.78-1.49-1.46-2.16-.55-1.39,.81,.13-.24-1.63-.74-1.04,.19,1.27-.77-.22-.41-.74-.77-1.48-1.03-2.25,.3,.01,1.39,1.43,1.38,.89Zm-17.72-44.94c.81,1.82,2.43,3.26,3.42,4.99-1.02-.76-.35,.58-2.05-1.41-1.06-1.74,.12-.58,.1-.98-.9-.99-1.58-2.09-2.65-2.99-.81-1.29,.15-.58,1.18,.39Zm-7.03-13.7c-1.26-.94-2.59-1.84-3.33-3.06,1.13,1.01,2.57,1.85,3.33,3.06Zm14.07,28.62c-.44-.43-.88-.86-1.31-1.29-.17-.39-.34-.78-.5-1.16,.81,.73,1.47,1.52,1.81,2.45Zm9.16,10.08c.46,.6,.83,1.2,1.07,1.87-2.09-2.5-1.95-4.28-2.73-5.78-.53-.55-1.02-1.14-1.58-1.68-1.42-2.93-3.42-5.64-5.48-8.32-.61-.14-1.61-1.05-2.33-1.78,.48-.46-1.2-1.19-1.96-2.82,1.05,1,1.99,1.9,2.83,2.69,.85,.79,1.55,1.5,2.28,2.04,.46,1.31,1.59,2.9,2.88,4.53,1.27,1.64,2.77,3.26,3.72,4.77-.19-.14-.64-.7-.99-1.1-.37-.39-.65-.64-.44-.19,1.11,1.25,1.85,2.65,2.98,3.92-.23-.52-.9-1.51-.45-1.2,.59,1.47,3.2,4.58,2.77,4.89-.92-1.9-3.29-4.44-2.68-2.68,.71-.03,3.42,4.94,3.24,5.16-.84-1.37-3.1-5.44-3.11-4.31Zm1.76,1.2c.16-.1,1.4,1.44,2.04,2.46-.68-.59,.98,1.69,1,2.35-.6-.78-1.12-1.58-1.62-2.38-.49-.8-.94-1.62-1.42-2.43Zm-25.14-39.81c1.65,1.53,2.97,3.31,4.3,5.05-.76-.76-1.81-1.85-2.68-2.84-.86-1-1.62-1.83-1.62-2.21Zm8.92,15.16c-.44-.73-1.25-1.3-1.45-2.15,.81,.32,2.14,2.69,1.45,2.15Zm4.84,6.69c-.87-.74-2.98-3.28-2.32-3.15,.67,1.1,1.66,2.06,2.32,3.15Zm-6.79-13.81c-.23,.12-1.87-1.51-2.45-2.63,1.05,.76,1.75,1.69,2.45,2.63Zm26.1,67.94c-.51-.22-1.07-2.28-1.44-1.8-.61-1.97,1.18,.58,1.44,1.8Zm1.94,4.2c-.38,.08-1.12-1.9-2.04-2.94-.08-.39-.16-.8-.25-1.19,.9,1.35,1.93,2.68,2.28,4.13Zm-14.54-48.63c-.67-.85-2.84-3.41-2.17-3.26,.66,1.11,1.65,2.09,2.17,3.26Zm-2.24-7.83c-.83-.76-1.5-1.56-1.85-2.5,.82,.75,1.5,1.56,1.85,2.5Zm10.74,23.34c.53,1.02,1.17,2,1.7,3.03-.98-1.15-1.31-1.07-2.21-2.89,.55,.63-.22-1.09,.5-.14Zm3.69,8.17c.17,.69,.41,1.36,.72,2.01l-.56-.73c.05,.23,.09,.43-.17,.04-.7-2.25-.62-.44-1.29-1.41-.37-.91-1.08-1.73-1.23-2.71,1.27,1.7,1.59,1.62,2.52,2.8Zm-1.01-4.96c.14,.53,.58,1.61,.22,1.25-.84-1.82-2.33-3.45-2.83-5.37,1.36,1.87,1.61,3.08,2.61,4.12Zm6.25,119.19c-.21,1.36-.45,.32-.69-.91,.11-.5,.13-1.01,.15-1.53,.23,0,.54,1.41,.55,2.44Zm3.8-71.58c.62,1.31,.97,2.65,1.13,3.99-.72-1.2-1.4-1.22-1.78-3.53,.73,1.13,1.3,1.94,.65-.47Zm-4.83-33.66c-.75-1.47-.63-1.9-.26-1.67-1.78-2.62-3.93-7.46-4.1-9.02,1.37,3.36,3.44,7.14,4.89,9.27-.48-.45-.45,.11-.3,.93,.44,.06,.54,.18,1.4,1.86,.26,.92-.17,.31-.25,.48,.82,.72,.53,.84,1.23,2.36-.16-1.22,1.01,1.22,1.22,2.35-.28,.09-.95-1.65-1.83-2.67-1.1-2.78-.99-3-2-3.89Zm-9.06-31.17c.91,2.11,2.6,3.26,3.35,4.37,.59,1.76-.83-.61-1.78-1.24-.14-.86-.99-1.5-1.59-2.21-.44-1.02-.5-1.43,.02-.92Zm10.21,30.05c.34,.86,.74,1.71,1.1,2.57,.35,.87,.69,1.75,1.04,2.61-.72-1.15-1.3-2.35-1.87-3.52,.49,.69-1.52-3.17-.26-1.67Zm-3.32-15.9c-.2,.1-1.57-1.45-1.94-2.58,.6,.87,1.61,1.63,1.94,2.58Zm.37-2.8c-.83-.82-1.12-1.78-1.95-2.6,.38,1.08,1,1.99,.24,1.29-.29-.61-.9-1.7-1.42-2.63-.54-.91-.93-1.69-.66-1.72,1.28,1.5,2.66,3.09,3.78,5.65Zm6.41,28.38c-.1,.78,1.73,3.35,.97,2.83-.59-1.1-2.01-3.91-.97-2.83Zm-.56-8.99c-.91-1.55-1.64-3.13-2.53-4.69,.3,.07,2.9,4.47,2.53,4.69Zm-4.34-15.31c-.42-.52-.6-.61-.77-.68-.36-.98-2.09-3.86-1.54-3.61,.55,1.48,1.88,2.76,2.32,4.29Zm11.74,41.25c-.53-1.27-1.22-2.89-1.94-4.6-.7-1.72-1.43-3.51-2.07-5.11,.03,.63,.21,1.65-.45,.49,.52-.61-.45-1.76-1.07-4.11,.97,1.41,1.39,2.63,1.76,1.87,.05,1.43,.72,3.3,1.53,5.31,.41,1,.83,2.05,1.24,3.08,.41,1.03,.78,2.06,1,3.07Zm-11.31,105.16c.24-1.26-.15-2.71,.34-3.9,.04,1.1,.04,4.24-.34,3.9Zm12.25-68.25c-.14,.82,0,1.64,.42,2.48-.28,1.61-1.53-2.69-1.82-4.95,.9,2.4,.9,2.28,1.4,2.47Zm-8.71-70.23c-1.41-2.34-2.33-4.8-3.71-7.1,.31,.37,.61,.74,.91,1.1,.88,1.99,2,3.98,2.8,6.01Zm7.19,40.56c-.51-1.65-1.91-5.4-1.53-5.75,.32,1.66,2.04,5.4,1.53,5.75Zm.4-4.24c.34,2.22,1.39,4.38,1.8,6.6-1.17-2.31-2.42-6.81-2.47-7.81,.13,.76,.52,1.16,.66,1.21Zm-5.83-33.18c-.47-.62,.16,.95-.23,.49-.36-1.1-1.2-2.09-1.42-3.22,.69,.88,1.36,1.76,1.65,2.72Zm3.32,7.71c-.95-1.3-1.51-2.65-1.97-4.03,.69,1.33,1.57,2.64,1.97,4.03Zm3.77,25.77c1.17,2.31,.89,2.82,1.05,4.57-.39-.74-.68-1.17-.84-1.21-.03-.27-.06-.55-.09-.83,.67,.73,.44-.45-.11-2.53Zm-4.37-30.08c.86,2.2,2.21,4.31,2.71,6.57-1.02-2.12-1.28-1.32-2.13-3.14-.8-2.25,.81-.11-.04-1.76-.47-.56-.21,.5-1.14-1.1-.26-1.22,.25-.69,.59-.56Zm3.11,10c-.23-.1-.59-.49-1.24-1.54-.06-1.16-.92-2.17-1.09-3.31,.18,.27,.36,.53,.53,.78,.21,1.29,.98,2.03,1.79,4.07Zm5.34,34.22c-.53-1.98-2.84-7.35-1.84-6.7,.24,2.25,1.64,4.45,1.84,6.7Zm1.67,12.61c-.42-1.13-.78-2.24-.92-3.37,.26-.01,.93,2.13,.92,3.37Zm1.05,.44c-.39-2.6-2.44-9.02-1.58-8.86,.25,2.66,1.79,7.6,1.58,8.86Zm.57,14.72c-.51-1.15-.63-2.28-.74-3.4,.28,.01,.72,2.17,.74,3.4Zm.81-2.88c-.17,1.18,0,2.38,.23,3.58l.34,1.81c.07,.61,.13,1.21,.12,1.81-.62-1.47-1.07-6.15-1.5-8.94,.38,1.21,.37,.17,.81,1.73Zm.49,.88c-.02,1.24,.26,1.93,.55,2.67,.29,.73,.63,1.5,.58,2.9-.57-2.35-.38-1.21-.91-2.19-.24-1.25-.92-4.67-.22-3.37Zm1.76,14.52c-.5-1.33-.67-2.62-.71-3.89,.32,.09,1,2.61,.71,3.89Zm1.96-28.37c-.79-1.45-.83-2.88-1.13-4.32,.41,1.44,1.02,2.88,1.13,4.32Zm.16-.86c-.47-.9-1.07-3.98-.59-3.46,.04,1.15,.79,2.32,.59,3.46Zm.42,6.46c-.3-.75-.14,1.18-.37,.85-.41-1.03-.69-2.04-.67-3.03,.44,1.39,.76-.11,1.04,2.19Zm1.75-.34c-.09-.1-.27-.58-.47-.96-.22-.38-.44-.66-.56-.39,.4,1.02,.33,2.04,.29,3.04-.56-2.21-1.6-4.38-1.75-6.52,1.12,3.29,2.09,.72,2.49,4.83Zm-4.58,38.73c-.41-.83-.48-3.68-.1-2.97-.07,.97,.41,2.04,.1,2.97Zm4.38-32.25c-.43-1.04-.69-2.06-.6-3.06,.42,1.03,.69,2.06,.6,3.06Zm-2.82,27.45c.11,1.02,.26,2.48,.32,3.76,.07,1.28-.04,2.38-.25,2.65,.31,1.61-.11,4.48,.5,4.83-.11,.55-.21,1.1-.31,1.65-.34-1.19-.14-2.16-.46-2.24,.18-2.43,.16-3.71-.41-4.37,.14-1.81,.34-.3,.5-.76-.14-.75-.32-1.5-.52-2.24,.35-2.05,.75,.13,.63-3.28Zm-.04,15.4c-.47,2.28-.92-3.03-.58-4.41,.15,.54,.28,.08,.43,.52,.1,2.82-.58,1.85,.14,3.89Zm.53,4.89c-.38,2.05-.62-.2-.88-1.53,.15-.68-.09-1.47,.12-2.13,.59,1.68,.16,2.48,.77,3.66Zm-2.32,10.19c-.1-1.33-.27-2.67,.06-3.87,.25,1.36,.22,2.65-.06,3.87Zm-51.97,102.03c-.34,.93-1.7,3.59-1.85,2.97,.68-.75,1.12-2.14,.94-2.26,.46-.51,.78-.77,.91-.71Zm50.77-78.55c-.82,2.28-.54-4.46,.12-3.99-.46,1.76,.13,1.74-.12,3.99Zm-53.91,84.01c-1.03,1.87-3.09,5.59-3.99,5.77,1.73-2.18,.34-1.31,.8-2.46,1.03-1.01,.96-.33,1.31-.3,.37-1.32,1.49-3.31,1.87-3.01Zm-6.73,10.13c.67-.79,1.11-1.82,1.85-2.54,.52,.19-2.4,4-1.85,2.54Zm67.39-92.74c0-1.54,.2-3,.6-4.38,.17,1.61-.22,2.99-.6,4.38Zm-.92,8.04c.41,1.4-.37,2.09-.66,3.48,.63-.94,.53,1.34,.62,2.2-.75,1.97-.2-2.9-.95-.93,.04,.52,.22,.34,.15,1.5-.15,.64-1.07,3.23-1.09,2.36,.21-.58,.44-1.63,.6-2.83,.13-1.21,.27-2.57,.39-3.78,.25-2.42,.52-4.21,.93-2.92,.33-1.76,.74-5.92,1.28-6.02,.16,1.15-.7,6.13-1.28,6.96Zm.3,2.98c.13-2.31,.58-4.47,.99-6.65-.17,2.27-.32,4.59-.99,6.65Zm-82.09,103.01c-.63,.55-1.46,1.7-2.21,2.67-.78,.95-1.5,1.72-1.83,1.6,1.37-1.24,3.24-4.37,4.04-4.28Zm80.71-95.05c-.27,.51-.68,1.61-.7,1.1,.76-2.03,.9-2.99,.7-4,.77-1.14,.23,1.26,0,2.9Zm-2.83,7.75c-.57,.82-.41,2.08-1.1,2.85,.09-.64,.38-1.71,.64-2.44,.27-.73,.45-1.13,.46-.41Zm2.54-2.54c-.42,1.03-.68,1.36-.67,.62,.22-.53,.51-1.03,.57-1.64,.06-.46,.06-.95,.24-1.34-.05,.79-.09,1.58-.14,2.37Zm-94.09,104.04c.22-.4,0-.38,.64-1.17,.86-.33,1.41-1.14,2.15-1.66-.82,1.11-1.68,2.18-2.79,2.83Zm87.06-86.17c-.05-.36-.81,1.75-.95,1.94-.05,.58,.24,.18,.22,.66-.7,2.24-1.36,2.72-1.1,.83,.84-2.19,1.53-4.47,2.47-6.58-.39,1.71-.39,2.4-.64,3.15Zm-92.6,90.36c.46-.24,.91-.47,1.35-.74-.68,1.18-2.62,2.14-1.35,.74Zm88.43-79.73c-.38,1.3-.82,2.58-1.56,3.63,.25-1.4,.81-2.59,1.42-3.73-.04,.26-.07,.48,.14,.1Zm-101.22,91.88c-.78,.44-1.47,1.1-2.29,1.45,.42-.45-.58-.31,.75-1.12-.54,.7,.3,.31,1.05-.48-.35,.05-.42-.11-.22-.47,.69-.32,1.19-1.07,1.94-1.28-1.44,1.43,.22,.47-1.23,1.91Zm96.83-79.12c-.95,1.65-2.47,5.72-3,5.87,.66-1.12,1.05-2.46,1.61-3.67-.45,.55-.69,1.27-1.14,1.84,.39-1.21,1.1-3.01,.82-3.18,.74-.65,1.29-.9,1.71-.86Zm-103.2,83.76c.4-.52-.04-.46,.74-1.23,.86-.31,.93,.38-.74,1.23Zm98.95-75.6c-1.24,1.71-1.48,1.28-1.45,.46,.38-.44,.62-.96,.89-1.47-.16,1.08,1.24-1.2,.56,1.01Zm-102.02,77.22c.66-.76,1.37-1.36,2.23-1.65-.66,.76-1.38,1.37-2.23,1.65Zm99.58-71.94c1-2.17,2.07-4.3,3.21-6.32-.96,2.36-1.14,2.87-1.98,4.53,.05-.27-.07-.23-.41,.23-.2,.59-.41,1.16-.82,1.57Zm-1.91,2.9c.13-.55-.43,.22-.53,.09,.88-2.46,2.09-4.62,3.41-6.7-.48,1.4,.19,.62-.29,2.02-.93,1.47-1.64,3.13-2.59,4.58Zm-105.71,74.96c1.13-1.01,1.92-1.8,1.41-1.78,1.07-.41,1.98-1.29,3.02-1.79-1.67,1.7,1.09-.29,.25,.65-1.67,.67-3.07,2.09-4.68,2.93Zm104.98-71.57c-.54,.73-.44,.23-.97,.87-.16,.45,.04,.26-.03,.56-1.12,1.52-.72,.45-.22-.8,.37-.44,.76-.85,.97-1.43-.29,.31-.07-.35,.15-1.02l.81-1c-.81,2.35-.71,1.92-.71,2.82Zm-4,4.52c-.59,1.42-1.5,2.52-2.24,3.8,.44-1.58,1.8-4.06,2.24-3.8Zm-4.54,8.81c-.68,1.16-1.26,2.42-2.12,3.39,.36-1.29,1.22-2.05,1.82-3.09-.19,.14-.59,.59-.42,.18,.43-.44,.58-.47,.72-.48Zm-5.99,8.04c.95-1.08,1.52-2.56,2.55-3.55-.51,1.18-2.38,4.1-2.55,3.55Zm.38-.86c-.27,.33-.51,.72-.69,1.15-.78,.79-1.14,1-.87,.33,.49-.52,.88-1.18,1.32-1.73-.24,.56,.36-.14,.24,.26Zm-5.98,8.16c1.11-2.23,2.51-4.09,4.02-5.83-1.12,2.19-2.75,3.8-4.02,5.83Zm-.16,1.82c.11-1.16,1.79-3.35,3.09-4.99-.87,1.85-1.82,3.62-3.09,4.99Zm-7.54,7.75c-.37,.23-.31-.07-1.09,.68,.99-1.75,2.07-3.36,3.52-4.53-1.4,1.81-2.54,3.63-2.43,3.85Zm-16.75,20.32c.59-.96-.96,.96-1.42,.95,.42-.78,2.62-2.68,2.3-1.98-.73,.55-.24,.51-.88,1.03Zm-161.73,75.19c-1.16-.05-2.34,.12-3.46-.11,1.82-.51,3.59-.68,5.35-.87,.43,.06,.85,.11,1.27,.17-2.5,.36-2.1,.26-3.17,.81Zm-14.43,.24c1.84,.38,4.52-.38,3.87,.36-1.02-.18-4.36,.1-3.87-.36Zm-142.73-68.67c3.42,1.7-3.04-2.37,.77-.7,.83,1.04,.49,.84,1.93,1.9-.43-.02-1.38,.05-2.7-1.21Zm3.98,1.6c.36,.37,.67,.79,1.16,1.04,.59,.2,.33-.7,1.82,.38,.12,.31-.85-.07-.11,.64-1.84-1.07-2.12-.45-3.89-1.64-.15-.49-.59-1.19,1.01-.42Zm95.52,65.2c-1.41,.04-2.67-.22-3.96-.48,.07-.25,1.93,.07,3.28-.13,1.44,.37-.12,.33,.68,.61Zm-104.37-70.22c-.67-.89,.09-.65,.04-1.05,.68,.78,1.93,1.04,2.53,1.89-1.22-.35-1.4-.5-2.57-.84Zm95.36,68.46c2.05,.55,1.72-.09,3.52,.48,.35,.26-4.3-.05-3.52-.48Zm-96.23-69.25c-.78-.36-1.4-.85-1.86-1.47,.49,.12,.9,.25,1.51,.76-.4-.17-.02,.27,.35,.71Zm-21.68,18.06c1.05,1.17,2.77,1.83,3.88,2.95-1.43-.55-4.33-2.75-3.88-2.95Zm-5.6-4.4c.82,.73,1.7,1.43,2.55,2.14,.88,.68,1.73,1.37,2.49,2.14-1.01-.58-1.95-1.2-2.81-1.9-.83-.73-1.58-1.52-2.23-2.38Zm-2.7-1.78c.54,.32,1.08,.64,1.62,.96l.79,1.02c-1.07-.47-1.68-1.27-2.42-1.98Zm-64.18-119.29c-.15-1.32,.45-.44,1.13,.72,.87,1.83,1.73,4.64,3.16,7.43,.04,.42,.23,1.2-.04,.83-.29-.46-.65-1.04-1-1.73-.34-.69-.7-1.47-1.07-2.28-.74-1.63-1.52-3.41-2.18-4.96Zm-3.32-10.83c-.02-.7,.05-1.09,.3-.83,.85,2.68,1.9,5.35,2.61,8.02-1.04-2.38-1.87-4.79-2.9-7.19Zm13.83,69.49c.51,.17,2.63,2.84,3.38,4.34-1.4-1.35-2.32-2.87-3.38-4.34Zm-17.69-81.69c1.27,3.5,2.12,6.56,3.26,8.16l.1,1.62c-.22-.6-.5-1.21-.82-1.87l-.91-2.16c-.63-1.57-1.26-3.42-1.63-5.74Zm.46,54.61c-.46-.66-.87-1.33-1.18-2.01-.55-2.18,1.4,1.18,.47-1.84,.75,1.49,1.83,2.91,2.11,4.48-1.19-2.67-2.1-3.28-1.4-.62Zm-4.89-85.28c.14-1.22,.47,.2,.69,.09-.05,.95,.19,1.96-.03,2.89-.34-1-.26-1.96-.66-2.98Zm-5.03,16.52c-.12-1.19-.77-2.03-1.04-2.63-.05-1.83,.3-.34,.42-.81-.1-.44-.13-.86-.07-1.28,.35,2.14,.51,3.99,.97,3.05,.12,1.05-.02,1.77-.27,1.66Zm-5,17.22c-.03,1.01,.73,2.04,.6,3.05-.56-.79-1.09-3.71-.6-3.05Zm-2.33-12.26c.66,2.22,1.3,4.42,1.41,6.6-.42-2.19-1.32-4.42-1.41-6.6Zm-1.12-8.79c.31,1.19,.64,2.39,.43,3.54-.35-1.2-.5-2.39-.43-3.54Zm-1.63,.69c.13-1.14,.08-1.6-.22-1.78,.04-1.99,.88,1.99,.67,2.7-.19-.64-.33-.79-.46-.93Zm10.12-79.84c.27,.17-.32,2.35-.76,3.57-.2-.13,.1-2.54,.76-3.57Z"/><path class="cls-2" d="M466.7,95.29c-.5-.33,.69,.93,.05,.46,4.02,3.32,6.35,7.57,9.75,11.28-1.12-1.72-2.34-3.4-3.61-5.05-.64-.82-1.28-1.65-1.93-2.48-.65-.82-1.37-1.59-2.05-2.39-.4-.29,.07,.43,.26,.83-.8-.9-1.77-1.71-2.47-2.65Z"/><path class="cls-2" d="M192.55,37.94c1.29-.03,2.6-.72,3.93-.89-1.33,.14-2.62,.27-3.93,.89Z"/><path class="cls-2" d="M265.93,30.93c-1.07,.14-.88,.28-1.34,.42,.67,.09,1.41-.14,2.13-.24,.08,.11,.19,.23,.74,.34,1.09-.32-.48-.34-1.53-.52Z"/><path class="cls-2" d="M205.37,21.26c-1.73,.3,2.64-.25,2.46,.23,.75-.29,.32-.44,.49-.66-1.83-.05-1.12,.48-2.94,.43Z"/><path class="cls-2" d="M232.2,24.13c-1.01,.22-1.04,.4-.09,.51,.04-.23,1.05-.37,2.12-.37,.9-.28-1.57-.05-2.04-.14Z"/><path class="cls-2" d="M227.56,22.34c-.14-.13,.58-.31-.35-.41-1.14,.23-1.6,.43-1.76,.61,.81,.11,1.71-.32,2.51-.14,.41-.13-.17-.12-.41-.06Z"/><path class="cls-2" d="M284.5,34.27c1.32,.5,1.05-.13,1.68-.2,1.18-.1,.06,.27,1.48,.47,2.26-.28,4.35-.07,6.38,.47,.43-.11,.52-.27,.95-.38-.91,.03-2.28-.15-3.79-.22-1.51-.11-3.14-.29-4.54-.55-1,.3-2.06,.13-2.16,.41Z"/><path class="cls-2" d="M223.71,20.51l6.81-.49c2.11-.16,4.21-.4,6.73-.71-.6-.14-1.79-.02-1.21-.22-1.83-.1-1.11,.17-2.99,.39,.4-.45-6.32,.26-4.55-.18-1.02-.26-3.91,.72-4.78,1.2Z"/><path class="cls-2" d="M304.3,39.48c1.05,.54,5.52,1.34,8.05,1.61l-8.05-1.61Z"/><path class="cls-2" d="M166.9,15.51c.05,.31-1.46,.59-2.6,1.32,2.82-.68,2.68-.95,3.91-1.45,.45-.31-.73,.14-1.32,.13Z"/><path class="cls-2" d="M234.63,19.91c1.55-.15,3.06,.02,4.67-.4-1.46-.34-3.11,.26-4.67,.4Z"/><path class="cls-2" d="M300.88,34.42c-1.15-.01,.09,.3-.55,.35,.87,.27,1.86,.2,2.8,.3,.81-.15-1.83-.13-2.25-.65Z"/><path class="cls-2" d="M211.53,11.83c.42-.13-.17-.15-.4-.21,.9-.36,1.73-.21,2.64-.6-1.71,0-3.42,.07-5.21,.72,1.65,0,2.26-.3,2.97,.08Z"/><path class="cls-2" d="M258.39,14.68c2.22-.23,1.84,.19,4.18,.18,1.07-.4,.87-.4,1.85-.67-1.92,.22-5.43,.17-6.03,.49Z"/><path class="cls-2" d="M343.85,46.47c-.52-.51,2.05,.56,1.77,.08-.74-.52-1.89-.38-2.57-.99,.16,.43-1.96-.13-.55,.89,1.09,.2,2.14,.45,3.08,.9,.9,.08-1.35-.61-1.73-.87Z"/><path class="cls-2" d="M350.35,49.23c1.55,.93,3.63,1.08,5.02,2.23,1.36,.2-.89-.6-.11-.51-1.65-.56-3.21-1.25-4.91-1.72Z"/><path class="cls-2" d="M358.29,52c-.61-.4-.15-.37-.85-.8-2.22-.66-4.26-1.56-6.21-2.61-.02,.76,3.83,1.71,5.07,2.88,1.49,.13,2.55,.85,3.53,1.7,2.2,.88,2.3,.7,4.32,1.35-.67-.4-1.39-.74-2.05-1.14-1.08-.35,0,.31-.62,.18-.39-.13-.72-.34-1.13-.43-.31-.33,1.03,.1-.41-.76-.96-.42-1.39-.52-1.65-.37Z"/><path class="cls-2" d="M256.13,.49c-.44,.12,.16,.13,.41,.08,.62,.11,1.23,.23,.78,.34,.69,.09,1.46-.14,2.21-.25-1.12-.13-2.26-.11-3.39-.17Z"/><path class="cls-2" d="M298.44,4.85c-.81,.11,5.57,1.42,7.94,1.26-.62-.16-3.55-.25-2.6-.53-1.7-.44-3.73-.06-5.34-.73Z"/><path class="cls-2" d="M320.44,9.77c1.76,.52,2.31,1.34,5.06,1.53-.21-.74-4.74-1.24-3.95-1.82-2.04-.26,.93,.52-1.11,.29Z"/><path class="cls-2" d="M392.58,51.4c-1.01-.19,1.3,.92,1.65,1.26,.79,.32,.58-.08,1.28,.46,.42,.18,.28,.03,.12-.13l-.61-.55c.31,.33-2.21-.57-1.28-.45-.64-.49-.49-.03-1.16-.58Z"/><path class="cls-2" d="M367.99,25.59c-.09,.14,.77,.53,1.8,1.01,1.02,.5,2.21,1.06,2.86,1.43-.76,.2,2.3,2.01,3.37,2.68,.2-.44-.63-1.35-1.08-2.09-.82,.56-2.48-1.29-5.19-2.5-.27,.11-.75,.01-1.75-.53Z"/><path class="cls-2" d="M380.27,32.96c.31,.54,4.3,2.46,6.03,3.53,1.38,.37-2.63-1.55-1.22-1.21-.77-.28-3.2-1.19-4.81-2.32Z"/><path class="cls-2" d="M377.14,30.01c-1.76-.57,0,.33,.69,.51,.61,.44,.56,.57,.13,.53,.61,.37,1.35,.61,1.95,1-.65-.45-.83-1.2,1.36,.38,.51,.11-.46-.58-.91-.92-1.21-.34-2.28-.84-3.22-1.5Z"/><path class="cls-2" d="M396.84,40.9c-.58-.43-1.29-.74-1.86-1.19-1.59-.7,.04,.48-1.56-.23,1.26,.7,1.42,.55,3.42,1.41Z"/><path class="cls-2" d="M416.17,48.76c-.37,.14-.56-.32-1.74-.8,1.28,1.09-1.13-.29,.65,1.17,.42,.2,.86,.41,1.28,.62-.52-.65-.97-1.28,.99,.29,1.03,.45-1.1-.83-1.19-1.28Z"/><path class="cls-2" d="M437.07,72.87c-.77-.82-.34,0,.25,.34,.08,.29-.38,.12-1.08-.28,.98,1,2.87,1.87,1.88,.76-.42-.22-.77-.5-1.05-.82Z"/><path class="cls-2" d="M461.5,114.57c.27,.48,.44,.51,.34,.3,1.03,.88,1.13,2.18,2.38,2.95-.45-1.28-1.61-2.26-2.4-3.4-.32-.23,.12,.53-.32,.14Z"/><path class="cls-2" d="M453.38,79.27c-.98-1.44-2.28-2.69-3.72-3.85,1.09,1.72,2.72,3.1,3.9,4.75,1.2,.36,3.01,2.8,4.76,4.31-.34-.29-4.13-5.18-4.95-5.21Z"/><path class="cls-2" d="M456.87,83.79c1.58,1.78,3.59,3.31,4.9,5.23,1.19-.19,4.4,5.46,6.94,7.7,.15-.04-.36-.86,.1-.53-1.33-1.45-2.99-2.73-3.7-4.49-1.08-.99-1.98-2.1-2.95-3.14-.95-1.05-1.87-2.12-2.84-3.16-.45-.27,.26,.69,.54,1.2-1.07-.91-1.71-2.04-2.99-2.82Z"/><path class="cls-2" d="M455.22,79.18c-.34,.96,6.76,8.38,8.53,9.77-2.78-3.13-7.33-7.36-8.53-9.77Z"/><path class="cls-2" d="M476.38,105.2c.98,1.48,2.09,2.88,3.08,4.36,.36-.19-2.06-3.21-3.08-4.36Z"/><path class="cls-2" d="M489.78,125.27c.57,1.27,1.81,3.28,3.06,5.52,1.23,2.25,2.61,4.65,3.72,6.52-.45-1.77-1.91-3.25-1.69-4.05-.79-.09-1.65-3.24-3.03-4.56-.67-1.51,1.27,.89-.13-1.32,0,.84-.77-.2-1.93-2.12Z"/><path class="cls-2" d="M490.13,124.24c-.44,.17,1.99,3.31,2.7,4.63,.82,.7-.81-1.48-.77-2.04-1.17-1.2-1.03-.8-1.93-2.59Z"/><path class="cls-2" d="M497,138.1c1.33,2.78,2.61,5.62,4.09,8.39,.37-1.55-2.41-5.93-4.09-8.39Z"/><path class="cls-2" d="M515.43,182.45c.33,1.26,.85,2.49,1.61,4.65-.05-.43-.1-.85-.15-1.28-.79-1.11-.77-2.26-1.46-3.37Z"/><path class="cls-2" d="M523.44,206.97l-1.11-2.63c.36,2.24,1.07,2.24,1.32,4.81,.43,.92-.23-1.66-.22-2.18Z"/><path class="cls-2" d="M527.38,232.5c-.72,.69,.75,2.68,.14,4.82,.13,.14,.26,.29,.45,.94,.17-1.87-.42-3.84-.59-5.76Z"/><path class="cls-2" d="M529.19,274.87c.14-1.13-.21-.29-.1,.41-.23,.74-.38-.41-.57-.62-.09,1.47,.26,3.08-.16,4.44,.67,2.05-.06,4.3-.15,6.79,0,2.05,.42-.98,.42,1.06-.01-2.59,.55-5.01,.39-7.64,.19-.81,.3-.31,.48-1.21-.27-.03-.36-2.01-.31-3.24Z"/><path class="cls-2" d="M515.82,345.94c-1.11,2.03-1.16,4.75-2.34,6.72-.03,.52,.49-.54,.8-1.01,.19-2.13,1.36-3.6,1.54-5.71Z"/><path class="cls-2" d="M497.6,389.06c-.2-.16-3.11,4.67-2.96,4.95,1-1.63,1.88-3.4,2.96-4.95Z"/><path class="cls-2" d="M471.8,424.56c-.27,.7-.02,.75-.12,1.24,.81-.83,1.48-1.85,2.11-2.9-.73,.46-1.1,1.39-1.66,2.07-.62,.5,1.65-2.35-.32-.41Z"/><path class="cls-2" d="M331.73,516.86c.25-.53-3.14,.58-4.31,.61-.45,.16-.24,.17,0,.17,.28,0,.56-.01,.86-.02,1.16-.52,2.31-.48,3.46-.77Z"/><path class="cls-2" d="M193.15,480.9c-1.03-.39-2.08-.73-3.13-1.09-1.04-.38-2.05-.82-3.04-1.29-1.11,.1-3.69-1.19-5.57-1.96-.27-.02-.1,.14-.51,.07,.34,.2,.13,.18-.1,.14,2.1,.64,4.12,1.4,6.14,2.16,1.01,.37,2.01,.78,3.05,1.1,1.04,.31,2.09,.6,3.16,.86Z"/><path class="cls-2" d="M89.1,457.57c-1.9-1.5,.02,.64-1.89-.86,.28,.34,.65,.62,.9,.98l.8,.53c-1.54-1.74,1.72,1.09,.19-.64Z"/><path class="cls-2" d="M75.29,443.11c-1.3-2.07-.39,.56-1.91-1.41-.83-.44,1.1,1.63,1.84,1.95-.59-.83-.64-1.08,.08-.54Z"/></g></g></svg>