<?xml version="1.0" encoding="UTF-8"?><svg id="_イヤー_2" xmlns="http://www.w3.org/2000/svg" xmlns:xlink="http://www.w3.org/1999/xlink" viewBox="0 0 626.49 381.11"><defs><style>.cls-1{stroke-width:.19px;}.cls-1,.cls-2,.cls-3,.cls-4,.cls-5,.cls-6,.cls-7,.cls-8,.cls-9,.cls-10,.cls-11,.cls-12,.cls-13,.cls-14,.cls-15,.cls-16,.cls-17,.cls-18,.cls-19,.cls-20,.cls-21,.cls-22,.cls-23,.cls-24,.cls-25,.cls-26,.cls-27,.cls-28,.cls-29,.cls-30,.cls-31,.cls-32,.cls-33{fill:#ff473f;stroke:#ff473f;stroke-miterlimit:10;}.cls-2{stroke-width:.18px;}.cls-34{fill:#740a00;}.cls-35{fill:url(#_称未設定グラデーション_314);}.cls-3{stroke-width:.09px;}.cls-4{stroke-width:.13px;}.cls-5{stroke-width:.2px;}.cls-6{stroke-width:.21px;}.cls-7{stroke-width:.17px;}.cls-8{stroke-width:.13px;}.cls-9{stroke-width:.2px;}.cls-10{stroke-width:.1px;}.cls-11{stroke-width:.14px;}.cls-36{opacity:.2;}.cls-12{stroke-width:.21px;}.cls-13{stroke-width:.16px;}.cls-14{stroke-width:.14px;}.cls-15{stroke-width:.1px;}.cls-16{stroke-width:.2px;}.cls-17{stroke-width:.06px;}.cls-18{stroke-width:.12px;}.cls-19{stroke-width:.1px;}.cls-20{stroke-width:.31px;}.cls-21{stroke-width:.23px;}.cls-22{stroke-width:.37px;}.cls-23{stroke-width:.17px;}.cls-24{stroke-width:.16px;}.cls-37{opacity:.19;}.cls-25{stroke-width:.05px;}.cls-26{stroke-width:.3px;}.cls-27{stroke-width:.15px;}.cls-28{stroke-width:.23px;}.cls-29{stroke-width:.11px;}.cls-30{stroke-width:.17px;}.cls-31{stroke-width:.14px;}.cls-32{stroke-width:.23px;}.cls-33{stroke-width:.11px;}.cls-38{fill:url(#_称未設定グラデーション_311);}</style><linearGradient id="_称未設定グラデーション_314" x1="571.05" y1="239.44" x2="618.82" y2="244.45" gradientTransform="matrix(1, 0, 0, 1, 0, 0)" gradientUnits="userSpaceOnUse"><stop offset=".08" stop-color="#fff"/><stop offset=".27" stop-color="#c00a00"/><stop offset=".52" stop-color="#b50f00"/><stop offset=".57" stop-color="#ac1200"/><stop offset=".67" stop-color="#a11600"/><stop offset=".78" stop-color="#9e1800"/><stop offset=".81" stop-color="#901300"/><stop offset=".86" stop-color="#800e00"/><stop offset=".92" stop-color="#760a00"/><stop offset="1" stop-color="#740a00"/></linearGradient><linearGradient id="_称未設定グラデーション_311" x1="5.98" y1="220.39" x2="26.57" y2="220.39" gradientTransform="matrix(1, 0, 0, 1, 0, 0)" gradientUnits="userSpaceOnUse"><stop offset="0" stop-color="#fff"/><stop offset=".14" stop-color="#c00a00"/><stop offset=".63" stop-color="#b50f00"/><stop offset=".65" stop-color="#ae0e00"/><stop offset=".72" stop-color="#940c00"/><stop offset=".8" stop-color="#820b00"/><stop offset=".89" stop-color="#770a00"/><stop offset=".98" stop-color="#740a00"/></linearGradient></defs><g id="_イヤー_1-2"><g><g><path class="cls-34" d="M312.2,380.6c-86.35,0-174.93-39.04-263.27-116.05-9.68-8.44-18.72-15.47-25.98-21.11C9.43,232.92,.49,225.97,.51,220.41c.01-3.32,5.11-7.92,12.17-14.27,8.49-7.64,20.12-18.11,31.12-33.37,21.93-30.41,56.07-75.02,99.13-111.07C191.43,21.1,240.65,.51,289.23,.51c7.15,0,14.39,.45,21.52,1.33,47.32,0,96.79,18.42,147.11,54.74,48.66,35.13,87.65,79.54,111.79,110.61,36.07,46.43,57.63,86.95,56.29,93.77-5.09,5.24-15.37,5.67-27.29,5.67h0c-1.34,0-2.7,0-4.08-.01-1.42,0-2.86-.01-4.3-.01-20.82,0-42.16,1.5-54.31,19.48-23.73,29.1-36.14,38.59-78.1,59.66-42.14,21.17-99.31,34.85-145.64,34.85Z"/><path class="cls-34" d="M289.23,1.02c7.12,0,14.34,.45,21.46,1.33h.13c47.15,0,96.52,18.39,146.75,54.66,48.62,35.1,87.57,79.47,111.69,110.51,36.86,47.45,57.05,86.77,56.21,93.2-4.99,4.99-15.1,5.4-26.82,5.4-1.34,0-2.7,0-4.08-.01-1.42,0-2.85-.01-4.3-.01-20.94,0-42.41,1.52-54.71,19.66-23.68,29.04-36.07,38.5-77.93,59.53-42.08,21.14-99.15,34.8-145.41,34.8-50.25,0-101.94-13.51-153.66-40.16-36.29-18.7-73.06-44.19-109.28-75.76-9.69-8.45-18.74-15.48-26-21.13-13.41-10.43-22.27-17.32-22.25-22.62,.01-3.1,5.04-7.63,12.01-13.9,8.51-7.66,20.16-18.15,31.19-33.45,21.92-30.39,56.03-74.96,99.05-110.98C191.67,21.57,240.78,1.02,289.23,1.02m0-1.02C178.09,0,91.33,105.99,43.39,172.47,22.85,200.95,.03,212.78,0,220.41c-.03,8.93,20.96,20.44,48.6,44.53,54.5,47.5,149.58,116.17,263.6,116.17,46.47,0,103.21-13.48,145.87-34.9,41.32-20.75,54.01-30.04,78.3-59.83,12.24-18.1,34.28-19.25,53.89-19.25,2.86,0,5.67,.02,8.39,.02,12.21,0,22.61-.49,27.76-5.93C630.66,244.54,482.66,1.33,310.81,1.33c-7.29-.9-14.49-1.33-21.59-1.33h0Z"/></g><g><path d="M312.2,376.22c-84.64,0-171.46-38.27-258.05-113.75-9.49-8.27-18.35-15.16-25.47-20.7-13.26-10.31-22.02-17.13-22-22.57,.01-3.26,5.01-7.76,11.93-13.99,8.32-7.49,19.72-17.75,30.5-32.71,21.5-29.81,54.96-73.53,97.17-108.87C193.82,23.84,242.06,3.66,289.68,3.66c7,0,14.1,.44,21.1,1.3,46.38,0,94.88,18.06,144.2,53.66,47.7,34.44,85.92,77.97,109.58,108.42,35.35,45.51,56.48,85.22,55.17,91.9-4.99,5.14-15.07,5.56-26.75,5.56h0c-1.31,0-2.65,0-4-.01-1.39,0-2.8-.01-4.22-.01-20.41,0-41.33,1.47-53.24,19.09-23.26,28.52-35.42,37.82-76.55,58.48-41.31,20.75-97.34,34.16-142.75,34.16Z"/><path d="M289.68,4.16c6.98,0,14.06,.44,21.03,1.3h.12c46.22,0,94.61,18.03,143.85,53.57,47.65,34.4,85.84,77.9,109.47,108.33,36.13,46.51,55.92,85.05,55.09,91.36-4.89,4.89-14.81,5.29-26.29,5.29-1.31,0-2.65,0-4-.01-1.39,0-2.8-.01-4.22-.01-20.53,0-41.57,1.49-53.62,19.28-23.21,28.46-35.36,37.74-76.39,58.35-41.24,20.72-97.19,34.11-142.53,34.11-49.25,0-99.93-13.24-150.61-39.36-35.58-18.33-71.61-43.32-107.11-74.26-9.5-8.28-18.37-15.18-25.49-20.72-13.14-10.22-21.83-16.98-21.81-22.18,.01-3.04,4.94-7.48,11.77-13.62,8.34-7.51,19.76-17.79,30.58-32.79,21.48-29.79,54.92-73.48,97.09-108.78C194.05,24.3,242.18,4.16,289.68,4.16m0-1C180.74,3.16,95.7,107.05,48.71,172.21c-20.13,27.92-42.5,39.52-42.53,46.99-.03,8.76,20.55,20.03,47.64,43.65,53.42,46.56,146.62,113.87,258.38,113.87,45.55,0,101.17-13.21,142.98-34.21,40.5-20.34,52.94-29.45,76.74-58.65,11.99-17.74,33.6-18.87,52.82-18.87,2.8,0,5.56,.02,8.22,.02,11.97,0,22.17-.48,27.21-5.81,4.17-16.34-140.89-254.73-309.34-254.73-7.14-.88-14.2-1.31-21.16-1.31h0Z"/></g><path class="cls-35" d="M576.63,265.08c18.76-.67,37.02,1.83,44.37-5.92,.97-3.81-6.17-19.7-19.84-41.83,7.85,35.13-41.19,48.35-24.53,47.75Z"/><path class="cls-38" d="M23.43,199.93c-10.07,9.29-17.43,14.93-17.45,19.22-.02,5.46,7.98,11.9,20.57,21.71,.52,.06-9.57-19.66-3.13-40.93Z"/><g class="cls-36"><path class="cls-28" d="M296.11,86.09c-3.08-3.53-6.65-6.65-9.4-10.47-1.35-1.9-2.51-4-2.99-6.29-.47-2.28-.26-4.7,.63-6.86,.88-2.16,2.25-4.1,3.76-5.87,1.53-1.77,3.21-3.41,4.9-5.04l2.51-2.47,1.22-1.28c.43-.48,.6-1.09,.72-1.68,.38-2.37-.21-4.76,.29-7,.21-1.15,1.19-1.82,2.31-2.1,1.1-.32,2.27-.47,3.43-.65,1.16-.2,2.35-.38,3.46-.94,.54-.3,1.05-.8,1.23-1.43,.23-.62,.09-1.29-.09-1.87-.44-1.17-1.22-2.1-1.98-3-.77-.89-1.59-1.74-2.31-2.64-.7-.9-1.4-1.86-1.48-2.96-.11-1.11,.07-2.27,.26-3.42,.2-1.15,.43-2.31,.53-3.51,.08-1.16,.1-2.53-.8-3.58-.44-.49-1.04-.83-1.65-.96-.61-.17-1.23-.19-1.83-.2-1.21,.02-2.38,.19-3.54,.32-1.16,.13-2.32,.25-3.42,.11-1.12-.11-1.98-.75-2.58-1.71-1.23-1.9-1.79-4.24-3.08-6.31l-.22-.28c-.12-.17-.33-.37-.54-.56-.43-.39-.97-.61-1.03-.48-.05,.1,.33,.46,.61,.88,.14,.21,.29,.41,.37,.59l.16,.28c1.22,1.91,1.8,4.25,3.13,6.3,.35,.5,.75,1,1.3,1.37,.53,.39,1.19,.55,1.79,.64,1.24,.14,2.43,0,3.6-.13,1.17-.14,2.33-.31,3.47-.34,1.11,0,2.32,.14,3,.93,.7,.77,.74,1.99,.66,3.11-.08,1.14-.31,2.29-.5,3.46-.18,1.16-.37,2.35-.24,3.58,.01,.31,.12,.61,.19,.92,.13,.28,.23,.59,.39,.84,.29,.54,.66,1.01,1.03,1.48,.75,.92,1.58,1.76,2.34,2.64,.76,.87,1.51,1.79,1.91,2.83,.16,.52,.28,1.07,.09,1.58-.14,.5-.51,.89-1,1.16-.99,.51-2.16,.71-3.3,.91-1.15,.19-2.33,.35-3.48,.69-.57,.18-1.15,.39-1.64,.81-.49,.4-.81,1-.93,1.6-.5,2.39,.11,4.76-.25,7.04-.11,.55-.27,1.11-.63,1.52l-1.2,1.28-2.49,2.49c-1.67,1.65-3.35,3.3-4.88,5.09-1.51,1.8-2.88,3.76-3.76,5.96-.88,2.2-1.08,4.65-.59,6.96,.5,2.32,1.69,4.41,3.05,6.32,2.78,3.81,6.37,6.9,9.48,10.41Z"/></g><g class="cls-36"><path class="cls-19" d="M306.26,73.25c-.9,.45-1.52,1.28-2.21,1.98-.34,.36-.68,.73-1.04,1.07-.37,.3-.76,.72-1.25,.71-.24,0-.45-.23-.42-.48,.03-.24,.15-.47,.28-.67,.27-.42,.6-.79,.93-1.16,.67-.74,1.38-1.43,2.03-2.2,.3-.39,.67-.78,.71-1.32-.08-.55-.53-.87-.89-1.2-.78-.63-1.63-1.15-2.45-1.72-.41-.28-.81-.57-1.18-.9-.18-.16-.35-.34-.48-.55-.12-.2-.17-.44-.03-.62,.3-.35,.81-.49,1.27-.63,.48-.13,.96-.23,1.45-.33,.97-.2,1.96-.35,2.93-.64,.24-.08,.48-.17,.71-.29,.21-.12,.48-.32,.5-.62,.07-.53-.13-1.05-.4-1.48-.61-.83-1.46-1.41-2.29-1.96-.84-.55-1.7-1.04-2.53-1.59-.8-.56-1.67-1.13-2.1-1.98-.43-.86-.56-1.86-.68-2.84-.11-.98-.18-1.98-.33-2.97-.16-.98-.34-2.02-.99-2.87,.01,0-.18-.17-.38-.3-.2-.14-.46-.16-.47-.12-.03,.06,.18,.16,.32,.32,.14,.16,.29,.31,.27,.32,.58,.74,.78,1.74,.94,2.7,.15,.98,.22,1.97,.35,2.96,.13,.99,.26,2,.73,2.93,.5,.94,1.39,1.5,2.2,2.06,.84,.55,1.7,1.04,2.54,1.57,.83,.54,1.66,1.11,2.24,1.88,.26,.4,.44,.86,.38,1.33-.06,.42-.64,.61-1.07,.77-.94,.3-1.93,.45-2.9,.66-.49,.1-.98,.2-1.46,.34-.47,.15-.99,.28-1.35,.7-.19,.23-.11,.57,.02,.78,.14,.22,.32,.4,.51,.57,.38,.34,.78,.63,1.2,.91,.82,.56,1.68,1.08,2.45,1.7,.36,.31,.8,.65,.87,1.12-.03,.47-.39,.88-.68,1.27-.63,.77-1.34,1.47-2.01,2.21-.33,.37-.66,.75-.93,1.17-.13,.21-.25,.44-.28,.7-.03,.27,.2,.52,.46,.52,.26,.02,.49-.12,.7-.25,.21-.14,.39-.31,.58-.47,.36-.34,.7-.71,1.04-1.07,.69-.71,1.29-1.55,2.19-2Z"/></g><g class="cls-36"><path class="cls-17" d="M269.8,88.97c.33-.04,.63-.24,.79-.53,.18-.28,.28-.6,.37-.92,.16-.64,.25-1.3,.33-1.95,.08-.66,.14-1.31,.24-1.97,.1-.65,.21-1.31,.5-1.9,.29-.62,1.01-.8,1.64-.89,.65-.09,1.31-.1,1.97-.11,1.31-.05,2.67,.09,3.94-.39,.29-.15,.62-.38,.65-.75,.05-.35-.08-.68-.22-.98-.29-.6-.68-1.15-1.07-1.68-.75-1.07-1.68-2.08-2.12-3.3-.07-.29-.13-.64,.13-.84,.22-.2,.53-.32,.85-.38,.63-.14,1.29-.19,1.95-.22,1.31-.1,2.65,0,3.96-.46,0,0,.14-.08,.26-.18,.14-.09,.19-.27,.16-.28-.03,0-.5,.28-.52,.26-1.2,.44-2.57,.37-3.88,.47-.66,.04-1.33,.09-1.98,.24-.32,.08-.66,.19-.93,.44-.31,.26-.24,.7-.16,1.01,.48,1.28,1.41,2.26,2.17,3.33,.39,.53,.78,1.07,1.07,1.65,.14,.29,.26,.61,.22,.91-.02,.32-.31,.53-.59,.67-1.22,.47-2.59,.35-3.9,.4-.66,.01-1.32,.03-1.98,.13-.63,.09-1.38,.29-1.68,.93-.29,.6-.39,1.27-.49,1.92-.09,.66-.15,1.31-.22,1.97-.08,.66-.15,1.31-.31,1.95-.09,.32-.19,.64-.36,.92-.16,.29-.45,.49-.78,.53Z"/></g><g class="cls-36"><path class="cls-13" d="M380.63,82.94c-.6-.62-1.47-.84-2.28-1.04-.83-.19-1.67-.32-2.5-.48-.83-.16-1.67-.33-2.43-.7-.37-.18-.74-.44-.89-.83-.18-.37-.11-.83,.1-1.19,.39-.74,1.05-1.31,1.69-1.86l1.96-1.62c.63-.56,1.29-1.13,1.67-1.92,.33-.84,.05-1.74-.25-2.51-.64-1.58-1.59-3.01-2.17-4.59-.27-.77-.47-1.68,0-2.36,.5-.64,1.38-.85,2.19-.98,1.67-.24,3.37-.14,5.07-.39,.42-.07,.85-.17,1.26-.33,.39-.18,.8-.45,1.04-.8,.56-.65,1.05-1.35,1.51-2.07,1.81-2.91,2.96-6.13,4.33-9.22,1.35-3.07,2.95-6.17,5.58-8.26,2.63-2.09,5.95-3.06,9.2-3.93,3.26-.88,6.63-1.58,9.72-3.13,.02,.03,1.33-.84,1.22-1-.1-.15-1.46,.53-1.48,.5-2.98,1.53-6.32,2.26-9.59,3.16-3.25,.89-6.63,1.89-9.34,4.07-2.71,2.19-4.3,5.36-5.64,8.45-1.35,3.11-2.48,6.33-4.24,9.21-.93,1.36-1.8,3.04-3.61,3.1-1.66,.26-3.37,.17-5.06,.43-.82,.14-1.75,.34-2.32,1.08-.52,.78-.28,1.75,0,2.53,.6,1.61,1.57,3.02,2.21,4.58,.31,.77,.57,1.64,.27,2.41-.35,.75-1.01,1.33-1.63,1.89l-1.95,1.63c-.63,.56-1.29,1.13-1.69,1.9-.21,.37-.28,.85-.09,1.24,.16,.41,.55,.67,.93,.85,.77,.37,1.62,.53,2.45,.69,.83,.15,1.67,.28,2.5,.46,.81,.2,1.68,.41,2.28,1.03Z"/></g><g class="cls-36"><path class="cls-33" d="M343.22,76.31c.31,.01,.52-.26,.67-.5,.15-.25,.25-.53,.35-.8,.19-.55,.32-1.12,.46-1.68,.3-1.12,.46-2.31,1.05-3.31,.08-.12,.18-.22,.3-.29,.13-.06,.27-.08,.41-.07,.29,.02,.57,.11,.84,.2,.54,.2,1.06,.47,1.58,.73,1.04,.51,2.04,1.14,3.19,1.44,.28,.05,.62,.1,.88-.12,.23-.24,.21-.59,.17-.87-.1-.59-.33-1.13-.55-1.67-.45-1.07-.99-2.11-1.36-3.21-.09-.27-.16-.55-.19-.83-.03-.27,.02-.57,.27-.68,.49-.21,1.11-.06,1.66,.04,1.13,.25,2.23,.63,3.38,.89,.57,.11,1.16,.27,1.78,.08,.33-.15,.45-.42,.67-.63,.2-.22,.36-.47,.53-.7,.67-.97,1.21-2,1.75-3.03,.54-1.03,1.07-2.07,1.69-3.04,.62-.97,1.34-1.9,2.3-2.5,.95-.63,2.17-.71,3.22-.33,1.07,.37,1.99,1.1,2.84,1.87,1.7,1.56,3.12,3.44,4.96,4.93,0,0,.22,.16,.45,.29,.24,.12,.49,.23,.53,.17,.03-.06-.16-.24-.36-.41l-.38-.36c-1.8-1.43-3.24-3.3-4.97-4.87-.87-.78-1.82-1.53-2.96-1.92-1.13-.4-2.47-.3-3.47,.39-1.02,.65-1.75,1.62-2.37,2.61-.62,.99-1.15,2.04-1.68,3.07-.53,1.03-1.07,2.07-1.72,3.02-.17,.23-.33,.48-.52,.69-.2,.2-.36,.49-.58,.57-.51,.16-1.11,.03-1.67-.08-1.13-.25-2.24-.62-3.38-.86-.57-.09-1.17-.26-1.77-.01-.32,.16-.38,.55-.34,.83,.03,.3,.11,.59,.2,.87,.39,1.11,.93,2.14,1.39,3.21,.23,.53,.45,1.07,.55,1.64,.05,.27,.06,.59-.13,.78-.2,.19-.51,.16-.79,.1-1.12-.28-2.13-.9-3.17-1.41-.52-.26-1.04-.52-1.59-.72-.28-.1-.56-.18-.85-.2-.15,0-.3,.01-.44,.08-.13,.08-.23,.19-.32,.31-.6,1.02-.75,2.21-1.04,3.33-.13,.57-.27,1.13-.45,1.69-.09,.28-.19,.55-.34,.8-.14,.24-.35,.51-.66,.5Z"/></g><g class="cls-36"><path class="cls-20" d="M450.36,227.24c2.52,2,5.45,3.43,8.49,4.45,3.05,1.02,6.21,1.67,9.38,2.18,6.34,1.02,12.76,1.6,18.92,3.44,6.17,1.73,12.23,3.98,18.64,4.89,3.19,.44,6.47,.47,9.65-.17,1.61-.23,3.16-1.02,4.43-2.02,1.29-1,2.41-2.18,3.52-3.34,1.11-1.16,2.2-2.34,3.4-3.36,1.2-1.02,2.55-1.88,4.06-2.22,1.51-.36,3.11-.21,4.65,.08,1.56,.29,3.09,.74,4.65,1.15,1.55,.41,3.13,.81,4.77,.96,.41,.03,.82,.04,1.24,.05,.41-.03,.84-.03,1.24-.09,.8-.1,1.6-.2,2.4-.34,3.19-.51,6.32-1.22,9.47-1.72,3.15-.49,6.34-.8,9.46-.37,3.11,.42,6.06,1.75,8.36,3.88,2.32,2.11,4.09,4.79,5.63,7.56,1.55,2.78,2.9,5.69,4.4,8.55,0,0,.39,.63,.81,1.23,.43,.6,.92,1.17,1.07,1.08,.16-.09-.1-.79-.37-1.47-.26-.68-.56-1.34-.56-1.34-1.5-2.82-2.87-5.73-4.47-8.54-1.59-2.81-3.42-5.57-5.88-7.77-1.2-1.13-2.63-2.01-4.12-2.71-1.5-.72-3.12-1.08-4.74-1.33-3.26-.43-6.53-.08-9.71,.43-3.18,.53-6.31,1.26-9.46,1.79-1.59,.25-3.15,.56-4.7,.41-1.56-.13-3.11-.51-4.66-.91-1.55-.4-3.1-.84-4.7-1.13-1.59-.28-3.27-.43-4.9-.04-1.64,.38-3.07,1.32-4.29,2.37-1.24,1.06-2.33,2.26-3.42,3.42-1.1,1.17-2.2,2.33-3.44,3.31-1.24,.99-2.63,1.72-4.21,1.96-3.11,.65-6.34,.65-9.51,.23-6.35-.86-12.43-3.06-18.62-4.75-6.19-1.8-12.64-2.34-18.97-3.31-3.17-.49-6.33-1.11-9.38-2.11-3.04-1-5.98-2.4-8.51-4.38Z"/></g><g class="cls-36"><path class="cls-14" d="M454.54,211.16c2.55-1.38,2.98-4.88,5.5-6.23,.16-.08,.34-.03,.51-.06,.16,.07,.34,.07,.48,.19,.14,.1,.29,.2,.39,.34,.12,.12,.23,.26,.32,.41,.38,.59,.65,1.24,.91,1.9,.52,1.31,.89,2.69,1.66,3.9,.1,.15,.2,.3,.33,.42,.11,.14,.26,.25,.42,.34,.14,.12,.34,.12,.51,.19,.18,.02,.36,.03,.54,.02,.72-.06,1.4-.3,2.06-.55,1.32-.5,2.59-1.16,3.94-1.49,.66-.16,1.44-.18,1.87,.34,.43,.52,.49,1.27,.53,1.95,.06,1.4-.1,2.81-.07,4.23,.03,.71,.08,1.45,.45,2.11,.23,.33,.53,.52,.82,.74,.28,.23,.61,.38,.92,.56,1.27,.67,2.66,1.05,4.03,1.36,2.75,.64,5.61,.93,8.1,2.2,1.25,.62,2.24,1.63,2.9,2.84,.68,1.21,1.11,2.55,1.49,3.9,.77,2.69,1.2,5.56,2.7,8.06,0,0,.18,.27,.41,.52,.24,.23,.49,.45,.55,.39,.06-.05-.1-.34-.26-.6l-.29-.56c-1.45-2.36-1.91-5.21-2.7-7.92-.39-1.36-.84-2.73-1.55-3.98-.7-1.26-1.77-2.34-3.07-2.97-2.59-1.29-5.47-1.55-8.2-2.17-1.37-.3-2.74-.67-3.98-1.31-.3-.18-.62-.32-.89-.54-.28-.2-.57-.4-.76-.66-.33-.57-.4-1.3-.43-1.99-.04-1.4,.11-2.81,.04-4.23-.05-.7-.1-1.47-.59-2.06-.52-.61-1.4-.56-2.06-.39-1.39,.35-2.65,1.02-3.96,1.53-.65,.26-1.32,.5-2.01,.56-.17,0-.34,0-.51-.02-.15-.06-.34-.06-.47-.17-.15-.09-.29-.18-.39-.32-.13-.12-.23-.26-.32-.4-.76-1.18-1.15-2.56-1.67-3.87-.26-.66-.54-1.31-.93-1.91-.09-.15-.2-.29-.33-.42-.11-.14-.26-.25-.41-.35-.14-.12-.34-.13-.5-.19-.18,.02-.37-.02-.53,.06-2.57,1.4-2.94,4.89-5.49,6.28Z"/></g><g class="cls-36"><path class="cls-32" d="M284.37,314.4c.6,.04,1.18-.19,1.74-.39,.56-.21,1.11-.46,1.66-.69,.55-.23,1.11-.46,1.69-.61,.29-.06,.59-.14,.88-.08,.28,.04,.55,.28,.52,.58-1.17,2.1-4.21,2.31-5.45,4.47-.04,.63,.23,1.2,.47,1.75,.25,.55,.53,1.08,.81,1.61,.28,.53,.55,1.06,.78,1.61,.11,.27,.21,.56,.27,.84,.06,.28,.07,.59-.09,.8-.17,.21-.48,.21-.76,.15-.28-.07-.55-.19-.82-.31-.53-.27-1.04-.58-1.55-.9-1.02-.62-1.99-1.36-3.18-1.73-.29-.08-.68-.09-.94,.18-.23,.24-.35,.54-.45,.83-.19,.59-.28,1.18-.36,1.78-.18,1.18-.24,2.4-.61,3.52-.1,.27-.22,.54-.42,.69-.18,.17-.47,.11-.73,0-.52-.23-.99-.62-1.44-1-.91-.77-1.75-1.63-2.73-2.36-.25-.18-.5-.35-.8-.48-.28-.11-.67-.24-1.01,0-.31,.24-.37,.61-.41,.91-.03,.31-.02,.62,0,.93,.1,1.21,.36,2.39,.5,3.57,.06,.58,.12,1.2-.04,1.7-.15,.45-.85,.54-1.39,.62-1.17,.13-2.37,.08-3.58,.16-.6,.05-1.22,.07-1.84,.35-.15,.07-.31,.18-.43,.34-.13,.17-.15,.39-.13,.58,.07,.4,.34,.66,.59,.85,1.05,.73,2.22,1.05,3.33,1.49,.56,.21,1.11,.42,1.64,.68,.49,.26,1.07,.59,1.09,1.03,.03,.49-.21,1.07-.45,1.59-.25,.53-.53,1.06-.82,1.58-.28,.53-.58,1.05-.83,1.61-.24,.56-.52,1.13-.47,1.86-.01,.17,.13,.39,.21,.54l.3,.35c.2,.23,.39,.48,.6,.69,.44,.43,.87,.86,1.35,1.23,1.89,1.55,4.04,2.68,6.14,3.83,2.1,1.15,4.23,2.26,6.06,3.76,.93,.72,1.74,1.58,2.43,2.52,.7,.93,1.18,2.01,1.64,3.1,1.71,4.41,1.94,9.34,4.02,13.83,0,0,.07,.12,.18,.3,.11,.17,.27,.4,.43,.64,.33,.46,.75,.84,.84,.77,.12-.08-.13-.57-.33-1.07-.11-.26-.2-.5-.28-.68-.08-.18-.13-.31-.13-.31-2.03-4.26-2.31-9.19-4.09-13.74-.48-1.12-.99-2.25-1.74-3.23-.74-.99-1.6-1.89-2.57-2.63-1.91-1.53-4.07-2.64-6.18-3.78-2.1-1.14-4.24-2.24-6.07-3.73-.47-.36-.89-.77-1.31-1.18-.21-.2-.39-.44-.58-.66l-.29-.33c-.04-.11-.12-.16-.11-.29-.04-.47,.19-1.05,.42-1.58,.24-.54,.53-1.06,.81-1.59,.28-.53,.57-1.06,.82-1.62,.24-.56,.51-1.13,.48-1.85-.05-.39-.29-.71-.55-.9-.26-.21-.53-.36-.81-.5-.55-.27-1.12-.48-1.69-.69-1.11-.42-2.3-.76-3.23-1.4-.48-.32-.63-.85-.11-1.06,.48-.23,1.1-.27,1.68-.32,1.18-.08,2.39-.04,3.6-.18,.3-.04,.61-.09,.92-.2,.29-.09,.66-.31,.77-.67,.2-.65,.11-1.26,.05-1.87-.15-1.2-.42-2.38-.52-3.55-.04-.55-.08-1.26,.27-1.56,.17-.14,.45-.08,.71,.03,.26,.11,.5,.27,.74,.44,.95,.7,1.8,1.55,2.73,2.32,.47,.38,.94,.77,1.52,1.03,.27,.12,.69,.21,.98-.04,.28-.22,.41-.52,.51-.81,.37-1.18,.42-2.39,.59-3.57,.08-.59,.16-1.19,.34-1.74,.09-.28,.21-.55,.39-.74,.18-.2,.47-.2,.75-.13,1.12,.33,2.11,1.07,3.13,1.68,.51,.32,1.02,.63,1.57,.9,.27,.13,.55,.25,.86,.32,.29,.06,.68,.08,.91-.21,.21-.28,.17-.63,.11-.93-.07-.3-.17-.59-.29-.86-.24-.56-.52-1.09-.8-1.62-.28-.53-.56-1.06-.82-1.6-.24-.54-.51-1.11-.47-1.69,1.15-2.05,4.21-2.33,5.4-4.48,.03-.33-.27-.59-.57-.62-.3-.06-.61,.02-.9,.09-.58,.16-1.14,.39-1.69,.62-.55,.23-1.1,.48-1.66,.7-.56,.2-1.13,.44-1.74,.4Z"/></g><g class="cls-36"><path class="cls-15" d="M312.86,315.2c-.7,.81-.59,1.96-.55,2.96,.07,1.03,.24,2.05,.32,3.08,.03,.51,.07,1.03,.03,1.54-.04,.5-.13,1.04-.46,1.43-.32,.39-.84,.56-1.34,.62-.51,.05-1.02,.04-1.54,0-1.03-.09-2.04-.26-3.07-.38-.51-.05-1.03-.1-1.55-.08-.52,0-1.05,.1-1.52,.37-.11,.09-.23,.13-.32,.26-.08,.13-.09,.28-.09,.41,0,.27,.06,.53,.13,.78,.13,.5,.31,.99,.48,1.48,.35,.97,.75,1.93,1.01,2.91,.06,.25,.11,.5,.1,.74,0,.26-.16,.4-.38,.32-.45-.16-.83-.54-1.2-.88-.74-.71-1.42-1.49-2.17-2.21-.38-.35-.74-.73-1.28-.94-.13-.05-.33-.04-.44,0-.13,.05-.27,.06-.38,.13-.24,.11-.47,.25-.69,.4-.86,.61-1.57,1.36-2.33,2.06-.38,.35-.75,.7-1.16,1-.4,.31-.83,.59-1.3,.7-.47,.13-.94-.01-1.3-.34-.38-.31-.65-.76-.92-1.18-.53-.87-.96-1.81-1.43-2.73-.49-.91-.92-1.88-1.74-2.61-.01,.02-.18-.18-.45-.24-.24-.11-.51-.04-.5,.01,0,.06,.23,.08,.4,.22,.19,.08,.33,.29,.33,.27,.73,.63,1.19,1.6,1.67,2.49,.47,.91,.91,1.85,1.46,2.74,.29,.43,.57,.89,.99,1.24,.4,.37,1.02,.55,1.56,.39,.54-.13,.99-.44,1.4-.76,.42-.32,.79-.68,1.17-1.03,.75-.71,1.46-1.46,2.29-2.05,.21-.15,.42-.28,.65-.38,.22-.08,.47-.21,.66-.14,.44,.17,.82,.54,1.2,.88,.74,.71,1.43,1.48,2.18,2.19,.39,.34,.75,.73,1.29,.92,.13,.04,.32,.04,.45-.07,.13-.12,.16-.28,.16-.41,.01-.28-.05-.54-.11-.79-.27-1.01-.68-1.96-1.03-2.93-.18-.48-.36-.97-.49-1.46-.1-.46-.32-1.1,.22-1.3,.42-.25,.94-.35,1.45-.36,.51-.02,1.02,.02,1.54,.07,1.02,.11,2.04,.28,3.07,.35,.51,.04,1.04,.05,1.55,0,.51-.06,1.05-.24,1.38-.66,.34-.41,.43-.96,.46-1.47,.04-.52,0-1.03-.04-1.55-.09-1.03-.26-2.05-.34-3.07-.05-1-.16-2.14,.53-2.96Z"/></g><g class="cls-36"><path class="cls-11" d="M225.73,292.78c-.19,.7-.02,1.45,.31,2.08,.33,.64,.79,1.2,1.28,1.72,.98,1.05,2.09,1.97,3.11,2.97,1,.99,2.03,2.12,2.2,3.57,.2,1.42,.05,2.85-.04,4.28-.09,1.43-.2,2.89,.17,4.3,.2,.7,.62,1.37,1.26,1.74,.63,.38,1.38,.52,2.11,.51,1.45,0,2.87-.34,4.27-.61,1.4-.25,2.84-.56,4.22-.3,.68,.14,1.29,.51,1.76,1.02,.48,.51,.84,1.13,1.19,1.74,.67,1.26,1.19,2.59,1.86,3.88,.33,.64,.7,1.27,1.17,1.84,.45,.57,1.08,1.06,1.82,1.24,1.48,.36,2.94-.02,4.33-.33,1.4-.33,2.78-.74,4.18-.88,.69-.05,1.41-.07,2.04,.17,.63,.23,1.12,.72,1.43,1.32,.32,.6,.47,1.29,.57,1.99,.11,.7,.14,1.41,.17,2.12,.07,1.43,.06,2.88,.4,4.32-.06,.01,.49,1.27,.67,1.17,.1-.07-.26-1.26-.21-1.28-.33-1.36-.33-2.8-.41-4.23-.04-.72-.08-1.44-.19-2.16-.11-.72-.26-1.45-.63-2.12-.34-.67-.93-1.25-1.66-1.5-.73-.26-1.49-.23-2.21-.18-1.46,.16-2.84,.58-4.23,.91-1.37,.32-2.82,.68-4.16,.36-.67-.16-1.23-.59-1.67-1.13-.45-.53-.82-1.14-1.15-1.77-.66-1.26-1.2-2.6-1.89-3.87-.36-.63-.73-1.26-1.24-1.79-.5-.54-1.17-.94-1.9-1.08-1.46-.26-2.91,.06-4.31,.33-1.41,.28-2.81,.62-4.23,.63-.71,.01-1.42-.12-2.02-.47-.6-.35-1.01-.97-1.2-1.65-.37-1.37-.27-2.83-.19-4.25,.08-1.43,.22-2.87,.01-4.3-.19-1.48-1.24-2.61-2.25-3.6-1.03-1-2.14-1.91-3.13-2.95-.49-.52-.96-1.07-1.29-1.71-.34-.62-.51-1.37-.32-2.07Z"/></g><g class="cls-36"><path class="cls-16" d="M417.01,270.13c-.49,.29-.5,.94-.39,1.43,.11,.52,.33,1.01,.54,1.49,.45,.96,.97,1.88,1.41,2.84,.22,.48,.42,.98,.51,1.49,.09,.52-.11,1.03-.33,1.5-.48,.94-1.1,1.8-1.68,2.69-.29,.45-.58,.89-.82,1.36-.23,.47-.49,.96-.5,1.52,.03,.14,.03,.28,.08,.41,.08,.11,.12,.27,.24,.34,.21,.19,.49,.28,.76,.3,.55,.05,1.07-.1,1.58-.24,1.02-.3,2-.73,2.99-1.09,.5-.18,1-.35,1.51-.46,.5-.1,1.05-.18,1.49,.06,.42,.25,.68,.74,.86,1.22,.19,.49,.33,.99,.46,1.51,.26,1.02,.45,2.07,.8,3.08,.17,.5,.38,1.02,.78,1.43,.44,.42,1,.45,1.49,.64,1.01,.33,2.04,.59,3.06,.87,4.11,1.05,8.28,1.81,12.4,2.76,2.06,.48,4.11,.98,6.12,1.63,2.01,.63,3.99,1.37,5.87,2.31,.96,.44,1.85,1,2.76,1.52,.86,.6,1.76,1.15,2.55,1.85,1.65,1.3,3.1,2.83,4.43,4.46,5.32,6.57,8.45,14.57,12.97,21.77,0,0,1.15,1.56,1.34,1.43,.19-.13-.75-1.8-.75-1.8-4.53-7.09-7.72-15.1-13.16-21.73-1.35-1.64-2.85-3.19-4.53-4.51-.81-.7-1.73-1.26-2.6-1.86-.93-.53-1.84-1.09-2.81-1.52-1.91-.94-3.92-1.68-5.95-2.3-2.03-.64-4.09-1.13-6.16-1.6-4.14-.92-8.31-1.65-12.41-2.67-1.02-.27-2.05-.53-3.05-.85-.49-.18-1.07-.24-1.4-.57-.35-.35-.56-.84-.73-1.33-.35-.99-.54-2.03-.81-3.06-.13-.51-.28-1.03-.48-1.53-.19-.49-.45-1.01-.95-1.31-.52-.27-1.09-.17-1.61-.07-.52,.11-1.03,.3-1.52,.48-1,.37-1.96,.8-2.97,1.1-.5,.15-1.02,.29-1.54,.24-.51-.01-1-.39-.98-.92,0-.52,.25-1.01,.47-1.47,.24-.47,.53-.91,.81-1.36,.57-.89,1.19-1.76,1.67-2.71,.22-.47,.43-1.01,.33-1.54-.09-.53-.3-1.02-.52-1.5-.45-.96-.98-1.88-1.43-2.84-.21-.48-.44-.97-.55-1.48-.12-.49-.11-1.13,.38-1.43Z"/></g><g class="cls-36"><path class="cls-29" d="M378.69,287.16c.37,.45,1.01,.5,1.55,.43,.55-.07,1.09-.24,1.61-.43,1.05-.38,2.06-.86,3.1-1.25,.52-.2,1.05-.36,1.6-.46,.54-.1,1.13-.04,1.57,.3,.89,.65,1.49,1.64,2.11,2.55,.62,.92,1.19,1.89,1.97,2.71,.38,.4,.87,.79,1.46,.82,.56-.02,1.13-.05,1.67-.17,1.1-.2,2.17-.59,3.18-1.06,1.02-.45,2.01-.98,2.99-1.51,1.96-1.07,3.89-2.19,5.99-2.91,1.05-.35,2.14-.55,3.24-.56,1.1-.01,2.18,.27,3.23,.6,2.1,.7,4.05,1.79,6.05,2.8,1.99,.99,4.05,1.98,6.32,2.29,0,.03,1.04,0,1.03-.11,0-.13-.99-.23-.99-.26-2.18-.28-4.23-1.23-6.21-2.21-1.99-.99-3.96-2.07-6.1-2.77-1.07-.33-2.18-.61-3.32-.59-1.13,0-2.25,.23-3.32,.59-2.13,.74-4.06,1.89-6.01,2.96-.98,.54-1.95,1.07-2.97,1.53-1.01,.47-2.05,.86-3.14,1.07-.54,.13-1.1,.16-1.64,.18-.54-.03-1.01-.38-1.38-.77-.77-.79-1.35-1.76-1.98-2.68-.63-.91-1.23-1.89-2.15-2.56-.46-.34-1.07-.41-1.62-.3-.55,.1-1.09,.27-1.61,.47-1.04,.4-2.05,.88-3.09,1.27-.52,.2-1.06,.36-1.61,.44-.53,.08-1.17,.04-1.55-.41Z"/></g><g class="cls-36"><path class="cls-4" d="M422.48,252.3c1.16,.68,2.55,.7,3.86,.64,1.32-.06,2.64-.23,3.96-.29,.66-.02,1.32-.04,1.98,.06,.65,.07,1.31,.25,1.84,.62,.29,.16,.49,.42,.71,.66,.17,.28,.35,.55,.45,.87,.24,.61,.33,1.27,.37,1.92,.08,1.32-.03,2.64-.09,3.96-.03,1.31-.11,2.68,.36,3.96,.2,.65,.69,1.19,1.22,1.58,.54,.39,1.12,.72,1.71,1.03,1.17,.61,2.41,1.12,3.49,1.85,.53,.37,1.06,.79,1.32,1.37,.28,.57,.15,1.24-.14,1.81-.57,1.16-1.49,2.14-2.35,3.14-.85,1.01-1.79,1.99-2.26,3.3-.25,.65-.12,1.47,.33,2.01,.43,.56,1,.94,1.57,1.29,1.15,.7,2.37,1.22,3.51,1.86,1.11,.63,2.35,1.38,2.44,2.69,.16,1.26-.11,2.58-.29,3.89-.18,1.31-.45,2.64-.13,4.03,.02,0,.08,.32,.29,.58,.18,.28,.48,.44,.52,.38,.05-.06-.15-.27-.23-.55-.12-.25-.14-.54-.15-.53-.29-1.21-.06-2.56,.12-3.85,.17-1.31,.44-2.63,.26-4-.07-.69-.44-1.37-.97-1.82-.51-.47-1.1-.8-1.68-1.13-1.17-.64-2.39-1.16-3.51-1.83-.55-.34-1.1-.71-1.49-1.2-.4-.49-.51-1.13-.3-1.73,.42-1.21,1.34-2.21,2.18-3.21,.85-1.01,1.77-1.99,2.37-3.21,.29-.6,.44-1.36,.12-2.01-.3-.65-.86-1.08-1.41-1.45-1.12-.74-2.35-1.24-3.53-1.84-.59-.3-1.16-.62-1.69-1-.53-.38-.98-.87-1.17-1.49-.46-1.23-.39-2.59-.37-3.89,.04-1.32,.15-2.64,.06-3.97-.05-.66-.14-1.33-.39-1.95-.1-.32-.29-.6-.47-.89-.23-.24-.44-.51-.74-.68-.56-.38-1.22-.55-1.88-.62-.66-.09-1.33-.07-1.99-.04-1.32,.07-2.64,.25-3.96,.32-1.3,.07-2.7,.07-3.86-.61Z"/></g><g class="cls-36"><path class="cls-21" d="M208.51,267.45c-2.17,4.34-1.78,9.4-3.51,13.86-.43,1.11-1.02,2.17-1.85,3.02-.82,.86-1.84,1.5-2.94,1.95-2.22,.87-4.62,1.14-6.99,1.43-2.36,.29-4.78,.53-7.04,1.43l-.42,.17c-.14,.05-.28,.11-.42,.24-.27,.22-.38,.53-.48,.82-.18,.59-.23,1.2-.29,1.79-.11,1.19-.12,2.4-.35,3.55-.12,.55-.34,1.17-.86,1.22-.53,.02-1.09-.25-1.61-.51-1.05-.54-2.04-1.22-3.11-1.79-.54-.27-1.08-.57-1.75-.63-.33-.03-.73,.11-.94,.44-.16,.32-.19,.66-.18,.97,.08,1.25,.49,2.38,.78,3.54,.15,.57,.3,1.15,.37,1.72,.05,.57,.09,1.17-.39,1.41-.97,.53-2.22,.63-3.38,.84-.59,.1-1.19,.19-1.78,.34-.58,.18-1.23,.28-1.7,.91-.1,.18-.15,.38-.12,.59,.04,.2,.14,.38,.25,.51,.23,.27,.5,.44,.77,.6,.54,.31,1.11,.53,1.66,.75,1.11,.45,2.27,.81,3.24,1.4,1.24,.56,.16,1.68-.53,2.54-.78,.89-1.64,1.72-2.39,2.71-.18,.26-.35,.53-.48,.84-.05,.17-.11,.34-.1,.55,.01,.1,.03,.21,.05,.31l.09,.21c.22,.58,.51,1.12,.8,1.65,1.23,2.1,2.82,3.92,4.18,5.86,.68,.97,1.33,1.96,1.81,3.02,.47,1.06,.76,2.19,.69,3.32-.14,2.29-1.75,4.19-3.45,5.78-1.73,1.62-3.66,3.04-5.36,4.8-.04-.03-1.38,1.76-1.11,1.94,.18,.1,1.65-1.42,1.69-1.39,1.62-1.7,3.54-3.14,5.3-4.8,.88-.83,1.72-1.73,2.4-2.77,.68-1.03,1.17-2.24,1.23-3.51,.08-1.27-.26-2.52-.77-3.63-.52-1.12-1.19-2.13-1.9-3.11-1.41-1.96-2.99-3.76-4.19-5.78-.28-.51-.56-1.03-.77-1.57l-.09-.2s0-.09-.01-.13c-.01-.09,.04-.21,.06-.33,.1-.24,.24-.48,.41-.71,.68-.93,1.55-1.77,2.33-2.69,.39-.46,.79-.93,1.07-1.53,.08-.14,.11-.33,.15-.5,0-.18,.01-.41-.09-.59-.19-.36-.47-.54-.73-.72-1.08-.65-2.24-.98-3.34-1.43-.55-.21-1.1-.43-1.61-.71-.49-.27-.99-.68-.74-1.04,.24-.37,.87-.56,1.41-.71,.57-.15,1.15-.24,1.74-.34,.59-.1,1.18-.19,1.77-.32,.59-.14,1.19-.26,1.76-.61,.14-.08,.27-.21,.39-.35,.07-.16,.18-.34,.19-.5,.06-.34,.04-.65,0-.96-.08-.62-.24-1.2-.39-1.78-.3-1.15-.72-2.3-.79-3.45-.02-.29,.02-.56,.12-.77,.13-.18,.34-.28,.61-.26,.53,.03,1.08,.32,1.6,.58,1.05,.55,2.04,1.22,3.12,1.77,.54,.26,1.1,.55,1.78,.53,.36-.03,.67-.29,.81-.58,.16-.29,.24-.59,.3-.89,.23-1.2,.23-2.4,.33-3.59,.14-1.11,.11-2.6,1.43-2.82,2.2-.89,4.61-1.15,6.97-1.46,2.37-.3,4.78-.59,7.02-1.49,1.11-.47,2.15-1.13,2.97-2.01,.84-.87,1.43-1.95,1.86-3.07,1.71-4.5,1.28-9.54,3.42-13.89Z"/></g><g class="cls-36"><path class="cls-25" d="M221.4,280.04c-1.46,1.62-2.18,3.71-3.11,5.64-.46,.97-.94,1.94-1.56,2.82-.62,.87-1.43,1.65-2.46,1.95-1.03,.31-2.15,.07-3.08-.44-.95-.5-1.79-1.19-2.59-1.9-1.62-1.41-3.08-3.04-4.98-4.13,0,0-.45-.2-.48-.15-.02,.05,.39,.3,.39,.3,1.87,1.05,3.34,2.67,4.98,4.08,.81,.71,1.66,1.39,2.63,1.9,.95,.51,2.1,.75,3.16,.42,1.06-.31,1.88-1.12,2.49-1.99,.62-.89,1.09-1.86,1.54-2.84,.92-1.94,1.62-4.03,3.07-5.66Z"/></g><g class="cls-36"><path class="cls-22" d="M177.09,216.36c-1.81,1.39-3.2,3.24-4.89,4.75-.85,.74-1.77,1.48-2.87,1.75-.55,.15-1.12,.11-1.66-.04-.26-.1-.52-.22-.76-.36-.22-.17-.47-.31-.68-.51-1.69-1.53-2.77-3.59-3.77-5.61-.48-1.03-.93-2.07-1.33-3.13-.2-.54-.39-1.05-.58-1.62-.2-.6-.39-1.21-.57-1.83-.43,.62-.92,1.58-1.28,2.27-.37,.73-.73,1.46-1.08,2.2-.7,1.47-1.39,2.95-2.13,4.4-.74,1.45-1.54,2.87-2.47,4.2-.93,1.32-2,2.56-3.32,3.49-1.3,.94-2.87,1.46-4.47,1.55-1.61,.11-3.22-.13-4.8-.48-3.17-.69-6.25-1.85-9.5-2.41-1.62-.29-3.31-.3-4.95-.06-1.64,.23-3.23,.63-4.81,1.04-3.15,.82-6.32,1.81-9.52,1.6-1.59-.1-3.12-.61-4.48-1.46-1.36-.83-2.57-1.91-3.72-3.05-2.3-2.27-4.37-4.86-7.06-6.85-1.34-.99-2.9-1.75-4.55-2.09-1.64-.36-3.32-.41-4.97-.37-3.29,.08-6.54,.56-9.73,.27-1.59-.14-3.12-.54-4.53-1.26-1.42-.7-2.75-1.63-4.04-2.6-2.6-1.92-5.07-4.17-8.18-5.56-1.54-.68-3.29-1.06-5.02-.88-1.72,.17-3.34,.78-4.83,1.53-2.98,1.53-5.56,3.59-8.31,5.25-1.38,.83-2.78,1.55-4.3,2-1.52,.46-3.11,.76-4.71,1.05-3.18,.6-6.54,1-9.6,2.63l-.48,.31c-.28,.21-.63,.52-.97,.82-.31,.35-.6,.71-.79,.99-.16,.32-.22,.55-.14,.61,.08,.07,.29-.04,.55-.24,.29-.16,.64-.4,.98-.63l1-.55,.47-.21c2.73-1.49,6-1.95,9.2-2.56,1.61-.3,3.24-.61,4.84-1.12,1.62-.49,3.14-1.28,4.55-2.14,2.82-1.73,5.37-3.8,8.2-5.27,1.41-.73,2.9-1.3,4.44-1.45,1.53-.17,3.08,.15,4.52,.77,2.9,1.27,5.37,3.45,8.02,5.39,1.32,.97,2.69,1.92,4.2,2.66,1.5,.75,3.19,1.18,4.85,1.31,3.34,.28,6.6-.24,9.83-.33,1.61-.05,3.23-.01,4.78,.32,1.56,.31,2.99,1,4.29,1.94,2.6,1.88,4.67,4.44,7.02,6.73,1.18,1.15,2.43,2.25,3.86,3.11,1.42,.87,3.09,1.42,4.76,1.51,3.37,.19,6.57-.85,9.7-1.69,3.13-.86,6.35-1.63,9.55-1.03,3.2,.52,6.28,1.66,9.5,2.34,1.6,.34,3.25,.57,4.91,.45,1.65-.11,3.29-.66,4.64-1.65,1.35-.97,2.43-2.25,3.37-3.59,.93-1.35,1.73-2.79,2.46-4.25,.73-1.46,1.41-2.95,2.11-4.43,.34-.74,.7-1.47,1.06-2.2l.52-1.01,.27-.47,.13-.24,.07-.12s.05-.13,.06-.05c.14,.48,.29,.96,.46,1.44,.18,.51,.38,1.06,.58,1.59,.42,1.06,.87,2.11,1.36,3.13,1.02,2.02,2.11,4.09,3.83,5.62,.21,.2,.46,.34,.69,.51,.25,.14,.51,.26,.78,.36,.55,.15,1.15,.19,1.7,.03,1.13-.28,2.04-1.03,2.89-1.78,1.69-1.53,3.06-3.38,4.86-4.78Z"/></g><g class="cls-36"><path class="cls-31" d="M175.46,191.71c-.73,.15-1.21,.78-1.62,1.35-.41,.6-.75,1.23-1.09,1.87-.34,.63-.68,1.27-1.06,1.88-.4,.58-.81,1.23-1.47,1.52-.69,.27-1.4-.17-1.93-.61-.55-.46-1.04-.99-1.53-1.52-.49-.53-.96-1.07-1.48-1.59-.52-.5-1.05-1.02-1.75-1.29-.34-.17-.75-.1-1.09-.01-.37,.05-.69,.23-1.03,.36-.64,.34-1.25,.76-1.79,1.24-1.1,.95-2.04,2.06-3.02,3.11-.98,1.05-1.98,2.11-3.22,2.82-1.22,.76-2.72,.79-4.14,.77-1.43-.04-2.87-.22-4.32-.3-1.44-.06-2.94-.11-4.33,.46-1.43,.5-2.38,2.05-2.3,3.54-.02,1.49,.42,2.9,.8,4.29,.4,1.39,.84,2.76,1.03,4.17,.25,1.41-.12,2.8-.95,3.96-.78,1.19-1.76,2.24-2.71,3.34-.94,1.1-1.9,2.23-2.45,3.64-.01,0-.1,.33-.14,.67-.06,.34,.02,.69,.09,.69,.1,0,.13-.32,.26-.61,.11-.3,.23-.58,.24-.58,.5-1.3,1.42-2.42,2.35-3.51,.93-1.1,1.92-2.17,2.72-3.4,.4-.61,.75-1.28,.92-2.02,.19-.74,.16-1.5,.06-2.22-.2-1.46-.66-2.84-1.07-4.22-.39-1.38-.84-2.77-.82-4.18-.07-1.41,.76-2.78,2.09-3.27,1.3-.55,2.78-.52,4.2-.47,1.44,.07,2.87,.24,4.32,.27,1.43,0,2.97-.03,4.25-.83,1.27-.74,2.27-1.82,3.25-2.88,.98-1.06,1.91-2.17,2.99-3.12,.53-.49,1.12-.89,1.75-1.24,.33-.13,.65-.31,1-.36,.34-.08,.7-.15,1.02,0,.66,.24,1.2,.76,1.71,1.25,.51,.5,.99,1.04,1.48,1.57,.49,.53,.99,1.06,1.55,1.52,.54,.44,1.27,.89,2,.61,.68-.3,1.09-.96,1.49-1.55,.38-.62,.71-1.26,1.05-1.89,.34-.64,.68-1.28,1.08-1.87,.4-.58,.88-1.21,1.6-1.36Z"/></g><g class="cls-36"><path class="cls-18" d="M203.05,239.85c-.37-.57-1.12-.68-1.74-.65-.65,.02-1.29,.17-1.92,.31-1.26,.3-2.51,.69-3.8,.86-.63,.07-1.33,.09-1.87-.26-.53-.36-.89-.93-1.22-1.48-.65-1.12-1.13-2.33-1.76-3.48-.31-.57-.66-1.14-1.14-1.59-.24-.23-.54-.4-.88-.47-.33-.05-.65-.06-.98-.09-1.3-.07-2.61,.01-3.9,.22-2.58,.39-5.08,1.16-7.58,1.83-2.5,.66-5.04,1.33-7.62,1.37-2.59,.12-5.12-.65-7.46-1.72-2.35-1.09-4.57-2.44-6.84-3.7-2.27-1.27-4.64-2.44-7.21-3.06,0,0-1.19-.14-1.21,0-.02,.14,1.11,.42,1.11,.42,2.5,.58,4.85,1.72,7.12,2.97,2.28,1.24,4.51,2.58,6.89,3.67,2.37,1.06,4.96,1.83,7.6,1.69,2.63-.07,5.17-.76,7.67-1.44,2.5-.69,4.99-1.48,7.55-1.88,1.28-.22,2.57-.31,3.87-.25,.32,.03,.65,.03,.96,.08,.3,.06,.59,.22,.82,.43,.47,.43,.82,.99,1.13,1.55,.63,1.13,1.12,2.34,1.78,3.47,.34,.55,.7,1.12,1.25,1.49,.57,.37,1.28,.33,1.91,.26,1.29-.18,2.53-.59,3.8-.89,.63-.15,1.27-.3,1.92-.32,.63-.03,1.37,.07,1.74,.64Z"/></g><g class="cls-36"><path class="cls-9" d="M172.12,140.43c-3.02,2.82-4.9,6.69-8.15,9.27-.81,.62-1.71,1.16-2.72,1.38-.99,.24-2.04,.22-3.03-.06-1.97-.61-3.57-2-5.02-3.45-1.45-1.46-2.77-3.05-4.25-4.5-.37-.36-.75-.72-1.15-1.05l-.6-.49c-.23-.14-.47-.29-.73-.35-1.03-.31-2.09-.19-3.12-.12-1.03,.09-2.05,.22-3.07,.24-.51,0-1.02-.01-1.5-.14-.49-.1-.92-.36-1.17-.76-.27-.39-.35-.9-.37-1.4-.03-.5,.01-1.01,.07-1.52,.11-1.02,.3-2.03,.42-3.06,.11-1.02,.24-2.11-.19-3.15-.27-.53-.7-.83-1.07-1.2-.36-.38-.82-.65-1.23-.98-1.72-1.21-3.68-1.99-5.68-2.55-4.01-1.13-8.15-1.49-12.15-2.4-4.03-.83-7.67-2.81-11.36-4.65-1.85-.92-3.72-1.82-5.69-2.53-1.96-.7-4.03-1.2-6.16-1.18,0,0-.48,.01-.95,.11-.47,.11-.93,.26-.91,.37,.02,.11,.49,.14,.95,.14,.23-.01,.46,.04,.63,.04l.29,.02c2.01-.03,4.02,.43,5.94,1.1,1.93,.67,3.79,1.55,5.63,2.46,3.68,1.81,7.4,3.8,11.51,4.62,4.05,.89,8.18,1.22,12.14,2.31,1.97,.54,3.9,1.3,5.57,2.46,.4,.31,.84,.57,1.2,.94,.36,.35,.79,.68,.99,1.08,.38,.88,.29,1.95,.18,2.95-.12,1.02-.3,2.03-.4,3.07-.05,.52-.09,1.04-.06,1.57,.03,.52,.11,1.08,.43,1.55,.3,.48,.83,.78,1.35,.88,.52,.13,1.05,.15,1.57,.14,1.04-.03,2.07-.17,3.09-.26,1.01-.08,2.07-.2,3.02,.09,.25,.05,.45,.19,.66,.31l.6,.48c.39,.33,.77,.67,1.14,1.03,1.47,1.43,2.81,3.01,4.28,4.47,1.46,1.44,3.09,2.84,5.1,3.45,1.01,.27,2.08,.28,3.09,.04,1.02-.23,1.93-.79,2.74-1.42,3.25-2.62,5.09-6.49,8.09-9.34Z"/></g><g class="cls-36"><path class="cls-24" d="M207.36,123.81c-.63,1.53-.65,3.21-.79,4.83-.15,1.61-.2,3.34-1.11,4.71-.46,.67-1.23,1.11-2.04,1.11-.81,.01-1.6-.27-2.34-.61-1.48-.69-2.83-1.64-4.28-2.42-.72-.39-1.47-.76-2.28-.95-.81-.21-1.69-.08-2.45,.25-1.53,.66-2.8,1.74-4.13,2.68-.67,.47-1.34,.93-2.06,1.3-.72,.36-1.51,.62-2.3,.51-.78-.1-1.48-.57-2.09-1.08-.62-.52-1.17-1.12-1.7-1.74-1.09-1.22-2.08-2.55-3.43-3.56-.66-.49-1.52-.85-2.38-.78l-.63,.03-.62,.12c-.42,.06-.8,.24-1.2,.36-1.56,.62-2.9,1.63-4.17,2.66-1.27,1.04-2.48,2.15-3.75,3.18-1.26,1.03-2.6,1.98-4.11,2.53-1.51,.56-3.13,.79-4.75,.97-1.62,.18-3.26,.31-4.9,.58-1.62,.28-3.29,.66-4.72,1.6,0,0-.31,.24-.59,.5-.26,.29-.48,.61-.41,.67,.07,.06,.38-.15,.67-.36,.33-.17,.63-.36,.63-.36,1.32-.88,2.92-1.27,4.51-1.56,1.6-.28,3.23-.41,4.87-.61,1.63-.2,3.28-.44,4.85-1.03,1.58-.59,2.94-1.58,4.21-2.63,1.27-1.05,2.47-2.17,3.73-3.21,1.26-1.03,2.57-2.03,4.06-2.64,1.47-.56,3.24-.86,4.52,.19,1.3,.95,2.31,2.27,3.4,3.49,.54,.62,1.11,1.22,1.74,1.76,.63,.53,1.36,1.01,2.22,1.12,.86,.1,1.7-.18,2.43-.55,.74-.38,1.42-.85,2.08-1.33,1.33-.96,2.59-2.04,4.08-2.69,.74-.32,1.56-.46,2.35-.26,.79,.18,1.53,.53,2.25,.92,1.44,.77,2.8,1.71,4.3,2.39,.75,.33,1.55,.62,2.38,.6,.84-.01,1.63-.47,2.09-1.16,.92-1.41,.95-3.14,1.09-4.75,.13-1.62,.13-3.3,.75-4.83Z"/></g><g class="cls-36"><path class="cls-12" d="M262.27,81.28c-.14-.24-.47-.26-.72-.32-.27-.05-.54-.09-.81-.12-.54-.06-1.09-.1-1.63-.15-.54-.04-1.09-.09-1.63-.15-.27-.03-.54-.07-.81-.12-.13-.03-.27-.06-.39-.11-.11-.04-.27-.11-.24-.26,.18-.97,.69-1.9,1.07-2.83,.2-.47,.41-.93,.6-1.41,.1-.24,.19-.5,.26-.76,.03-.13,.06-.26,.05-.4-.07-.02-.24,.08-.35,.12-1.96,.8-3.63,1.9-5.43,2.88-1.77,.97-3.61,1.94-5.62,2.21-.99,.13-2.03,.07-2.95-.34-.92-.39-1.69-1.08-2.29-1.88-2.39-3.3-2.82-7.6-5.15-11.04-.59-.85-1.38-1.56-2.24-2.13-.86-.57-1.76-1.06-2.68-1.5-1.84-.89-3.74-1.64-5.44-2.72-.84-.54-1.64-1.16-2.27-1.93-.62-.77-1-1.7-1.23-2.67-.47-1.95-.41-4-.46-6.03-.05-2.03-.08-4.14-.9-6.1-.39-.98-1.09-1.86-1.97-2.46-.87-.61-1.87-.99-2.86-1.27-2.01-.52-4.06-.69-6.06-.96-2-.28-4-.63-5.68-1.72-1.7-1.04-3.24-2.39-4.86-3.63-1.62-1.22-3.35-2.51-5.51-2.88l-.33-.02c-.2-.03-.46,0-.72,.05-.53,.04-1,.31-.96,.41,.04,.13,.52,.05,.99,.13,.47,0,.92,.17,.92,.15,1.91,.3,3.61,1.51,5.21,2.7,1.62,1.22,3.16,2.56,4.95,3.64,.89,.54,1.88,.96,2.89,1.22,1.01,.25,2.03,.41,3.04,.55,2.03,.26,4.06,.42,6,.91,1.91,.49,3.79,1.51,4.51,3.4,.78,1.82,.84,3.89,.9,5.9,.07,2.03,.02,4.1,.52,6.12,.25,1,.67,2,1.33,2.82,.67,.81,1.51,1.45,2.38,2,1.76,1.09,3.67,1.83,5.5,2.7,1.81,.88,3.67,1.85,4.83,3.5,2.3,3.33,2.77,7.64,5.22,10.99,.63,.81,1.43,1.52,2.39,1.92,.96,.42,2.03,.46,3.05,.33,2.05-.29,3.89-1.29,5.66-2.27l2.65-1.52c.86-.49,1.83-1.01,2.67-1.36,.1-.03,.23-.12,.3-.11,0,.12-.03,.23-.05,.34-.06,.22-.14,.44-.23,.67-.18,.47-.38,.94-.58,1.41-.38,.95-.88,1.84-1.05,2.87-.02,.16,.15,.24,.27,.28,.14,.05,.26,.08,.4,.11,.27,.05,.54,.09,.81,.12,.54,.06,1.09,.1,1.63,.14,.54,.04,1.09,.08,1.63,.13,.27,.03,.54,.06,.81,.11,.25,.07,.58,.08,.72,.32Z"/></g><g class="cls-36"><path class="cls-10" d="M242.57,104.22c-1.72-1.24-3.81-1.75-5.77-2.47-.99-.35-1.97-.73-2.87-1.27-.89-.53-1.71-1.26-2.11-2.22-.42-.96-.32-2.06-.03-3.05,.29-1,.74-1.95,1.2-2.89,.91-1.87,2.06-3.69,2.45-5.8,.2-1.05-.04-2.18-.62-3.07-.56-.91-1.29-1.68-2.03-2.43-.74-.75-1.51-1.46-2.23-2.22-.71-.76-1.4-1.56-1.81-2.5-.43-.94-.37-2,0-2.96,.36-.97,.91-1.86,1.48-2.73,.57-.87,1.18-1.73,1.74-2.63,.55-.9,1.07-1.85,1.29-2.92,0,0,.04-.25,.04-.49-.03-.25-.07-.49-.13-.49s-.1,.24-.13,.47l-.12,.45c-.19,1-.69,1.93-1.23,2.81-.54,.89-1.14,1.75-1.71,2.64-.57,.88-1.13,1.79-1.49,2.8-.38,.99-.44,2.17,.03,3.16,.44,.99,1.15,1.8,1.87,2.56,.73,.76,1.5,1.47,2.25,2.21,.74,.74,1.47,1.5,2.01,2.38,.57,.87,.8,1.92,.62,2.94-.37,2.05-1.49,3.89-2.4,5.77-.46,.94-.9,1.9-1.19,2.92-.29,1-.38,2.13,.05,3.11,.41,.99,1.25,1.72,2.15,2.25,.91,.53,1.9,.9,2.89,1.25,1.96,.71,4.05,1.2,5.78,2.43Z"/></g><g class="cls-36"><path class="cls-6" d="M418.46,108.01c1.34-1.75,1.71-4.05,3.05-5.78,.34-.41,.81-.78,1.36-.78,.55-.03,1.04,.32,1.3,.8,.54,.95,.74,2.04,.96,3.11,.21,1.07,.39,2.16,.73,3.21,.19,.51,.41,1.05,.86,1.41,.45,.36,1.04,.45,1.58,.48,1.11,.06,2.2-.13,3.28-.25,1.08-.12,2.19-.28,3.23-.05,1.11,.21,1.51,1.41,1.75,2.43,.24,1.06,.37,2.15,.55,3.23,.09,.54,.2,1.08,.36,1.62,.16,.53,.38,1.07,.79,1.49,.42,.44,1.08,.52,1.63,.43,.58-.07,1.08-.38,1.53-.71,1.72-1.45,2.76-3.44,4.12-5.13,.68-.83,1.41-1.68,2.39-2.07,.99-.35,2.1-.37,3.18-.34,1.09,.03,2.18,.13,3.28,.15,1.1,.01,2.24,.02,3.31-.44,.55-.2,.99-.64,1.37-1.01,.41-.38,.78-.78,1.15-1.19,.75-.81,1.43-1.68,2.09-2.55,2.65-3.49,4.88-7.32,8.06-10.27,1.58-1.46,3.42-2.67,5.49-3.24,2.06-.6,4.24-.7,6.4-.61,4.34,.2,8.64,1.2,13.08,1.25,0,0,.5-.02,1.01-.09,.5-.09,1-.21,.98-.33s-.51-.18-1-.22l-.98-.09c-4.33-.01-8.64-.99-13.06-1.16-2.2-.08-4.45,.04-6.6,.68-2.17,.61-4.08,1.9-5.69,3.4-3.24,3.06-5.45,6.92-8.06,10.4-.66,.87-1.32,1.73-2.05,2.54-.36,.41-.73,.81-1.12,1.18-.4,.39-.75,.76-1.24,.94-.95,.42-2.07,.44-3.14,.43-1.09-.02-2.18-.11-3.28-.13-1.1-.02-2.23,0-3.31,.39-1.08,.44-1.83,1.34-2.51,2.19-1.36,1.72-2.4,3.71-4.04,5.11-.42,.31-.88,.61-1.4,.67-.5,.09-1.07,.02-1.42-.35-.7-.76-.89-1.91-1.1-2.96-.19-1.07-.33-2.16-.58-3.24-.14-.53-.28-1.08-.57-1.56-.27-.5-.77-.88-1.33-.99-1.11-.23-2.21-.06-3.3,.07-1.08,.13-2.17,.32-3.25,.27-.53-.02-1.1-.11-1.51-.44-.41-.33-.64-.85-.83-1.35-.34-1.03-.52-2.12-.74-3.19-.23-1.06-.43-2.17-.99-3.13-.26-.48-.79-.86-1.36-.82-.57,0-1.05,.39-1.39,.81-1.35,1.76-1.7,4.05-3.02,5.81Z"/></g><g class="cls-36"><path class="cls-7" d="M408.19,158.34c-1.78,.08-3.37,1.2-5.13,1.36-.1,0-.23-.06-.21-.17,.01-.1,.13-.15,.23-.19,.21-.07,.43-.09,.65-.11,.44-.04,.89-.04,1.34-.05,.89,0,1.78,.02,2.68-.03,.22-.01,.45-.03,.67-.08,.2-.03,.53-.15,.47-.43-.05-.47-.24-.87-.41-1.29-.36-.82-.77-1.61-1.14-2.42-.19-.4-.37-.81-.51-1.23-.06-.2-.12-.37-.08-.56,.03-.1,.15-.12,.23-.08,.09,.03,.16,.09,.24,.15,.63,.54,1.2,1.28,1.76,1.96,.57,.69,1.12,1.39,1.77,2.02,.17,.14,.33,.33,.63,.36,.27-.08,.42-.2,.64-.3,.38-.25,.73-.55,1.03-.89,1.18-1.38,1.85-3.08,2.61-4.68,.37-.81,.77-1.61,1.23-2.36,.46-.75,1.01-1.46,1.75-1.92,.73-.46,1.61-.63,2.49-.7,.88-.07,1.77-.04,2.65,.02,1.77,.09,3.57,.32,5.38,0,.88-.2,1.82-.5,2.39-1.35,.44-.89,.36-1.84,.31-2.73-.07-.9-.2-1.78-.29-2.66-.07-.87-.17-1.78,.07-2.58,.18-.84,1.06-1.15,1.89-1.32,.85-.17,1.74-.21,2.63-.28,.89-.06,1.79-.11,2.69-.31,.45-.1,.91-.24,1.32-.52,.44-.24,.72-.8,.73-1.3-.02-1.04-.59-1.82-1.08-2.57-.51-.75-1.07-1.45-1.59-2.16-.51-.71-1.03-1.45-1.25-2.24-.27-.76,.26-1.52,.76-2.2,1.07-1.38,2.47-2.52,3.5-4.09,0,0,.05-.09,.12-.25,.07-.15,.16-.34,.19-.57,.12-.44-.02-.9-.13-.87-.08,.02-.1,.4-.29,.73-.07,.17-.18,.33-.26,.45-.08,.12-.13,.2-.13,.2-.92,1.44-2.32,2.61-3.43,4.06-.27,.37-.55,.75-.73,1.2-.11,.21-.15,.47-.2,.72,0,.25,0,.52,.09,.75,.28,.94,.83,1.68,1.35,2.41,.53,.72,1.09,1.42,1.6,2.14,.48,.71,1,1.5,1.01,2.27,.02,.79-.85,1.22-1.67,1.38-.84,.19-1.73,.25-2.62,.31-.89,.07-1.79,.12-2.69,.3-.45,.1-.9,.21-1.32,.46-.41,.24-.79,.68-.88,1.15-.26,.93-.14,1.85-.06,2.74,.1,.89,.23,1.77,.31,2.66,.07,.87,.11,1.79-.25,2.53-.19,.34-.56,.58-.93,.78-.38,.19-.8,.32-1.22,.41-1.72,.32-3.52,.11-5.3,.03-.89-.05-1.79-.08-2.69,0-.89,.08-1.82,.26-2.6,.76-.78,.5-1.35,1.25-1.81,2.01-.47,.77-.86,1.58-1.23,2.39-.75,1.61-1.41,3.3-2.55,4.65-.29,.33-.62,.62-.98,.86-.18,.09-.4,.23-.56,.28-.16,0-.35-.17-.5-.31-.64-.6-1.2-1.31-1.77-1.99-.59-.69-1.1-1.38-1.84-2-.1-.07-.21-.15-.32-.18-.11-.04-.26,0-.3,.11-.08,.22,0,.5,.08,.72,.14,.43,.33,.84,.52,1.24,.38,.81,.8,1.6,1.16,2.41,.17,.4,.37,.82,.41,1.25,.04,.24-.2,.32-.41,.36-.22,.04-.44,.06-.66,.08-.89,.06-1.78,.03-2.67,.05-.45,0-.89,.01-1.34,.05-.22,.02-.45,.05-.66,.12-.1,.04-.23,.09-.25,.22-.02,.14,.14,.21,.24,.21,1.79-.18,3.35-1.31,5.14-1.4Z"/></g><g class="cls-36"><path class="cls-23" d="M202.88,97.71c.53-.73,.65-1.65,.66-2.53,0-.89-.11-1.77-.22-2.64-.21-1.74-.61-3.54-.17-5.26,.22-.86,.87-1.53,1.61-1.99,.74-.48,1.56-.83,2.37-1.16,1.63-.67,3.36-1.17,4.82-2.23,.72-.52,1.3-1.35,1.3-2.28,.01-.92-.37-1.77-.79-2.55-.87-1.56-2.02-2.92-2.92-4.43-.44-.75-.84-1.56-.94-2.41-.08-.86,.17-1.72,.45-2.54,.58-1.66,1.43-3.22,1.98-4.93,.26-.85,.48-1.77,.27-2.69-.06-.23-.11-.46-.25-.66l-.17-.31-.26-.26c-.37-.32-.83-.47-1.27-.56-1.81-.31-3.58-.01-5.33-.02-.87,0-1.77-.04-2.51-.39-.73-.37-.99-1.25-.92-2.09,.11-1.72,.76-3.4,1.03-5.18,.06-.45,.11-.9,.07-1.37,0-.47-.21-.94-.4-1.34-.42-.82-.96-1.53-1.5-2.24-1.04-1.41-2.28-2.77-2.78-4.37-.23-.78-.1-1.66,.53-2.16,.6-.5,1.48-.61,2.32-.59,1.72,.06,3.44,.53,5.22,.75,0,0,.41,.03,.82,0,.42-.02,.82-.11,.82-.21,0-.09-.4-.15-.79-.23l-.78-.15c-1.73-.21-3.46-.66-5.28-.72-.89-.01-1.91,.08-2.69,.74-.8,.64-.96,1.81-.67,2.7,.27,.91,.77,1.68,1.28,2.41,.52,.73,1.08,1.42,1.62,2.12,.53,.7,1.07,1.4,1.47,2.16,.43,.75,.43,1.58,.31,2.45-.24,1.72-.89,3.4-1,5.23-.02,.46,.01,.93,.19,1.38,.14,.47,.54,.83,.95,1.07,.88,.4,1.8,.41,2.69,.42,1.78,0,3.56-.3,5.27-.02,.42,.08,.83,.22,1.13,.48l.21,.21,.15,.27c.12,.17,.17,.37,.22,.58,.19,.82,0,1.7-.25,2.53-.52,1.67-1.36,3.25-1.94,4.93-.28,.84-.54,1.73-.45,2.65,.11,.92,.53,1.73,.98,2.5,.93,1.52,2.09,2.88,2.95,4.41,.42,.76,.79,1.59,.79,2.45,.01,.87-.52,1.65-1.22,2.17-1.42,1.04-3.15,1.56-4.77,2.24-.82,.34-1.64,.7-2.38,1.18-.75,.47-1.41,1.17-1.63,2.05-.43,1.75-.01,3.54,.2,5.28,.12,.88,.24,1.75,.24,2.64,0,.87-.12,1.8-.64,2.53Z"/></g><g class="cls-36"><path class="cls-30" d="M413.88,87.74c-.8-.37-1.71-.28-2.57-.22-.87,.07-1.73,.18-2.59,.23-.43,.03-.87,.03-1.3-.01-.42-.06-.87-.15-1.16-.48-.3-.33-.23-.83,0-1.18,.21-.37,.51-.69,.82-1,1.24-1.21,2.76-2.11,3.88-3.48,.25-.35,.48-.78,.39-1.25-.1-.44-.32-.83-.56-1.19-.49-.73-1.08-1.37-1.65-2.03-.56-.66-1.15-1.31-1.57-2.05-.22-.36-.37-.79-.3-1.17,.07-.39,.43-.68,.82-.82,1.6-.59,3.39-.53,5.11-.86,.43-.09,.86-.17,1.27-.36,.39-.16,.86-.47,.92-.98,.06-.48-.09-.92-.26-1.33-.18-.41-.4-.79-.63-1.16l-1.42-2.18c-.44-.72-.92-1.5-.96-2.3-.01-.39,.29-.7,.6-.96,.32-.27,.7-.47,1.08-.66,.77-.39,1.57-.71,2.37-1.06,.79-.37,1.61-.7,2.3-1.32,.35-.27,.64-.82,.48-1.32-.15-.49-.54-.82-.91-1.05-1.54-.94-3.27-1.3-4.81-2.04-.74-.37-1.56-.84-1.47-1.66,.02-.8,.35-1.63,.65-2.43,.31-.81,.66-1.6,.94-2.44,.14-.42,.27-.84,.33-1.3,.05-.44,.09-.97-.25-1.42-.34-.43-.89-.55-1.34-.56-.46,0-.91,.05-1.34,.14-.87,.16-1.71,.4-2.55,.61-.83,.2-1.68,.42-2.49,.4-.4-.02-.78-.09-.96-.38-.2-.28-.33-.67-.37-1.08-.22-1.66,.06-3.41-.11-5.2,0,0-.06-.41-.23-.8-.14-.4-.49-.72-.56-.64-.06,.06,.11,.39,.15,.76,.06,.36,.07,.74,.07,.74,.18,1.68-.09,3.42,.15,5.21,.06,.44,.19,.92,.49,1.34,.09,.09,.18,.2,.29,.28l.35,.18c.24,.06,.49,.12,.72,.11,.94,.01,1.79-.22,2.64-.43,.84-.22,1.68-.46,2.51-.63,.8-.15,1.78-.29,2.23,.24,.22,.25,.22,.68,.17,1.08-.04,.4-.17,.82-.3,1.22-.27,.81-.61,1.61-.91,2.43-.29,.82-.64,1.64-.66,2.58-.05,.47,.21,1.01,.57,1.3,.35,.33,.75,.52,1.15,.72,1.59,.75,3.34,1.11,4.78,1.98,.36,.21,.66,.51,.77,.85,.11,.34-.06,.71-.38,.98-.6,.55-1.42,.9-2.2,1.27-.79,.36-1.59,.69-2.38,1.09-.39,.21-.78,.41-1.13,.71-.33,.28-.71,.67-.7,1.19,.06,.96,.58,1.71,1.02,2.45l1.44,2.17c.43,.72,.93,1.52,.87,2.31-.04,.4-.41,.66-.78,.82-.38,.18-.8,.27-1.22,.36-1.69,.34-3.47,.28-5.14,.91-.41,.15-.83,.48-.92,.95-.07,.46,.1,.92,.33,1.29,.44,.77,1.03,1.41,1.6,2.07,.57,.65,1.16,1.29,1.65,2,.24,.36,.45,.73,.55,1.14,.09,.42-.11,.82-.36,1.16-1.08,1.34-2.61,2.27-3.84,3.49-.31,.31-.61,.63-.82,1.02-.23,.36-.31,.9,.01,1.25,.31,.34,.77,.43,1.19,.49,.43,.04,.87,.04,1.3,0,.87-.06,1.73-.18,2.59-.25,.85-.06,1.76-.16,2.56,.2Z"/></g><g class="cls-36"><path class="cls-8" d="M474.66,276.51c-.8,1.67,.72,3.97,0,5.68-.89,.43-1.9,.56-2.86,.8-.49,.11-.97,.21-1.45,.35-.24,.07-.48,.14-.71,.23-.19,.09-.59,.22-.52,.51,.17,.26,.57,.18,.8,.16,.27-.03,.54-.09,.8-.15,.53-.12,1.05-.27,1.57-.42,.52-.15,1.04-.3,1.56-.43,.51-.11,1.08-.28,1.55-.18,.22,.09,.09,.42,.03,.65-.09,.25-.2,.5-.32,.74-.24,.48-.5,.96-.76,1.43l-.77,1.43c-.23,.49-.52,.96-.57,1.55-.01,.18,.15,.32,.25,.38,.11,.08,.21,.18,.34,.25,.24,.13,.48,.27,.74,.36,.51,.21,1.04,.33,1.57,.46,1.06,.24,2.13,.41,3.18,.66,1.02,.26,2.14,.56,2.76,1.39,.28,.43,.32,.96,.17,1.45-.14,.5-.47,.93-.78,1.36-.67,.83-1.47,1.56-2.25,2.31-.77,.76-1.58,1.51-2.13,2.49-.15,.24-.24,.51-.33,.78-.04,.28-.09,.57-.06,.85,.02,.56,.16,1.1,.3,1.63,.31,1.05,.71,2.06,1.06,3.08,.33,1.01,.69,2.07,.56,3.08-.07,.49-.33,.93-.74,1.19-.43,.24-.95,.28-1.47,.27-2.11-.15-4.12-1.11-6.34-1.33,0,0-.31-.03-.63,.03-.32,.03-.61,.17-.59,.24,.04,.08,1.18,.13,1.19,.17,2.1,.19,4.13,1.14,6.35,1.29,.56,0,1.15-.03,1.68-.33,.52-.32,.84-.89,.92-1.46,.13-1.16-.26-2.22-.6-3.25-.36-1.03-.77-2.03-1.07-3.05-.28-1.01-.54-2.13,.04-3.02,.51-.92,1.3-1.67,2.06-2.43,.77-.76,1.57-1.5,2.25-2.36,.32-.44,.66-.89,.82-1.45,.17-.54,.12-1.17-.21-1.66-.73-.93-1.88-1.2-2.91-1.47-1.06-.25-2.13-.41-3.18-.64-.52-.12-1.05-.25-1.54-.44-.25-.08-.49-.21-.72-.34-.12-.06-.21-.15-.32-.23-.12-.09-.2-.14-.19-.25,.04-.49,.32-1,.54-1.47l.76-1.43c.26-.48,.52-.95,.75-1.44,.12-.25,.23-.49,.32-.76,.04-.13,.08-.27,.1-.41,.02-.14-.02-.35-.19-.4-.59-.13-1.11,.07-1.64,.18-.53,.13-1.04,.29-1.56,.44-.52,.15-1.04,.3-1.56,.43-.26,.06-.53,.12-.79,.16-.26,.02-.54,.09-.69-.1-.05-.11,.06-.2,.14-.26,.08-.06,.19-.11,.31-.15,.23-.09,.47-.16,.7-.23,.48-.13,.96-.24,1.45-.35,.96-.24,1.96-.38,2.87-.82,.26-.12,.26-.44,.26-.67,0-.25-.03-.5-.06-.75-.06-.49-.14-.99-.22-1.48-.08-.49-.16-.98-.22-1.48-.03-.25-.05-.5-.05-.74,0-.12,0-.25,.04-.37,.02-.12,.1-.26,.24-.23Z"/></g><g class="cls-36"><path class="cls-1" d="M329.2,321.76c-.21-.14-.49-.09-.71,0-.23,.1-.43,.24-.63,.38-.39,.29-.75,.63-1.11,.97-.71,.68-1.38,1.4-2.12,2.03-.38,.3-.77,.64-1.25,.71-.49,.01-.87-.4-1.21-.72-.68-.7-1.26-1.5-1.88-2.26-.31-.38-.62-.76-.97-1.11-.35-.33-.71-.74-1.26-.76-.28,0-.49,.26-.54,.51-.06,.25-.05,.5-.03,.75,.05,.49,.17,.97,.3,1.45,.26,.95,.57,1.88,.79,2.83,.1,.47,.21,.96,.14,1.43-.06,.47-.59,.67-1.02,.82-.92,.29-1.9,.42-2.87,.6-.48,.09-.97,.18-1.45,.3-.47,.14-.97,.26-1.37,.63-.09,.1-.18,.23-.19,.38-.02,.15,.03,.26,.04,.4,0,.27,.18,.48,.28,.72,.3,.41,.66,.77,1.07,1.05,.8,.59,1.69,1.03,2.56,1.49,.87,.45,1.75,.88,2.57,1.4,.8,.52,1.61,1.16,1.82,2.07,.15,.92-.25,1.85-.74,2.67-.49,.83-1.08,1.62-1.64,2.43-.55,.81-1.13,1.63-1.43,2.62-.06,.23-.16,.51-.1,.8,.05,.27,.15,.51,.26,.74,.23,.46,.51,.87,.79,1.27,.57,.81,1.18,1.57,1.7,2.39,.25,.4,.5,.84,.56,1.26,.08,.43-.24,.65-.71,.63-.92-.04-1.86-.4-2.78-.7-.93-.31-1.85-.67-2.86-.84-.25-.04-.52-.06-.8-.02-.14,.02-.29,.06-.43,.15-.15,.09-.2,.17-.31,.25-.4,.32-.73,.7-1.06,1.08-.62,.79-1.12,1.66-1.58,2.53-.9,1.76-1.64,3.58-2.61,5.26-.49,.83-1.05,1.62-1.73,2.27-.67,.67-1.53,1.08-2.44,1.29-1.84,.41-3.81,.07-5.72-.25-1.93-.32-3.87-.76-5.91-.66,0,0-.46,.04-.91,.17-.45,.09-.86,.35-.83,.44,.07,.15,1.77-.03,1.77,.04,1.9-.11,3.83,.3,5.77,.61,1.93,.3,3.94,.66,5.96,.2,.99-.23,1.96-.72,2.68-1.45,.74-.71,1.31-1.54,1.82-2.4,.98-1.73,1.71-3.56,2.58-5.3,.45-.86,.93-1.7,1.51-2.47,.31-.36,.62-.73,.99-1.02,.2-.18,.31-.28,.51-.3,.2-.03,.44-.01,.67,.02,.93,.15,1.86,.49,2.79,.8,.94,.29,1.86,.66,2.91,.71,.26,0,.57-.03,.82-.24,.26-.21,.33-.58,.28-.85-.09-.56-.37-.99-.63-1.41-.54-.84-1.16-1.6-1.73-2.39-.28-.4-.56-.8-.77-1.22-.11-.21-.2-.43-.23-.64-.05-.2,.03-.41,.09-.64,.26-.91,.83-1.72,1.36-2.53,.55-.81,1.14-1.6,1.64-2.46,.49-.84,.93-1.83,.75-2.89-.26-1.05-1.15-1.71-1.96-2.23-.84-.53-1.73-.96-2.6-1.4-.87-.44-1.75-.88-2.54-1.45-.4-.27-.74-.61-1.02-.99-.09-.21-.25-.4-.25-.64-.05-.24-.07-.45,.1-.6,.32-.31,.81-.45,1.27-.58,.47-.13,.95-.22,1.43-.31,.96-.19,1.94-.32,2.88-.63,.24-.08,.47-.17,.69-.31,.22-.13,.41-.37,.44-.64,.07-.52-.04-1-.15-1.49-.23-.96-.55-1.89-.81-2.83-.13-.47-.25-.95-.31-1.43-.03-.24-.04-.48,.02-.71,.05-.23,.21-.42,.45-.43,.46,0,.85,.4,1.19,.72,.34,.35,.66,.72,.97,1.1,.62,.76,1.21,1.55,1.9,2.25,.35,.32,.73,.74,1.26,.72,.51-.08,.89-.43,1.27-.73,.74-.64,1.41-1.37,2.11-2.05,.35-.34,.71-.68,1.1-.98,.2-.15,.4-.29,.62-.39,.22-.1,.49-.15,.7-.01Z"/></g><g class="cls-36"><path class="cls-5" d="M155.54,277.57c1.63,1.4,3.77,1.98,5.5,3.21,.43,.3,.83,.67,1.1,1.13,.28,.45,.32,1.03,.09,1.5-.22,.47-.66,.81-1.12,1.06-.47,.24-.97,.43-1.48,.58-1.01,.31-2.06,.54-3.08,.83-1.01,.3-2.09,.58-2.89,1.36-.71,.89-.72,2.04-.74,3.09,0,1.07,.08,2.13,.08,3.19-.01,.53-.02,1.06-.12,1.58-.08,.51-.25,1.03-.58,1.41-.32,.39-.82,.6-1.32,.72-.5,.14-1.03,.18-1.56,.22-1.06,.06-2.12,.03-3.19,.06-1.06,.06-2.18,.07-3.16,.63-.52,.26-.81,.84-.91,1.38-.12,.56,.04,1.12,.18,1.64,.37,1.03,.96,1.94,1.53,2.83,.58,.89,1.19,1.77,1.71,2.69,.26,.46,.47,.93,.64,1.42,.13,.49,.2,.99,.12,1.51-.26,2.07-1.26,4.01-1.74,6.11-.11,.53-.22,1.07-.21,1.63-.01,.55,.12,1.15,.45,1.63,.31,.51,.88,.8,1.42,.94,.56,.14,1.12,.13,1.66,.09,2.17-.2,4.2-.99,6.27-1.12,1.03-.06,2.04,.16,2.63,1.02,.63,.79,1.03,1.78,1.41,2.76,.38,.99,.72,2,1.18,2.99,.23,.49,.49,.98,.84,1.43,.35,.43,.8,.87,1.36,1.06,1.11,.42,2.23,.3,3.29,.21l3.17-.39c1.03-.09,2.12-.16,3,.2,.45,.16,.76,.5,.99,.89,.2,.42,.28,.91,.29,1.41,0,2.04-.75,4.09-.94,6.28,0,0-.02,.5,.06,1.01,.08,.51,.29,.98,.42,.94,.1-.04,.07-.51,.11-.97,.04-.46,.12-.92,.12-.92,.15-2.07,.9-4.11,.89-6.35-.02-.56-.1-1.14-.37-1.69-.29-.52-.76-.99-1.33-1.19-1.11-.43-2.24-.31-3.31-.22-1.07,.11-2.12,.3-3.17,.41-1.03,.1-2.12,.19-3.02-.15-.91-.32-1.46-1.27-1.91-2.19-.45-.94-.8-1.95-1.18-2.94-.39-.99-.8-2.01-1.51-2.89-.34-.44-.83-.82-1.38-1-.55-.21-1.12-.19-1.67-.18-2.19,.16-4.2,.97-6.28,1.17-1,.09-2.15,0-2.69-.83-.28-.39-.4-.89-.39-1.39-.02-.51,.08-1.02,.19-1.53,.45-2.05,1.44-3.99,1.71-6.17,.08-.54,0-1.12-.14-1.65-.18-.52-.4-1.02-.68-1.48-.53-.94-1.15-1.81-1.74-2.69-.58-.88-1.16-1.78-1.52-2.76-.14-.49-.29-1.01-.18-1.5,.09-.48,.32-.97,.78-1.2,.88-.51,1.99-.55,3.03-.61,1.06-.04,2.13-.01,3.2-.08,.53-.05,1.07-.09,1.6-.23,.52-.13,1.06-.36,1.42-.8,.36-.43,.53-.98,.61-1.51,.1-.53,.1-1.07,.11-1.61,0-1.07-.1-2.13-.1-3.19,0-1.04,.03-2.18,.69-3,.74-.74,1.81-1.05,2.82-1.35,1.02-.29,2.06-.53,3.08-.85,.51-.16,1.01-.35,1.49-.6,.47-.25,.92-.6,1.15-1.1,.23-.49,.18-1.1-.11-1.56-.28-.46-.68-.83-1.12-1.14-1.75-1.23-3.89-1.79-5.53-3.18Z"/></g><g class="cls-37"><path class="cls-27" d="M503.62,194.44c-.21,.35-.22,.78-.11,1.17,.12,.38,.31,.74,.53,1.08,.44,.68,.96,1.29,1.48,1.91,.52,.61,1.04,1.22,1.51,1.88,.44,.65,.91,1.39,.75,2.2-.26,1.58-1.07,3.01-1.64,4.51-.27,.75-.58,1.52-.54,2.36-.01,.42,.2,.83,.53,1.09,.4,.23,.85,.06,1.22-.08,1.49-.68,2.72-1.75,4.11-2.52,.35-.19,.71-.37,1.08-.45,.39-.11,.73,.06,.94,.39,.41,.66,.61,1.46,.81,2.22,.2,.78,.37,1.56,.61,2.34,.11,.39,.25,.77,.43,1.15,.18,.35,.49,.77,.96,.81,.84,.11,1.66-.14,2.4-.45,.75-.32,1.45-.72,2.15-1.12,1.39-.8,2.75-1.71,4.27-2.12,.75-.2,1.56-.17,2.2,.26,.64,.41,1.11,1.07,1.5,1.76,.77,1.39,1.29,2.91,1.99,4.38,.36,.73,.76,1.45,1.32,2.07,.56,.64,1.38,1.02,2.19,1.17,1.63,.32,3.25,.2,4.85,.25,.8,.02,1.6,.05,2.36,.2,.76,.15,1.51,.42,1.97,.98,.47,.55,.59,1.33,.47,2.09-.11,.76-.39,1.5-.7,2.23-.62,1.46-1.42,2.87-1.93,4.44l-.05,.23c-.04,.14-.07,.32-.08,.51-.05,.38,0,.76,.09,.76,.12-.01,.52-1.35,.55-1.35,.48-1.49,1.26-2.91,1.89-4.41,.31-.75,.59-1.53,.71-2.36,.13-.82,0-1.77-.59-2.45-.58-.69-1.45-.97-2.25-1.12-.82-.16-1.63-.18-2.44-.19-1.61-.03-3.23,.09-4.77-.2-.77-.15-1.48-.46-1.99-1.04-.52-.56-.92-1.26-1.27-1.97-.7-1.43-1.23-2.96-2.03-4.38-.4-.7-.9-1.4-1.62-1.86-.72-.48-1.66-.5-2.44-.28-1.6,.45-2.95,1.37-4.33,2.18-.69,.41-1.39,.8-2.11,1.12-.72,.31-1.51,.55-2.27,.45-.37-.02-.6-.34-.79-.68-.17-.35-.31-.72-.42-1.11-.23-.76-.41-1.55-.62-2.33-.22-.77-.41-1.57-.86-2.28-.14-.16-.27-.33-.49-.42-.21-.1-.44-.07-.64-.03-.41,.09-.78,.28-1.13,.48-1.41,.8-2.64,1.87-4.08,2.54-.35,.15-.78,.28-1.1,.1-.28-.23-.49-.59-.48-.99-.04-.79,.25-1.57,.52-2.31,.55-1.5,1.36-2.93,1.61-4.54,.15-.83-.33-1.59-.78-2.23-.47-.66-1-1.26-1.52-1.87-.52-.61-1.05-1.22-1.49-1.89-.22-.34-.41-.69-.53-1.07-.11-.39-.1-.81,.1-1.16Z"/></g><g class="cls-36"><path class="cls-2" d="M124.15,267.04c-3.57-.92-7.26-1.2-10.87-1.89-1.8-.34-3.6-.77-5.3-1.45-1.7-.68-3.31-1.63-4.57-2.95-1.28-1.31-2.17-2.95-2.71-4.7-.55-1.75-.78-3.58-.9-5.4-.22-3.66,.06-7.34-.16-11.03-.04-.46-.06-.92-.13-1.39-.08-.49-.31-.93-.6-1.31-.57-.76-1.3-1.35-2.03-1.92-.73-.57-1.47-1.11-2.16-1.71-.68-.59-1.36-1.24-1.68-2.03-.28-.8-.03-1.71,.29-2.55,.32-.84,.74-1.66,1.15-2.49,.4-.83,.82-1.66,1.12-2.55,.28-.86,.49-1.96-.14-2.86-.62-.82-1.67-1.14-2.61-1.18-.96-.05-1.89,.09-2.8,.26-1.82,.33-3.6,.87-5.39,.91-1.81,.14-3.27-1.11-4.62-2.31-1.37-1.21-2.63-2.59-4.33-3.52,0,0-.41-.18-.85-.26-.44-.09-.89-.04-.89,.07,0,.09,.4,.19,.76,.36,.36,.17,.7,.37,.7,.37,1.56,.83,2.84,2.19,4.22,3.4,.7,.61,1.41,1.22,2.24,1.7,.81,.51,1.82,.76,2.77,.71,1.9-.07,3.68-.62,5.47-.96,.89-.18,1.8-.31,2.68-.27,.87,.04,1.75,.31,2.27,.99,.48,.66,.36,1.6,.09,2.44-.28,.85-.68,1.68-1.08,2.5-.4,.83-.81,1.65-1.14,2.53-.31,.86-.61,1.85-.27,2.82,.39,.92,1.11,1.57,1.8,2.17,.71,.6,1.46,1.14,2.18,1.7,.72,.56,1.44,1.14,1.98,1.85,.27,.35,.47,.75,.55,1.16,.06,.44,.09,.91,.13,1.36,.24,3.66-.01,7.35,.24,11.03,.13,1.84,.38,3.68,.94,5.45,.56,1.76,1.48,3.43,2.78,4.74,1.3,1.33,2.93,2.28,4.64,2.95,1.72,.67,3.52,1.09,5.33,1.42,3.62,.66,7.31,.92,10.88,1.81Z"/></g><g class="cls-36"><path class="cls-26" d="M443.1,181.45c4.38-4.5,6.34-10.69,10.24-15.52,.98-1.2,2.06-2.33,3.35-3.19,1.27-.87,2.69-1.52,4.17-1.98,2.97-.89,6.08-1.17,9.17-1.47,3.08-.31,6.22-.59,9.19-1.62,.37-.13,.74-.23,1.11-.48,.32-.27,.58-.6,.78-.94,.41-.69,.69-1.43,.95-2.16,.27-.73,.51-1.47,.8-2.18,.29-.71,.61-1.42,1.1-1.95,.5-.54,1.25-.55,1.91-.18,.66,.35,1.24,.85,1.82,1.37,1.16,1.01,2.18,2.22,3.66,2.97,.38,.15,.83,.29,1.26,.18,.44-.06,.8-.29,1.15-.5,.67-.46,1.23-1.01,1.79-1.56,.55-.55,1.08-1.12,1.64-1.65,.56-.52,1.14-1.04,1.79-1.31,.66-.32,1.3-.02,1.67,.59,.37,.61,.56,1.36,.74,2.1,.36,1.49,.49,3.06,1.18,4.57,.09,.19,.22,.36,.33,.55,.16,.15,.28,.35,.49,.46,.39,.28,.83,.34,1.23,.4,.83,.08,1.61-.02,2.39-.11,.78-.1,1.54-.21,2.3-.29,.75-.06,1.54-.11,2.16,.13,.32,.1,.51,.32,.68,.6,.14,.3,.23,.65,.28,1.01,.1,.73,.08,1.5,.06,2.27-.02,.77-.06,1.55-.05,2.35,.03,.79,.05,1.61,.44,2.44,.22,.39,.66,.79,1.1,.87,.43,.15,.91,.13,1.33,.03,.85-.2,1.55-.64,2.2-1.1,1.3-.93,2.42-2.01,3.64-2.91,.6-.45,1.25-.85,1.91-1.05,.64-.2,1.36-.08,2.07,.12,1.43,.42,2.8,1.17,4.26,1.76,.73,.29,1.49,.58,2.32,.71l.64,.05,.67-.07c.22-.07,.45-.14,.65-.23l.55-.33c1.4-.99,2.24-2.42,3-3.78,.76-1.38,1.41-2.79,2.23-4.05,.81-1.26,1.83-2.39,3.22-2.67,1.39-.31,2.92-.06,4.42,.21,1.51,.28,3.04,.65,4.65,.78,0,0,.74,.03,1.48-.11,.75-.12,1.43-.48,1.36-.65-.06-.15-.74-.06-1.42-.12-.67-.03-1.34-.14-1.34-.14-1.49-.11-3-.46-4.54-.74-1.54-.26-3.15-.54-4.83-.17-.82,.2-1.64,.61-2.24,1.2-.61,.57-1.12,1.22-1.54,1.9-.86,1.35-1.51,2.77-2.24,4.12-.72,1.34-1.53,2.67-2.69,3.49-1.09,.92-2.64,.35-4.03-.19-1.42-.56-2.8-1.31-4.36-1.76-.77-.21-1.65-.37-2.51-.11-.83,.26-1.52,.71-2.15,1.19-1.27,.95-2.39,2.04-3.61,2.93-.61,.43-1.26,.83-1.93,.99-.65,.15-1.37,0-1.65-.53-.29-.58-.35-1.36-.38-2.11-.02-.76,.02-1.53,.03-2.32,.01-.78,.03-1.57-.08-2.38-.06-.4-.16-.82-.35-1.22-.22-.4-.6-.77-1.03-.9-.85-.31-1.67-.22-2.45-.16-.79,.08-1.56,.2-2.32,.3-.76,.1-1.53,.19-2.25,.12-.74-.06-1.29-.37-1.59-1.07-.62-1.33-.79-2.92-1.16-4.43-.19-.76-.38-1.54-.82-2.26-.24-.34-.53-.71-.99-.86-.21-.1-.46-.09-.68-.1-.21,.05-.45,.06-.63,.17-.79,.34-1.38,.89-1.95,1.43-.57,.55-1.1,1.12-1.64,1.67-.54,.55-1.09,1.09-1.7,1.51-.62,.44-1.3,.62-1.97,.29-1.33-.65-2.39-1.85-3.56-2.87-.58-.52-1.19-1.04-1.91-1.41-.37-.17-.77-.33-1.22-.29-.46,0-.84,.29-1.15,.56-.57,.62-.88,1.36-1.17,2.09-.28,.73-.53,1.47-.79,2.2-.26,.73-.53,1.45-.91,2.11-.19,.33-.42,.62-.69,.85-.27,.19-.65,.31-1.02,.44-2.91,1.03-6.03,1.33-9.11,1.67-3.09,.32-6.21,.62-9.2,1.54-1.48,.48-2.92,1.14-4.2,2.04-1.3,.88-2.38,2.03-3.36,3.24-3.89,4.89-5.79,11.07-10.13,15.6Z"/></g><g class="cls-36"><path class="cls-3" d="M454,143.15c2.9-2.5,4.07-6.49,7.18-8.75,.78-.53,1.75-.79,2.68-.65,.94,.13,1.78,.62,2.51,1.21,1.46,1.2,2.58,2.76,3.78,4.23,.6,.74,1.22,1.47,1.9,2.13,.35,.33,.71,.64,1.11,.91,.41,.27,.9,.42,1.38,.44,1.94,.12,3.8-.45,5.68-.52,.47,0,.94,0,1.38,.12,.23,.03,.42,.16,.62,.25,.16,.15,.35,.27,.44,.48,.23,.37,.28,.85,.27,1.3,0,.46-.07,.93-.16,1.39-.17,.93-.42,1.84-.64,2.77-.2,.93-.42,1.88-.33,2.87-.01,0,.06,.22,.13,.44,.07,.22,.24,.39,.28,.36,.06-.03-.04-.22-.05-.43-.02-.21-.05-.4-.04-.41-.08-.91,.11-1.85,.31-2.77,.2-.92,.45-1.84,.62-2.79,.09-.47,.15-.95,.15-1.44,0-.48-.05-1-.32-1.44-.11-.24-.33-.39-.52-.56-.23-.1-.45-.24-.7-.27-.48-.13-.97-.12-1.45-.11-1.92,.09-3.77,.67-5.65,.56-.96,0-1.71-.64-2.39-1.29-.68-.65-1.3-1.37-1.9-2.1-1.21-1.46-2.34-3.01-3.83-4.22-.74-.59-1.61-1.09-2.57-1.21-.96-.14-1.95,.14-2.73,.69-3.13,2.31-4.26,6.29-7.14,8.82Z"/></g></g></g></svg>